{"glyphs":{"0":{"ha":753,"x_min":0,"x_max":664,"o":"m 459 1044 l 470 1044 q 593 956 517 1044 q 664 664 664 855 l 664 618 q 661 614 664 614 l 664 609 q 621 353 664 528 q 462 74 566 184 q 292 0 377 0 q 85 151 176 0 q 8 412 8 319 q 3 426 5 412 q 5 429 3 429 q 0 484 0 455 q 3 525 0 490 l 0 530 q 16 590 7 590 l 19 590 q 41 525 23 589 q 46 513 46 525 q 71 614 51 513 q 172 825 101 711 q 382 970 286 970 l 393 970 q 528 877 473 970 q 533 861 533 868 q 528 855 533 855 q 429 932 470 932 l 399 932 q 235 784 317 932 q 208 722 229 775 l 210 722 q 319 800 273 787 l 322 795 q 172 345 172 627 q 227 180 191 218 q 303 134 271 134 l 322 134 q 440 227 395 134 l 440 229 q 372 221 415 221 q 290 235 290 221 q 382 276 290 240 q 489 380 463 321 q 536 538 520 416 q 533 541 536 541 l 536 555 l 536 568 q 519 719 536 682 q 528 730 524 730 l 533 730 q 582 631 548 721 l 585 631 q 595 762 593 693 q 516 989 595 893 q 454 1038 503 1003 q 459 1044 454 1044 z "},"1":{"ha":339,"x_min":-90,"x_max":290,"o":"m 96 976 l 101 976 q 256 850 140 968 l 256 840 q 198 391 222 626 l 198 388 l 201 388 q 284 484 224 431 l 290 484 q 240 370 290 474 q 214 202 214 261 q 277 1 222 96 q 284 -7 280 1 l 279 -15 q 219 -9 230 -12 l 214 -12 q -63 3 -3 3 l -63 6 l -68 3 q -90 12 -90 5 l -90 16 q 88 100 -87 22 l 94 121 l 91 126 q 101 411 99 126 l 101 422 q 104 450 101 433 q 101 471 101 453 q 104 474 101 474 l 101 479 l 101 511 q 96 600 101 571 l 99 600 q 57 827 87 734 q 46 859 46 847 q 54 861 52 861 q 133 756 90 830 l 136 756 q 91 973 136 811 l 96 976 z "},"2":{"ha":673,"x_min":-77,"x_max":674,"o":"m 326 1038 l 356 1038 q 372 1030 372 1036 l 372 1027 q 321 1006 371 1023 q 271 977 274 977 l 271 974 l 313 974 q 562 806 480 974 q 586 696 578 760 l 583 685 q 498 415 583 530 l 492 415 q 487 420 487 415 q 513 554 513 495 q 463 447 479 490 q 382 324 456 443 q 228 134 315 229 l 228 132 l 233 134 q 235 132 235 134 l 249 134 q 522 83 376 134 l 522 75 q 516 70 522 70 l 503 70 q 492 73 497 70 l 487 70 q 468 73 476 73 l 463 70 l 458 73 q 391 67 448 73 l 391 64 q 575 -24 470 39 q 674 -98 661 -83 l 674 -106 l 666 -106 q 374 -10 518 -42 l 369 -13 q 184 14 305 3 l 83 14 q -69 -5 31 14 q -77 3 -73 -5 l -77 6 q 169 231 32 92 l 163 231 q 16 199 97 207 q 5 206 5 202 l 5 209 q 99 265 5 212 q 412 600 311 412 l 410 600 q 321 538 371 564 q 313 546 317 538 l 313 549 q 388 707 388 629 l 388 717 q 278 854 388 830 l 275 854 q 166 773 194 854 q 158 712 158 747 l 158 707 q 169 653 158 690 l 161 648 q 99 722 140 648 l 94 722 l 94 720 q 132 605 104 642 q 209 528 180 537 q 225 514 220 524 l 225 509 q 33 629 104 509 q 14 715 14 675 l 14 739 q 107 937 14 836 q 326 1038 236 1038 z "},"3":{"ha":713,"x_min":-31,"x_max":668,"o":"m -23 985 q 583 935 277 975 q 668 919 668 929 l 668 916 q 604 898 668 908 q 536 877 604 896 l 538 871 l 543 874 l 626 874 q 633 866 629 874 q 538 810 630 859 q 350 644 460 755 l 300 583 l 332 583 q 342 585 338 583 q 472 541 444 563 q 557 434 557 474 l 562 434 q 568 503 568 469 l 568 514 q 559 564 568 528 l 565 567 l 570 567 q 610 463 591 542 q 618 384 618 421 q 507 117 618 233 q 284 5 389 14 q 255 0 258 3 q 33 85 129 0 q 3 127 3 117 l 9 130 l 14 130 q 210 58 79 58 q 350 111 263 58 q 376 135 350 117 q 422 193 403 167 q 419 196 419 193 q 416 193 416 196 q 244 286 302 193 l 244 289 q 250 294 245 294 q 292 273 254 294 q 345 257 318 262 l 350 260 l 353 260 q 461 347 442 260 l 461 371 q 292 471 435 471 q 133 429 193 458 q 14 355 83 409 l 6 355 q 1 363 1 355 q 168 612 22 434 l 258 702 l 255 702 q 141 652 171 673 l 138 652 q 130 659 134 652 q 350 840 295 815 q 366 853 366 850 l 366 855 q 241 895 274 891 q 212 906 241 898 l 205 906 q 189 916 205 909 q 180 913 184 913 q 51 951 169 924 q -31 977 -18 965 q -23 985 -31 981 z "},"4":{"ha":575,"x_min":-94,"x_max":689,"o":"m 461 1055 l 464 1055 q 469 1050 469 1055 q 422 854 446 978 l 422 851 l 425 851 q 493 937 450 895 l 498 937 q 503 932 503 937 q 396 555 456 833 q 689 492 689 513 l 684 490 l 589 490 q 587 492 587 490 q 585 490 585 492 l 558 492 q 388 490 516 492 q 349 294 375 460 q 299 -44 326 182 l 291 -50 l 288 -50 q 275 -7 280 -50 l 278 -7 l 275 -3 l 275 3 q 231 385 275 144 q 220 419 229 385 l 229 425 q 286 351 241 425 q 288 367 286 367 q 286 374 288 370 l 291 479 q 288 481 288 479 q -26 443 205 481 q -67 432 -26 438 l -73 440 l -73 443 q 1 529 -37 481 l 1 532 l -2 532 l -85 492 q -94 495 -91 495 l -94 503 q 299 922 24 644 q 461 1055 444 1055 m 129 574 l 132 574 q 288 568 156 574 q 291 566 288 566 q 296 581 296 574 l 296 762 q 129 576 206 673 l 129 574 z "},"5":{"ha":655,"x_min":-39,"x_max":733,"o":"m 102 977 q 730 895 465 939 l 733 890 q 726 882 733 886 q 723 884 723 882 q 721 882 721 884 l 703 884 q 212 860 425 884 l 212 857 q 197 610 212 810 l 215 613 l 252 613 q 379 593 308 613 q 300 710 361 637 l 300 715 q 304 720 300 720 q 452 608 353 703 q 511 531 494 559 q 566 351 566 424 l 566 334 q 541 202 566 275 q 397 45 489 89 q 255 0 355 16 q 31 125 77 0 q 16 202 21 134 q 113 376 16 303 q 168 396 149 396 l 172 389 q 113 341 133 362 q 73 234 73 292 q 142 104 73 161 l 150 104 q 117 227 117 171 q 125 244 119 244 l 127 244 l 165 192 q 267 140 222 140 l 279 140 q 414 212 357 140 q 444 311 444 267 q 290 496 444 450 q 187 506 252 503 q 8 461 136 506 q -35 441 -24 441 l -39 448 q 48 543 -31 475 l 85 566 q 31 887 85 709 q 35 892 31 892 q 105 814 68 882 l 108 814 q 87 969 100 916 l 102 977 z "},"6":{"ha":661,"x_min":6,"x_max":597,"o":"m 581 974 l 593 974 q 597 969 597 973 q 534 935 595 960 q 408 854 446 886 q 252 694 318 783 q 237 669 252 688 l 237 667 q 313 706 242 667 l 323 706 q 330 699 326 706 q 230 574 240 608 q 193 511 218 567 q 140 392 173 496 q 130 317 130 351 l 130 300 q 155 237 134 267 q 210 205 180 210 q 308 251 264 205 l 315 251 q 320 246 320 250 l 320 241 q 264 173 320 210 q 201 149 236 156 l 201 146 q 288 117 250 117 q 366 139 334 123 q 435 212 408 170 q 449 285 449 250 l 449 288 l 447 304 l 449 304 q 417 385 441 349 q 317 433 374 433 l 298 433 q 157 361 232 433 l 150 361 q 145 366 145 361 q 254 479 168 432 q 347 502 314 502 q 473 453 422 493 q 510 407 510 414 q 532 368 532 376 l 534 368 q 536 387 534 385 q 534 409 534 400 l 534 424 q 539 429 535 429 l 541 429 q 568 375 557 418 l 568 368 l 566 368 q 576 319 572 353 l 573 314 q 576 288 576 298 l 576 275 l 571 268 l 571 266 l 573 254 l 571 254 l 573 248 q 483 78 542 125 q 406 27 444 37 q 330 7 362 7 q 293 3 330 3 l 279 3 q 269 5 273 3 q 262 3 264 3 l 257 5 q 247 3 252 3 q 293 -48 262 -18 l 293 -53 q 286 -60 293 -57 l 281 -60 q 121 24 210 -53 q 6 297 6 128 q 157 692 6 501 q 184 723 168 709 q 581 974 335 902 z "},"7":{"ha":632,"x_min":-121,"x_max":673,"o":"m -115 974 l -50 974 q 532 943 494 943 l 599 943 q 648 934 648 943 l 648 931 l 596 897 q 657 901 637 901 l 667 901 q 673 895 673 899 l 673 891 q 433 560 625 834 q 287 361 380 495 q 17 3 175 219 q 5 0 6 0 l 5 6 q 152 404 33 96 q 219 566 193 513 l 225 566 q 231 560 231 566 l 231 539 q 229 465 231 509 l 229 463 l 231 463 q 412 762 338 651 q 443 814 412 768 l 443 821 q 94 869 121 863 l 91 876 l 91 882 q 174 903 91 886 l 174 907 l -117 962 l -121 968 q -115 974 -120 974 z "},"8":{"ha":667,"x_min":7,"x_max":602,"o":"m 338 1017 l 340 1013 l 340 1007 q 279 956 313 987 l 284 956 q 346 975 307 966 q 349 972 349 975 l 373 975 q 596 808 541 975 q 593 805 596 805 l 602 767 l 602 757 q 532 547 602 625 q 483 488 528 530 q 564 302 564 399 l 564 256 q 491 79 564 184 q 418 14 437 20 q 279 -45 371 -26 l 257 -45 q 224 -35 224 -45 q 273 -10 224 -30 q 303 8 295 8 l 303 11 l 300 11 q 233 3 263 3 l 230 3 q 52 108 115 3 q 20 248 20 161 l 20 253 q 90 431 20 366 l 101 431 l 101 420 q 85 363 85 399 l 85 350 l 87 350 q 179 450 100 390 l 179 452 q 55 566 115 473 q 7 746 7 658 l 7 754 q 15 770 8 770 l 18 770 q 37 727 24 765 q 50 705 50 710 l 52 705 l 52 713 l 50 727 q 63 781 54 727 q 168 932 83 844 q 308 1013 219 977 q 338 1017 333 1017 m 195 678 q 168 697 176 697 l 168 705 l 174 705 l 174 697 l 176 697 l 176 703 q 168 711 176 711 l 171 724 l 165 724 l 168 730 l 168 735 l 165 735 q 155 700 157 735 l 155 686 q 290 541 155 570 l 308 541 q 467 622 404 541 l 467 625 q 413 616 447 621 q 359 633 359 623 q 429 673 427 669 q 480 783 480 726 q 429 859 480 825 q 381 869 397 869 q 241 794 314 869 q 201 681 205 741 l 195 678 m 163 749 l 163 741 q 168 746 168 741 l 168 749 l 163 749 m 203 296 q 206 294 203 294 l 203 280 l 203 275 q 206 229 203 260 l 201 227 l 198 227 q 152 286 152 259 l 146 286 q 141 256 144 256 q 238 124 141 165 q 268 121 256 121 l 273 121 q 391 243 371 121 q 346 347 391 307 q 354 355 346 349 q 451 272 399 355 l 451 261 l 454 261 l 456 280 l 454 313 q 456 315 456 313 q 435 361 454 315 q 368 412 414 395 l 335 412 q 219 342 267 412 q 203 296 212 325 z "},"9":{"ha":632,"x_min":-33,"x_max":670,"o":"m 241 985 l 246 985 l 246 978 q 199 916 203 930 l 202 916 q 398 975 298 975 l 427 975 q 591 902 496 975 q 626 865 591 899 q 670 794 670 802 q 663 787 670 790 l 658 787 q 562 836 591 836 l 559 836 q 562 794 562 802 q 445 199 562 517 l 388 61 l 357 5 l 347 0 q 339 3 342 3 q 413 296 413 261 l 413 299 l 410 299 q 361 218 370 230 l 354 218 q 347 225 351 218 q 361 264 359 261 l 359 269 q 401 444 378 328 l 410 495 l 408 495 q 231 434 318 441 q 214 431 224 434 q -21 561 47 431 q -33 603 -33 589 l -33 618 q -28 623 -33 623 l -26 623 q 14 583 7 583 l 14 588 q 6 656 6 632 q 109 887 6 776 q 241 985 218 985 m 160 696 l 160 671 q 190 612 160 642 l 190 608 q 185 603 190 603 q 116 620 150 603 q 229 551 162 551 l 246 551 q 445 684 359 551 l 462 723 l 459 723 q 371 679 401 679 l 366 686 q 425 782 425 728 q 342 858 410 858 q 199 784 279 858 q 160 696 160 733 z "}," ":{"ha":345,"x_min":0,"x_max":0,"o":""}," ":{"ha":345,"x_min":0,"x_max":0,"o":""},"!":{"ha":1843,"x_min":17,"x_max":1801,"o":"m 921 1158 q 1033 1065 977 1158 q 1082 991 1082 1031 l 1082 972 q 1051 917 1082 949 l 1051 873 q 1082 855 1082 869 q 1045 793 1045 849 l 1045 738 l 1033 738 l 1033 781 q 989 762 1010 762 l 977 762 q 958 781 968 762 q 964 787 958 787 q 958 831 958 812 l 946 824 l 946 837 q 1002 892 964 881 l 1039 880 l 1039 899 l 996 905 q 952 886 975 905 l 946 899 q 977 924 977 915 l 964 924 l 934 917 l 903 924 q 884 917 896 924 q 841 924 859 924 q 779 917 833 924 q 772 924 779 924 l 766 911 l 779 905 l 772 892 l 772 880 q 828 892 819 892 q 884 831 884 873 l 871 837 l 871 806 l 878 774 l 859 762 l 841 762 q 785 831 785 762 l 779 831 l 779 806 q 853 663 779 663 q 921 638 853 652 q 1027 725 1027 674 l 1039 725 q 1021 675 1039 713 q 1014 558 1014 577 q 1144 484 1144 532 q 1150 452 1150 473 l 1150 347 q 1156 218 1150 298 q 1132 186 1144 189 l 1126 186 l 1126 193 l 1138 211 l 1138 353 q 1114 359 1124 353 q 946 236 1114 236 l 946 248 q 1039 260 1025 260 l 1039 267 q 667 317 736 317 q 649 279 667 284 l 642 279 l 642 286 l 655 311 q 618 323 631 311 l 618 317 q 636 242 618 307 q 587 527 601 242 q 655 645 601 645 q 649 750 649 718 l 649 806 q 779 1134 649 1064 q 921 1158 818 1152 m 1008 924 l 1008 917 l 1039 911 l 1039 924 l 1008 924 m 859 917 q 890 892 888 905 l 890 886 l 884 886 l 853 905 q 785 899 798 899 l 785 911 q 859 917 795 911 m 748 855 l 748 831 q 760 843 760 831 q 748 855 760 855 m 785 855 l 791 824 l 797 824 l 797 855 l 785 855 m 1039 855 q 1033 818 1033 823 l 1033 812 l 1039 812 q 1045 849 1039 817 l 1045 855 l 1039 855 m 835 849 q 847 837 836 837 l 853 849 l 835 849 m 816 812 l 816 800 q 853 774 822 774 l 859 806 l 847 812 q 822 806 836 806 q 816 812 822 812 m 946 818 q 958 793 946 808 l 958 787 q 934 812 949 787 l 946 818 m 996 812 l 989 800 l 977 806 l 970 806 q 989 774 979 774 l 996 774 q 1014 793 1004 774 l 1014 806 q 996 812 1008 806 m 909 725 l 934 725 q 921 713 934 713 l 909 713 l 909 725 m 884 700 l 890 700 l 903 694 q 928 700 913 700 q 946 682 936 700 q 928 663 946 673 l 909 663 q 884 694 900 664 l 884 700 m 828 657 q 822 601 822 614 q 871 564 868 578 l 871 558 q 797 595 822 595 l 797 583 q 871 552 797 569 q 909 521 871 545 q 964 533 956 533 l 958 521 q 983 539 983 524 l 996 539 q 1063 521 1056 521 l 1063 533 q 996 545 1057 533 l 940 545 l 940 558 l 989 558 l 989 564 q 946 632 946 573 l 934 626 l 921 626 q 828 657 886 626 m 667 638 q 717 595 681 607 l 717 601 q 673 638 707 638 l 667 638 m 630 614 l 636 614 q 649 626 649 614 l 649 632 q 630 614 640 632 m 928 595 l 934 595 q 909 558 921 558 q 897 570 897 558 l 897 576 l 909 570 q 928 595 918 595 m 692 558 l 698 527 l 692 496 l 711 484 l 723 484 l 717 514 l 717 539 l 729 539 l 723 583 l 692 558 m 605 576 l 605 545 l 611 545 l 611 576 l 605 576 m 797 552 l 797 545 l 816 545 l 816 539 l 810 527 l 828 527 l 822 539 q 828 545 828 539 q 810 552 822 545 l 797 552 m 847 552 l 847 545 q 871 533 857 545 l 871 539 l 853 552 l 847 552 m 599 527 l 599 521 q 630 496 630 521 l 642 496 q 661 527 644 527 q 655 545 655 539 l 649 545 q 599 527 633 527 m 680 539 l 673 514 l 673 503 l 680 503 l 686 533 l 686 539 l 680 539 m 1002 514 l 996 503 q 1002 496 1002 503 q 996 490 996 496 l 1008 490 q 1039 508 1008 508 l 1039 514 l 1002 514 m 1088 521 l 1082 508 l 1082 465 q 1120 378 1105 378 l 1132 397 q 1120 410 1120 397 l 1132 410 q 1120 421 1132 421 l 1114 421 l 1120 410 l 1114 410 q 1101 421 1101 410 l 1120 446 q 1114 465 1114 458 l 1126 471 l 1138 465 l 1138 471 q 1088 521 1126 521 m 797 503 q 915 378 797 414 l 915 434 q 928 421 928 432 l 928 378 l 977 378 q 1045 446 1045 378 q 1051 503 1051 469 l 1045 503 q 952 446 979 446 l 952 452 l 940 446 l 921 459 q 909 446 921 446 q 890 465 909 456 l 871 452 q 847 477 847 469 l 835 471 l 828 484 q 835 490 835 484 q 816 503 816 490 q 822 508 822 503 l 810 508 l 797 503 m 642 490 l 636 477 l 636 471 l 642 471 q 655 484 655 471 l 642 490 m 605 484 l 605 428 q 636 440 621 440 l 636 459 l 630 471 l 618 465 l 611 465 l 611 484 l 605 484 m 958 484 l 958 477 q 970 465 960 465 l 970 471 q 958 484 970 484 m 655 465 l 649 452 l 667 452 q 655 465 667 465 m 624 428 q 605 410 624 410 q 618 397 607 397 l 636 421 l 624 428 m 704 428 l 704 410 q 723 404 711 410 l 723 428 l 704 428 m 680 404 l 680 397 q 704 385 689 397 l 704 391 q 698 410 698 403 q 680 404 686 404 m 1126 372 l 1126 366 q 1138 378 1138 366 l 1138 385 q 1126 372 1126 382 m 686 378 l 686 372 q 742 335 715 372 l 735 335 q 729 341 729 335 l 717 335 l 686 341 l 667 341 l 667 335 l 772 317 l 772 323 q 723 378 762 355 l 723 372 q 754 341 731 372 l 754 335 q 692 378 707 378 l 686 378 m 661 372 l 661 366 q 704 347 673 366 l 711 347 l 711 353 q 667 372 698 353 l 661 372 m 636 323 l 642 323 q 655 335 655 323 l 649 335 q 636 323 636 333 m 29 131 q 54 56 45 131 l 60 56 q 91 131 73 131 q 122 62 105 131 l 129 62 q 153 131 133 131 l 172 131 q 197 62 182 131 l 203 62 q 228 131 212 131 l 234 131 q 258 62 250 131 l 264 62 q 290 131 277 131 l 308 131 q 332 62 327 131 q 363 131 340 62 l 370 131 q 401 62 387 131 l 408 62 q 432 131 414 131 l 438 131 l 438 118 q 401 19 422 19 q 376 87 385 19 l 363 87 q 339 19 355 19 q 302 112 321 19 l 296 112 q 264 19 281 19 q 234 94 244 19 l 228 94 q 197 19 215 19 q 165 106 178 19 q 129 19 157 106 l 122 19 q 91 87 109 19 l 85 87 q 60 19 76 19 l 54 19 q 17 125 42 19 l 29 131 m 488 131 l 556 131 q 568 118 568 129 q 531 106 568 106 l 531 32 q 518 19 531 19 q 507 32 507 19 l 507 106 q 475 118 475 106 q 488 131 477 131 m 599 131 q 655 25 615 131 l 642 19 q 624 50 625 19 l 581 50 q 562 19 576 19 l 549 25 q 599 131 588 131 m 655 131 l 810 131 q 822 118 822 129 q 791 106 822 106 l 791 32 q 779 19 791 19 q 766 32 766 19 l 766 106 q 735 112 735 106 q 698 106 726 106 l 698 32 q 686 19 698 19 q 673 32 673 19 l 673 106 q 642 118 642 106 q 655 131 644 131 m 878 131 q 934 75 934 122 q 884 13 934 28 q 822 75 822 21 q 878 131 830 131 m 996 131 q 1045 81 1045 131 l 1045 50 q 989 13 1021 13 q 940 68 949 13 l 940 94 q 996 131 962 131 m 1063 131 q 1082 62 1082 106 l 1095 62 q 1120 131 1103 131 l 1126 131 q 1150 56 1139 131 l 1156 56 q 1181 131 1164 131 q 1194 118 1194 129 q 1156 19 1166 19 l 1150 19 q 1126 94 1136 19 l 1120 94 q 1088 19 1103 19 q 1051 125 1069 19 l 1063 131 m 1249 131 q 1305 62 1305 131 q 1249 13 1285 13 q 1194 87 1194 13 q 1249 131 1212 131 m 1367 131 q 1417 81 1417 131 l 1417 50 q 1361 13 1393 13 q 1311 68 1321 13 l 1311 81 q 1367 131 1311 131 m 1522 131 q 1565 94 1565 131 l 1553 87 q 1516 112 1532 112 q 1491 75 1491 106 l 1491 56 q 1510 38 1491 47 l 1528 38 q 1559 62 1556 62 l 1565 50 l 1565 44 q 1516 13 1548 13 q 1466 87 1466 13 q 1522 131 1485 131 m 1627 131 q 1683 75 1683 122 l 1683 68 q 1627 13 1675 13 q 1571 75 1571 27 q 1627 131 1584 131 m 1708 131 l 1714 131 q 1745 50 1728 131 l 1751 50 q 1788 131 1771 131 q 1801 118 1801 129 l 1801 32 q 1788 19 1801 19 q 1782 75 1782 23 l 1775 75 q 1751 19 1763 19 l 1745 19 q 1720 81 1731 19 l 1714 81 q 1702 19 1714 19 l 1695 32 l 1695 118 q 1708 131 1697 131 m 847 87 l 847 56 q 865 38 847 47 l 890 38 q 909 56 899 38 l 909 87 q 884 112 909 97 l 871 112 q 847 87 862 112 m 958 75 q 983 38 971 38 l 1008 38 q 1027 75 1027 44 q 989 112 1021 112 q 958 75 971 111 m 1219 75 l 1219 56 q 1237 38 1219 47 l 1261 38 q 1280 56 1271 38 l 1280 87 q 1255 112 1280 97 q 1219 75 1219 112 m 1330 68 q 1355 38 1342 40 l 1379 38 q 1398 75 1398 44 q 1361 112 1393 112 q 1330 68 1330 102 m 1596 87 l 1596 75 q 1615 38 1600 38 l 1640 38 q 1658 56 1649 38 l 1658 75 q 1627 112 1658 112 q 1596 87 1599 100 m 593 81 l 593 68 l 611 68 l 611 75 q 605 94 605 87 q 593 81 593 92 m 456 38 l 463 25 l 450 19 l 444 32 l 456 38 m 1441 38 q 1454 25 1454 36 l 1441 19 q 1429 32 1429 19 l 1441 38 z "},"\"":{"ha":1843,"x_min":17,"x_max":1801,"o":"m 921 1158 q 1033 1065 977 1158 q 1082 991 1082 1031 l 1082 972 q 1051 917 1082 949 l 1051 873 q 1082 855 1082 869 q 1045 793 1045 849 l 1045 738 l 1033 738 l 1033 781 q 989 762 1010 762 l 977 762 q 958 781 968 762 q 964 787 958 787 q 958 831 958 812 l 946 824 l 946 837 q 1002 892 964 881 l 1039 880 l 1039 899 l 996 905 q 952 886 975 905 l 946 899 q 977 924 977 915 l 964 924 l 934 917 l 903 924 q 884 917 896 924 q 841 924 859 924 q 779 917 833 924 q 772 924 779 924 l 766 911 l 779 905 l 772 892 l 772 880 q 828 892 819 892 q 884 831 884 873 l 871 837 l 871 806 l 878 774 l 859 762 l 841 762 q 785 831 785 762 l 779 831 l 779 806 q 853 663 779 663 q 921 638 853 652 q 1027 725 1027 674 l 1039 725 q 1021 675 1039 713 q 1014 558 1014 577 q 1144 484 1144 532 q 1150 452 1150 473 l 1150 347 q 1156 218 1150 298 q 1132 186 1144 189 l 1126 186 l 1126 193 l 1138 211 l 1138 353 q 1114 359 1124 353 q 946 236 1114 236 l 946 248 q 1039 260 1025 260 l 1039 267 q 667 317 736 317 q 649 279 667 284 l 642 279 l 642 286 l 655 311 q 618 323 631 311 l 618 317 q 636 242 618 307 q 587 527 601 242 q 655 645 601 645 q 649 750 649 718 l 649 806 q 779 1134 649 1064 q 921 1158 818 1152 m 1008 924 l 1008 917 l 1039 911 l 1039 924 l 1008 924 m 859 917 q 890 892 888 905 l 890 886 l 884 886 l 853 905 q 785 899 798 899 l 785 911 q 859 917 795 911 m 748 855 l 748 831 q 760 843 760 831 q 748 855 760 855 m 785 855 l 791 824 l 797 824 l 797 855 l 785 855 m 1039 855 q 1033 818 1033 823 l 1033 812 l 1039 812 q 1045 849 1039 817 l 1045 855 l 1039 855 m 835 849 q 847 837 836 837 l 853 849 l 835 849 m 816 812 l 816 800 q 853 774 822 774 l 859 806 l 847 812 q 822 806 836 806 q 816 812 822 812 m 946 818 q 958 793 946 808 l 958 787 q 934 812 949 787 l 946 818 m 996 812 l 989 800 l 977 806 l 970 806 q 989 774 979 774 l 996 774 q 1014 793 1004 774 l 1014 806 q 996 812 1008 806 m 909 725 l 934 725 q 921 713 934 713 l 909 713 l 909 725 m 884 700 l 890 700 l 903 694 q 928 700 913 700 q 946 682 936 700 q 928 663 946 673 l 909 663 q 884 694 900 664 l 884 700 m 828 657 q 822 601 822 614 q 871 564 868 578 l 871 558 q 797 595 822 595 l 797 583 q 871 552 797 569 q 909 521 871 545 q 964 533 956 533 l 958 521 q 983 539 983 524 l 996 539 q 1063 521 1056 521 l 1063 533 q 996 545 1057 533 l 940 545 l 940 558 l 989 558 l 989 564 q 946 632 946 573 l 934 626 l 921 626 q 828 657 886 626 m 667 638 q 717 595 681 607 l 717 601 q 673 638 707 638 l 667 638 m 630 614 l 636 614 q 649 626 649 614 l 649 632 q 630 614 640 632 m 928 595 l 934 595 q 909 558 921 558 q 897 570 897 558 l 897 576 l 909 570 q 928 595 918 595 m 692 558 l 698 527 l 692 496 l 711 484 l 723 484 l 717 514 l 717 539 l 729 539 l 723 583 l 692 558 m 605 576 l 605 545 l 611 545 l 611 576 l 605 576 m 797 552 l 797 545 l 816 545 l 816 539 l 810 527 l 828 527 l 822 539 q 828 545 828 539 q 810 552 822 545 l 797 552 m 847 552 l 847 545 q 871 533 857 545 l 871 539 l 853 552 l 847 552 m 599 527 l 599 521 q 630 496 630 521 l 642 496 q 661 527 644 527 q 655 545 655 539 l 649 545 q 599 527 633 527 m 680 539 l 673 514 l 673 503 l 680 503 l 686 533 l 686 539 l 680 539 m 1002 514 l 996 503 q 1002 496 1002 503 q 996 490 996 496 l 1008 490 q 1039 508 1008 508 l 1039 514 l 1002 514 m 1088 521 l 1082 508 l 1082 465 q 1120 378 1105 378 l 1132 397 q 1120 410 1120 397 l 1132 410 q 1120 421 1132 421 l 1114 421 l 1120 410 l 1114 410 q 1101 421 1101 410 l 1120 446 q 1114 465 1114 458 l 1126 471 l 1138 465 l 1138 471 q 1088 521 1126 521 m 797 503 q 915 378 797 414 l 915 434 q 928 421 928 432 l 928 378 l 977 378 q 1045 446 1045 378 q 1051 503 1051 469 l 1045 503 q 952 446 979 446 l 952 452 l 940 446 l 921 459 q 909 446 921 446 q 890 465 909 456 l 871 452 q 847 477 847 469 l 835 471 l 828 484 q 835 490 835 484 q 816 503 816 490 q 822 508 822 503 l 810 508 l 797 503 m 642 490 l 636 477 l 636 471 l 642 471 q 655 484 655 471 l 642 490 m 605 484 l 605 428 q 636 440 621 440 l 636 459 l 630 471 l 618 465 l 611 465 l 611 484 l 605 484 m 958 484 l 958 477 q 970 465 960 465 l 970 471 q 958 484 970 484 m 655 465 l 649 452 l 667 452 q 655 465 667 465 m 624 428 q 605 410 624 410 q 618 397 607 397 l 636 421 l 624 428 m 704 428 l 704 410 q 723 404 711 410 l 723 428 l 704 428 m 680 404 l 680 397 q 704 385 689 397 l 704 391 q 698 410 698 403 q 680 404 686 404 m 1126 372 l 1126 366 q 1138 378 1138 366 l 1138 385 q 1126 372 1126 382 m 686 378 l 686 372 q 742 335 715 372 l 735 335 q 729 341 729 335 l 717 335 l 686 341 l 667 341 l 667 335 l 772 317 l 772 323 q 723 378 762 355 l 723 372 q 754 341 731 372 l 754 335 q 692 378 707 378 l 686 378 m 661 372 l 661 366 q 704 347 673 366 l 711 347 l 711 353 q 667 372 698 353 l 661 372 m 636 323 l 642 323 q 655 335 655 323 l 649 335 q 636 323 636 333 m 29 131 q 54 56 45 131 l 60 56 q 91 131 73 131 q 122 62 105 131 l 129 62 q 153 131 133 131 l 172 131 q 197 62 182 131 l 203 62 q 228 131 212 131 l 234 131 q 258 62 250 131 l 264 62 q 290 131 277 131 l 308 131 q 332 62 327 131 q 363 131 340 62 l 370 131 q 401 62 387 131 l 408 62 q 432 131 414 131 l 438 131 l 438 118 q 401 19 422 19 q 376 87 385 19 l 363 87 q 339 19 355 19 q 302 112 321 19 l 296 112 q 264 19 281 19 q 234 94 244 19 l 228 94 q 197 19 215 19 q 165 106 178 19 q 129 19 157 106 l 122 19 q 91 87 109 19 l 85 87 q 60 19 76 19 l 54 19 q 17 125 42 19 l 29 131 m 488 131 l 556 131 q 568 118 568 129 q 531 106 568 106 l 531 32 q 518 19 531 19 q 507 32 507 19 l 507 106 q 475 118 475 106 q 488 131 477 131 m 599 131 q 655 25 615 131 l 642 19 q 624 50 625 19 l 581 50 q 562 19 576 19 l 549 25 q 599 131 588 131 m 655 131 l 810 131 q 822 118 822 129 q 791 106 822 106 l 791 32 q 779 19 791 19 q 766 32 766 19 l 766 106 q 735 112 735 106 q 698 106 726 106 l 698 32 q 686 19 698 19 q 673 32 673 19 l 673 106 q 642 118 642 106 q 655 131 644 131 m 878 131 q 934 75 934 122 q 884 13 934 28 q 822 75 822 21 q 878 131 830 131 m 996 131 q 1045 81 1045 131 l 1045 50 q 989 13 1021 13 q 940 68 949 13 l 940 94 q 996 131 962 131 m 1063 131 q 1082 62 1082 106 l 1095 62 q 1120 131 1103 131 l 1126 131 q 1150 56 1139 131 l 1156 56 q 1181 131 1164 131 q 1194 118 1194 129 q 1156 19 1166 19 l 1150 19 q 1126 94 1136 19 l 1120 94 q 1088 19 1103 19 q 1051 125 1069 19 l 1063 131 m 1249 131 q 1305 62 1305 131 q 1249 13 1285 13 q 1194 87 1194 13 q 1249 131 1212 131 m 1367 131 q 1417 81 1417 131 l 1417 50 q 1361 13 1393 13 q 1311 68 1321 13 l 1311 81 q 1367 131 1311 131 m 1522 131 q 1565 94 1565 131 l 1553 87 q 1516 112 1532 112 q 1491 75 1491 106 l 1491 56 q 1510 38 1491 47 l 1528 38 q 1559 62 1556 62 l 1565 50 l 1565 44 q 1516 13 1548 13 q 1466 87 1466 13 q 1522 131 1485 131 m 1627 131 q 1683 75 1683 122 l 1683 68 q 1627 13 1675 13 q 1571 75 1571 27 q 1627 131 1584 131 m 1708 131 l 1714 131 q 1745 50 1728 131 l 1751 50 q 1788 131 1771 131 q 1801 118 1801 129 l 1801 32 q 1788 19 1801 19 q 1782 75 1782 23 l 1775 75 q 1751 19 1763 19 l 1745 19 q 1720 81 1731 19 l 1714 81 q 1702 19 1714 19 l 1695 32 l 1695 118 q 1708 131 1697 131 m 847 87 l 847 56 q 865 38 847 47 l 890 38 q 909 56 899 38 l 909 87 q 884 112 909 97 l 871 112 q 847 87 862 112 m 958 75 q 983 38 971 38 l 1008 38 q 1027 75 1027 44 q 989 112 1021 112 q 958 75 971 111 m 1219 75 l 1219 56 q 1237 38 1219 47 l 1261 38 q 1280 56 1271 38 l 1280 87 q 1255 112 1280 97 q 1219 75 1219 112 m 1330 68 q 1355 38 1342 40 l 1379 38 q 1398 75 1398 44 q 1361 112 1393 112 q 1330 68 1330 102 m 1596 87 l 1596 75 q 1615 38 1600 38 l 1640 38 q 1658 56 1649 38 l 1658 75 q 1627 112 1658 112 q 1596 87 1599 100 m 593 81 l 593 68 l 611 68 l 611 75 q 605 94 605 87 q 593 81 593 92 m 456 38 l 463 25 l 450 19 l 444 32 l 456 38 m 1441 38 q 1454 25 1454 36 l 1441 19 q 1429 32 1429 19 l 1441 38 z "},"#":{"ha":1843,"x_min":17,"x_max":1801,"o":"m 921 1158 q 1033 1065 977 1158 q 1082 991 1082 1031 l 1082 972 q 1051 917 1082 949 l 1051 873 q 1082 855 1082 869 q 1045 793 1045 849 l 1045 738 l 1033 738 l 1033 781 q 989 762 1010 762 l 977 762 q 958 781 968 762 q 964 787 958 787 q 958 831 958 812 l 946 824 l 946 837 q 1002 892 964 881 l 1039 880 l 1039 899 l 996 905 q 952 886 975 905 l 946 899 q 977 924 977 915 l 964 924 l 934 917 l 903 924 q 884 917 896 924 q 841 924 859 924 q 779 917 833 924 q 772 924 779 924 l 766 911 l 779 905 l 772 892 l 772 880 q 828 892 819 892 q 884 831 884 873 l 871 837 l 871 806 l 878 774 l 859 762 l 841 762 q 785 831 785 762 l 779 831 l 779 806 q 853 663 779 663 q 921 638 853 652 q 1027 725 1027 674 l 1039 725 q 1021 675 1039 713 q 1014 558 1014 577 q 1144 484 1144 532 q 1150 452 1150 473 l 1150 347 q 1156 218 1150 298 q 1132 186 1144 189 l 1126 186 l 1126 193 l 1138 211 l 1138 353 q 1114 359 1124 353 q 946 236 1114 236 l 946 248 q 1039 260 1025 260 l 1039 267 q 667 317 736 317 q 649 279 667 284 l 642 279 l 642 286 l 655 311 q 618 323 631 311 l 618 317 q 636 242 618 307 q 587 527 601 242 q 655 645 601 645 q 649 750 649 718 l 649 806 q 779 1134 649 1064 q 921 1158 818 1152 m 1008 924 l 1008 917 l 1039 911 l 1039 924 l 1008 924 m 859 917 q 890 892 888 905 l 890 886 l 884 886 l 853 905 q 785 899 798 899 l 785 911 q 859 917 795 911 m 748 855 l 748 831 q 760 843 760 831 q 748 855 760 855 m 785 855 l 791 824 l 797 824 l 797 855 l 785 855 m 1039 855 q 1033 818 1033 823 l 1033 812 l 1039 812 q 1045 849 1039 817 l 1045 855 l 1039 855 m 835 849 q 847 837 836 837 l 853 849 l 835 849 m 816 812 l 816 800 q 853 774 822 774 l 859 806 l 847 812 q 822 806 836 806 q 816 812 822 812 m 946 818 q 958 793 946 808 l 958 787 q 934 812 949 787 l 946 818 m 996 812 l 989 800 l 977 806 l 970 806 q 989 774 979 774 l 996 774 q 1014 793 1004 774 l 1014 806 q 996 812 1008 806 m 909 725 l 934 725 q 921 713 934 713 l 909 713 l 909 725 m 884 700 l 890 700 l 903 694 q 928 700 913 700 q 946 682 936 700 q 928 663 946 673 l 909 663 q 884 694 900 664 l 884 700 m 828 657 q 822 601 822 614 q 871 564 868 578 l 871 558 q 797 595 822 595 l 797 583 q 871 552 797 569 q 909 521 871 545 q 964 533 956 533 l 958 521 q 983 539 983 524 l 996 539 q 1063 521 1056 521 l 1063 533 q 996 545 1057 533 l 940 545 l 940 558 l 989 558 l 989 564 q 946 632 946 573 l 934 626 l 921 626 q 828 657 886 626 m 667 638 q 717 595 681 607 l 717 601 q 673 638 707 638 l 667 638 m 630 614 l 636 614 q 649 626 649 614 l 649 632 q 630 614 640 632 m 928 595 l 934 595 q 909 558 921 558 q 897 570 897 558 l 897 576 l 909 570 q 928 595 918 595 m 692 558 l 698 527 l 692 496 l 711 484 l 723 484 l 717 514 l 717 539 l 729 539 l 723 583 l 692 558 m 605 576 l 605 545 l 611 545 l 611 576 l 605 576 m 797 552 l 797 545 l 816 545 l 816 539 l 810 527 l 828 527 l 822 539 q 828 545 828 539 q 810 552 822 545 l 797 552 m 847 552 l 847 545 q 871 533 857 545 l 871 539 l 853 552 l 847 552 m 599 527 l 599 521 q 630 496 630 521 l 642 496 q 661 527 644 527 q 655 545 655 539 l 649 545 q 599 527 633 527 m 680 539 l 673 514 l 673 503 l 680 503 l 686 533 l 686 539 l 680 539 m 1002 514 l 996 503 q 1002 496 1002 503 q 996 490 996 496 l 1008 490 q 1039 508 1008 508 l 1039 514 l 1002 514 m 1088 521 l 1082 508 l 1082 465 q 1120 378 1105 378 l 1132 397 q 1120 410 1120 397 l 1132 410 q 1120 421 1132 421 l 1114 421 l 1120 410 l 1114 410 q 1101 421 1101 410 l 1120 446 q 1114 465 1114 458 l 1126 471 l 1138 465 l 1138 471 q 1088 521 1126 521 m 797 503 q 915 378 797 414 l 915 434 q 928 421 928 432 l 928 378 l 977 378 q 1045 446 1045 378 q 1051 503 1051 469 l 1045 503 q 952 446 979 446 l 952 452 l 940 446 l 921 459 q 909 446 921 446 q 890 465 909 456 l 871 452 q 847 477 847 469 l 835 471 l 828 484 q 835 490 835 484 q 816 503 816 490 q 822 508 822 503 l 810 508 l 797 503 m 642 490 l 636 477 l 636 471 l 642 471 q 655 484 655 471 l 642 490 m 605 484 l 605 428 q 636 440 621 440 l 636 459 l 630 471 l 618 465 l 611 465 l 611 484 l 605 484 m 958 484 l 958 477 q 970 465 960 465 l 970 471 q 958 484 970 484 m 655 465 l 649 452 l 667 452 q 655 465 667 465 m 624 428 q 605 410 624 410 q 618 397 607 397 l 636 421 l 624 428 m 704 428 l 704 410 q 723 404 711 410 l 723 428 l 704 428 m 680 404 l 680 397 q 704 385 689 397 l 704 391 q 698 410 698 403 q 680 404 686 404 m 1126 372 l 1126 366 q 1138 378 1138 366 l 1138 385 q 1126 372 1126 382 m 686 378 l 686 372 q 742 335 715 372 l 735 335 q 729 341 729 335 l 717 335 l 686 341 l 667 341 l 667 335 l 772 317 l 772 323 q 723 378 762 355 l 723 372 q 754 341 731 372 l 754 335 q 692 378 707 378 l 686 378 m 661 372 l 661 366 q 704 347 673 366 l 711 347 l 711 353 q 667 372 698 353 l 661 372 m 636 323 l 642 323 q 655 335 655 323 l 649 335 q 636 323 636 333 m 29 131 q 54 56 45 131 l 60 56 q 91 131 73 131 q 122 62 105 131 l 129 62 q 153 131 133 131 l 172 131 q 197 62 182 131 l 203 62 q 228 131 212 131 l 234 131 q 258 62 250 131 l 264 62 q 290 131 277 131 l 308 131 q 332 62 327 131 q 363 131 340 62 l 370 131 q 401 62 387 131 l 408 62 q 432 131 414 131 l 438 131 l 438 118 q 401 19 422 19 q 376 87 385 19 l 363 87 q 339 19 355 19 q 302 112 321 19 l 296 112 q 264 19 281 19 q 234 94 244 19 l 228 94 q 197 19 215 19 q 165 106 178 19 q 129 19 157 106 l 122 19 q 91 87 109 19 l 85 87 q 60 19 76 19 l 54 19 q 17 125 42 19 l 29 131 m 488 131 l 556 131 q 568 118 568 129 q 531 106 568 106 l 531 32 q 518 19 531 19 q 507 32 507 19 l 507 106 q 475 118 475 106 q 488 131 477 131 m 599 131 q 655 25 615 131 l 642 19 q 624 50 625 19 l 581 50 q 562 19 576 19 l 549 25 q 599 131 588 131 m 655 131 l 810 131 q 822 118 822 129 q 791 106 822 106 l 791 32 q 779 19 791 19 q 766 32 766 19 l 766 106 q 735 112 735 106 q 698 106 726 106 l 698 32 q 686 19 698 19 q 673 32 673 19 l 673 106 q 642 118 642 106 q 655 131 644 131 m 878 131 q 934 75 934 122 q 884 13 934 28 q 822 75 822 21 q 878 131 830 131 m 996 131 q 1045 81 1045 131 l 1045 50 q 989 13 1021 13 q 940 68 949 13 l 940 94 q 996 131 962 131 m 1063 131 q 1082 62 1082 106 l 1095 62 q 1120 131 1103 131 l 1126 131 q 1150 56 1139 131 l 1156 56 q 1181 131 1164 131 q 1194 118 1194 129 q 1156 19 1166 19 l 1150 19 q 1126 94 1136 19 l 1120 94 q 1088 19 1103 19 q 1051 125 1069 19 l 1063 131 m 1249 131 q 1305 62 1305 131 q 1249 13 1285 13 q 1194 87 1194 13 q 1249 131 1212 131 m 1367 131 q 1417 81 1417 131 l 1417 50 q 1361 13 1393 13 q 1311 68 1321 13 l 1311 81 q 1367 131 1311 131 m 1522 131 q 1565 94 1565 131 l 1553 87 q 1516 112 1532 112 q 1491 75 1491 106 l 1491 56 q 1510 38 1491 47 l 1528 38 q 1559 62 1556 62 l 1565 50 l 1565 44 q 1516 13 1548 13 q 1466 87 1466 13 q 1522 131 1485 131 m 1627 131 q 1683 75 1683 122 l 1683 68 q 1627 13 1675 13 q 1571 75 1571 27 q 1627 131 1584 131 m 1708 131 l 1714 131 q 1745 50 1728 131 l 1751 50 q 1788 131 1771 131 q 1801 118 1801 129 l 1801 32 q 1788 19 1801 19 q 1782 75 1782 23 l 1775 75 q 1751 19 1763 19 l 1745 19 q 1720 81 1731 19 l 1714 81 q 1702 19 1714 19 l 1695 32 l 1695 118 q 1708 131 1697 131 m 847 87 l 847 56 q 865 38 847 47 l 890 38 q 909 56 899 38 l 909 87 q 884 112 909 97 l 871 112 q 847 87 862 112 m 958 75 q 983 38 971 38 l 1008 38 q 1027 75 1027 44 q 989 112 1021 112 q 958 75 971 111 m 1219 75 l 1219 56 q 1237 38 1219 47 l 1261 38 q 1280 56 1271 38 l 1280 87 q 1255 112 1280 97 q 1219 75 1219 112 m 1330 68 q 1355 38 1342 40 l 1379 38 q 1398 75 1398 44 q 1361 112 1393 112 q 1330 68 1330 102 m 1596 87 l 1596 75 q 1615 38 1600 38 l 1640 38 q 1658 56 1649 38 l 1658 75 q 1627 112 1658 112 q 1596 87 1599 100 m 593 81 l 593 68 l 611 68 l 611 75 q 605 94 605 87 q 593 81 593 92 m 456 38 l 463 25 l 450 19 l 444 32 l 456 38 m 1441 38 q 1454 25 1454 36 l 1441 19 q 1429 32 1429 19 l 1441 38 z "},"$":{"ha":1843,"x_min":17,"x_max":1801,"o":"m 921 1158 q 1033 1065 977 1158 q 1082 991 1082 1031 l 1082 972 q 1051 917 1082 949 l 1051 873 q 1082 855 1082 869 q 1045 793 1045 849 l 1045 738 l 1033 738 l 1033 781 q 989 762 1010 762 l 977 762 q 958 781 968 762 q 964 787 958 787 q 958 831 958 812 l 946 824 l 946 837 q 1002 892 964 881 l 1039 880 l 1039 899 l 996 905 q 952 886 975 905 l 946 899 q 977 924 977 915 l 964 924 l 934 917 l 903 924 q 884 917 896 924 q 841 924 859 924 q 779 917 833 924 q 772 924 779 924 l 766 911 l 779 905 l 772 892 l 772 880 q 828 892 819 892 q 884 831 884 873 l 871 837 l 871 806 l 878 774 l 859 762 l 841 762 q 785 831 785 762 l 779 831 l 779 806 q 853 663 779 663 q 921 638 853 652 q 1027 725 1027 674 l 1039 725 q 1021 675 1039 713 q 1014 558 1014 577 q 1144 484 1144 532 q 1150 452 1150 473 l 1150 347 q 1156 218 1150 298 q 1132 186 1144 189 l 1126 186 l 1126 193 l 1138 211 l 1138 353 q 1114 359 1124 353 q 946 236 1114 236 l 946 248 q 1039 260 1025 260 l 1039 267 q 667 317 736 317 q 649 279 667 284 l 642 279 l 642 286 l 655 311 q 618 323 631 311 l 618 317 q 636 242 618 307 q 587 527 601 242 q 655 645 601 645 q 649 750 649 718 l 649 806 q 779 1134 649 1064 q 921 1158 818 1152 m 1008 924 l 1008 917 l 1039 911 l 1039 924 l 1008 924 m 859 917 q 890 892 888 905 l 890 886 l 884 886 l 853 905 q 785 899 798 899 l 785 911 q 859 917 795 911 m 748 855 l 748 831 q 760 843 760 831 q 748 855 760 855 m 785 855 l 791 824 l 797 824 l 797 855 l 785 855 m 1039 855 q 1033 818 1033 823 l 1033 812 l 1039 812 q 1045 849 1039 817 l 1045 855 l 1039 855 m 835 849 q 847 837 836 837 l 853 849 l 835 849 m 816 812 l 816 800 q 853 774 822 774 l 859 806 l 847 812 q 822 806 836 806 q 816 812 822 812 m 946 818 q 958 793 946 808 l 958 787 q 934 812 949 787 l 946 818 m 996 812 l 989 800 l 977 806 l 970 806 q 989 774 979 774 l 996 774 q 1014 793 1004 774 l 1014 806 q 996 812 1008 806 m 909 725 l 934 725 q 921 713 934 713 l 909 713 l 909 725 m 884 700 l 890 700 l 903 694 q 928 700 913 700 q 946 682 936 700 q 928 663 946 673 l 909 663 q 884 694 900 664 l 884 700 m 828 657 q 822 601 822 614 q 871 564 868 578 l 871 558 q 797 595 822 595 l 797 583 q 871 552 797 569 q 909 521 871 545 q 964 533 956 533 l 958 521 q 983 539 983 524 l 996 539 q 1063 521 1056 521 l 1063 533 q 996 545 1057 533 l 940 545 l 940 558 l 989 558 l 989 564 q 946 632 946 573 l 934 626 l 921 626 q 828 657 886 626 m 667 638 q 717 595 681 607 l 717 601 q 673 638 707 638 l 667 638 m 630 614 l 636 614 q 649 626 649 614 l 649 632 q 630 614 640 632 m 928 595 l 934 595 q 909 558 921 558 q 897 570 897 558 l 897 576 l 909 570 q 928 595 918 595 m 692 558 l 698 527 l 692 496 l 711 484 l 723 484 l 717 514 l 717 539 l 729 539 l 723 583 l 692 558 m 605 576 l 605 545 l 611 545 l 611 576 l 605 576 m 797 552 l 797 545 l 816 545 l 816 539 l 810 527 l 828 527 l 822 539 q 828 545 828 539 q 810 552 822 545 l 797 552 m 847 552 l 847 545 q 871 533 857 545 l 871 539 l 853 552 l 847 552 m 599 527 l 599 521 q 630 496 630 521 l 642 496 q 661 527 644 527 q 655 545 655 539 l 649 545 q 599 527 633 527 m 680 539 l 673 514 l 673 503 l 680 503 l 686 533 l 686 539 l 680 539 m 1002 514 l 996 503 q 1002 496 1002 503 q 996 490 996 496 l 1008 490 q 1039 508 1008 508 l 1039 514 l 1002 514 m 1088 521 l 1082 508 l 1082 465 q 1120 378 1105 378 l 1132 397 q 1120 410 1120 397 l 1132 410 q 1120 421 1132 421 l 1114 421 l 1120 410 l 1114 410 q 1101 421 1101 410 l 1120 446 q 1114 465 1114 458 l 1126 471 l 1138 465 l 1138 471 q 1088 521 1126 521 m 797 503 q 915 378 797 414 l 915 434 q 928 421 928 432 l 928 378 l 977 378 q 1045 446 1045 378 q 1051 503 1051 469 l 1045 503 q 952 446 979 446 l 952 452 l 940 446 l 921 459 q 909 446 921 446 q 890 465 909 456 l 871 452 q 847 477 847 469 l 835 471 l 828 484 q 835 490 835 484 q 816 503 816 490 q 822 508 822 503 l 810 508 l 797 503 m 642 490 l 636 477 l 636 471 l 642 471 q 655 484 655 471 l 642 490 m 605 484 l 605 428 q 636 440 621 440 l 636 459 l 630 471 l 618 465 l 611 465 l 611 484 l 605 484 m 958 484 l 958 477 q 970 465 960 465 l 970 471 q 958 484 970 484 m 655 465 l 649 452 l 667 452 q 655 465 667 465 m 624 428 q 605 410 624 410 q 618 397 607 397 l 636 421 l 624 428 m 704 428 l 704 410 q 723 404 711 410 l 723 428 l 704 428 m 680 404 l 680 397 q 704 385 689 397 l 704 391 q 698 410 698 403 q 680 404 686 404 m 1126 372 l 1126 366 q 1138 378 1138 366 l 1138 385 q 1126 372 1126 382 m 686 378 l 686 372 q 742 335 715 372 l 735 335 q 729 341 729 335 l 717 335 l 686 341 l 667 341 l 667 335 l 772 317 l 772 323 q 723 378 762 355 l 723 372 q 754 341 731 372 l 754 335 q 692 378 707 378 l 686 378 m 661 372 l 661 366 q 704 347 673 366 l 711 347 l 711 353 q 667 372 698 353 l 661 372 m 636 323 l 642 323 q 655 335 655 323 l 649 335 q 636 323 636 333 m 29 131 q 54 56 45 131 l 60 56 q 91 131 73 131 q 122 62 105 131 l 129 62 q 153 131 133 131 l 172 131 q 197 62 182 131 l 203 62 q 228 131 212 131 l 234 131 q 258 62 250 131 l 264 62 q 290 131 277 131 l 308 131 q 332 62 327 131 q 363 131 340 62 l 370 131 q 401 62 387 131 l 408 62 q 432 131 414 131 l 438 131 l 438 118 q 401 19 422 19 q 376 87 385 19 l 363 87 q 339 19 355 19 q 302 112 321 19 l 296 112 q 264 19 281 19 q 234 94 244 19 l 228 94 q 197 19 215 19 q 165 106 178 19 q 129 19 157 106 l 122 19 q 91 87 109 19 l 85 87 q 60 19 76 19 l 54 19 q 17 125 42 19 l 29 131 m 488 131 l 556 131 q 568 118 568 129 q 531 106 568 106 l 531 32 q 518 19 531 19 q 507 32 507 19 l 507 106 q 475 118 475 106 q 488 131 477 131 m 599 131 q 655 25 615 131 l 642 19 q 624 50 625 19 l 581 50 q 562 19 576 19 l 549 25 q 599 131 588 131 m 655 131 l 810 131 q 822 118 822 129 q 791 106 822 106 l 791 32 q 779 19 791 19 q 766 32 766 19 l 766 106 q 735 112 735 106 q 698 106 726 106 l 698 32 q 686 19 698 19 q 673 32 673 19 l 673 106 q 642 118 642 106 q 655 131 644 131 m 878 131 q 934 75 934 122 q 884 13 934 28 q 822 75 822 21 q 878 131 830 131 m 996 131 q 1045 81 1045 131 l 1045 50 q 989 13 1021 13 q 940 68 949 13 l 940 94 q 996 131 962 131 m 1063 131 q 1082 62 1082 106 l 1095 62 q 1120 131 1103 131 l 1126 131 q 1150 56 1139 131 l 1156 56 q 1181 131 1164 131 q 1194 118 1194 129 q 1156 19 1166 19 l 1150 19 q 1126 94 1136 19 l 1120 94 q 1088 19 1103 19 q 1051 125 1069 19 l 1063 131 m 1249 131 q 1305 62 1305 131 q 1249 13 1285 13 q 1194 87 1194 13 q 1249 131 1212 131 m 1367 131 q 1417 81 1417 131 l 1417 50 q 1361 13 1393 13 q 1311 68 1321 13 l 1311 81 q 1367 131 1311 131 m 1522 131 q 1565 94 1565 131 l 1553 87 q 1516 112 1532 112 q 1491 75 1491 106 l 1491 56 q 1510 38 1491 47 l 1528 38 q 1559 62 1556 62 l 1565 50 l 1565 44 q 1516 13 1548 13 q 1466 87 1466 13 q 1522 131 1485 131 m 1627 131 q 1683 75 1683 122 l 1683 68 q 1627 13 1675 13 q 1571 75 1571 27 q 1627 131 1584 131 m 1708 131 l 1714 131 q 1745 50 1728 131 l 1751 50 q 1788 131 1771 131 q 1801 118 1801 129 l 1801 32 q 1788 19 1801 19 q 1782 75 1782 23 l 1775 75 q 1751 19 1763 19 l 1745 19 q 1720 81 1731 19 l 1714 81 q 1702 19 1714 19 l 1695 32 l 1695 118 q 1708 131 1697 131 m 847 87 l 847 56 q 865 38 847 47 l 890 38 q 909 56 899 38 l 909 87 q 884 112 909 97 l 871 112 q 847 87 862 112 m 958 75 q 983 38 971 38 l 1008 38 q 1027 75 1027 44 q 989 112 1021 112 q 958 75 971 111 m 1219 75 l 1219 56 q 1237 38 1219 47 l 1261 38 q 1280 56 1271 38 l 1280 87 q 1255 112 1280 97 q 1219 75 1219 112 m 1330 68 q 1355 38 1342 40 l 1379 38 q 1398 75 1398 44 q 1361 112 1393 112 q 1330 68 1330 102 m 1596 87 l 1596 75 q 1615 38 1600 38 l 1640 38 q 1658 56 1649 38 l 1658 75 q 1627 112 1658 112 q 1596 87 1599 100 m 593 81 l 593 68 l 611 68 l 611 75 q 605 94 605 87 q 593 81 593 92 m 456 38 l 463 25 l 450 19 l 444 32 l 456 38 m 1441 38 q 1454 25 1454 36 l 1441 19 q 1429 32 1429 19 l 1441 38 z "},"%":{"ha":1843,"x_min":17,"x_max":1801,"o":"m 921 1158 q 1033 1065 977 1158 q 1082 991 1082 1031 l 1082 972 q 1051 917 1082 949 l 1051 873 q 1082 855 1082 869 q 1045 793 1045 849 l 1045 738 l 1033 738 l 1033 781 q 989 762 1010 762 l 977 762 q 958 781 968 762 q 964 787 958 787 q 958 831 958 812 l 946 824 l 946 837 q 1002 892 964 881 l 1039 880 l 1039 899 l 996 905 q 952 886 975 905 l 946 899 q 977 924 977 915 l 964 924 l 934 917 l 903 924 q 884 917 896 924 q 841 924 859 924 q 779 917 833 924 q 772 924 779 924 l 766 911 l 779 905 l 772 892 l 772 880 q 828 892 819 892 q 884 831 884 873 l 871 837 l 871 806 l 878 774 l 859 762 l 841 762 q 785 831 785 762 l 779 831 l 779 806 q 853 663 779 663 q 921 638 853 652 q 1027 725 1027 674 l 1039 725 q 1021 675 1039 713 q 1014 558 1014 577 q 1144 484 1144 532 q 1150 452 1150 473 l 1150 347 q 1156 218 1150 298 q 1132 186 1144 189 l 1126 186 l 1126 193 l 1138 211 l 1138 353 q 1114 359 1124 353 q 946 236 1114 236 l 946 248 q 1039 260 1025 260 l 1039 267 q 667 317 736 317 q 649 279 667 284 l 642 279 l 642 286 l 655 311 q 618 323 631 311 l 618 317 q 636 242 618 307 q 587 527 601 242 q 655 645 601 645 q 649 750 649 718 l 649 806 q 779 1134 649 1064 q 921 1158 818 1152 m 1008 924 l 1008 917 l 1039 911 l 1039 924 l 1008 924 m 859 917 q 890 892 888 905 l 890 886 l 884 886 l 853 905 q 785 899 798 899 l 785 911 q 859 917 795 911 m 748 855 l 748 831 q 760 843 760 831 q 748 855 760 855 m 785 855 l 791 824 l 797 824 l 797 855 l 785 855 m 1039 855 q 1033 818 1033 823 l 1033 812 l 1039 812 q 1045 849 1039 817 l 1045 855 l 1039 855 m 835 849 q 847 837 836 837 l 853 849 l 835 849 m 816 812 l 816 800 q 853 774 822 774 l 859 806 l 847 812 q 822 806 836 806 q 816 812 822 812 m 946 818 q 958 793 946 808 l 958 787 q 934 812 949 787 l 946 818 m 996 812 l 989 800 l 977 806 l 970 806 q 989 774 979 774 l 996 774 q 1014 793 1004 774 l 1014 806 q 996 812 1008 806 m 909 725 l 934 725 q 921 713 934 713 l 909 713 l 909 725 m 884 700 l 890 700 l 903 694 q 928 700 913 700 q 946 682 936 700 q 928 663 946 673 l 909 663 q 884 694 900 664 l 884 700 m 828 657 q 822 601 822 614 q 871 564 868 578 l 871 558 q 797 595 822 595 l 797 583 q 871 552 797 569 q 909 521 871 545 q 964 533 956 533 l 958 521 q 983 539 983 524 l 996 539 q 1063 521 1056 521 l 1063 533 q 996 545 1057 533 l 940 545 l 940 558 l 989 558 l 989 564 q 946 632 946 573 l 934 626 l 921 626 q 828 657 886 626 m 667 638 q 717 595 681 607 l 717 601 q 673 638 707 638 l 667 638 m 630 614 l 636 614 q 649 626 649 614 l 649 632 q 630 614 640 632 m 928 595 l 934 595 q 909 558 921 558 q 897 570 897 558 l 897 576 l 909 570 q 928 595 918 595 m 692 558 l 698 527 l 692 496 l 711 484 l 723 484 l 717 514 l 717 539 l 729 539 l 723 583 l 692 558 m 605 576 l 605 545 l 611 545 l 611 576 l 605 576 m 797 552 l 797 545 l 816 545 l 816 539 l 810 527 l 828 527 l 822 539 q 828 545 828 539 q 810 552 822 545 l 797 552 m 847 552 l 847 545 q 871 533 857 545 l 871 539 l 853 552 l 847 552 m 599 527 l 599 521 q 630 496 630 521 l 642 496 q 661 527 644 527 q 655 545 655 539 l 649 545 q 599 527 633 527 m 680 539 l 673 514 l 673 503 l 680 503 l 686 533 l 686 539 l 680 539 m 1002 514 l 996 503 q 1002 496 1002 503 q 996 490 996 496 l 1008 490 q 1039 508 1008 508 l 1039 514 l 1002 514 m 1088 521 l 1082 508 l 1082 465 q 1120 378 1105 378 l 1132 397 q 1120 410 1120 397 l 1132 410 q 1120 421 1132 421 l 1114 421 l 1120 410 l 1114 410 q 1101 421 1101 410 l 1120 446 q 1114 465 1114 458 l 1126 471 l 1138 465 l 1138 471 q 1088 521 1126 521 m 797 503 q 915 378 797 414 l 915 434 q 928 421 928 432 l 928 378 l 977 378 q 1045 446 1045 378 q 1051 503 1051 469 l 1045 503 q 952 446 979 446 l 952 452 l 940 446 l 921 459 q 909 446 921 446 q 890 465 909 456 l 871 452 q 847 477 847 469 l 835 471 l 828 484 q 835 490 835 484 q 816 503 816 490 q 822 508 822 503 l 810 508 l 797 503 m 642 490 l 636 477 l 636 471 l 642 471 q 655 484 655 471 l 642 490 m 605 484 l 605 428 q 636 440 621 440 l 636 459 l 630 471 l 618 465 l 611 465 l 611 484 l 605 484 m 958 484 l 958 477 q 970 465 960 465 l 970 471 q 958 484 970 484 m 655 465 l 649 452 l 667 452 q 655 465 667 465 m 624 428 q 605 410 624 410 q 618 397 607 397 l 636 421 l 624 428 m 704 428 l 704 410 q 723 404 711 410 l 723 428 l 704 428 m 680 404 l 680 397 q 704 385 689 397 l 704 391 q 698 410 698 403 q 680 404 686 404 m 1126 372 l 1126 366 q 1138 378 1138 366 l 1138 385 q 1126 372 1126 382 m 686 378 l 686 372 q 742 335 715 372 l 735 335 q 729 341 729 335 l 717 335 l 686 341 l 667 341 l 667 335 l 772 317 l 772 323 q 723 378 762 355 l 723 372 q 754 341 731 372 l 754 335 q 692 378 707 378 l 686 378 m 661 372 l 661 366 q 704 347 673 366 l 711 347 l 711 353 q 667 372 698 353 l 661 372 m 636 323 l 642 323 q 655 335 655 323 l 649 335 q 636 323 636 333 m 29 131 q 54 56 45 131 l 60 56 q 91 131 73 131 q 122 62 105 131 l 129 62 q 153 131 133 131 l 172 131 q 197 62 182 131 l 203 62 q 228 131 212 131 l 234 131 q 258 62 250 131 l 264 62 q 290 131 277 131 l 308 131 q 332 62 327 131 q 363 131 340 62 l 370 131 q 401 62 387 131 l 408 62 q 432 131 414 131 l 438 131 l 438 118 q 401 19 422 19 q 376 87 385 19 l 363 87 q 339 19 355 19 q 302 112 321 19 l 296 112 q 264 19 281 19 q 234 94 244 19 l 228 94 q 197 19 215 19 q 165 106 178 19 q 129 19 157 106 l 122 19 q 91 87 109 19 l 85 87 q 60 19 76 19 l 54 19 q 17 125 42 19 l 29 131 m 488 131 l 556 131 q 568 118 568 129 q 531 106 568 106 l 531 32 q 518 19 531 19 q 507 32 507 19 l 507 106 q 475 118 475 106 q 488 131 477 131 m 599 131 q 655 25 615 131 l 642 19 q 624 50 625 19 l 581 50 q 562 19 576 19 l 549 25 q 599 131 588 131 m 655 131 l 810 131 q 822 118 822 129 q 791 106 822 106 l 791 32 q 779 19 791 19 q 766 32 766 19 l 766 106 q 735 112 735 106 q 698 106 726 106 l 698 32 q 686 19 698 19 q 673 32 673 19 l 673 106 q 642 118 642 106 q 655 131 644 131 m 878 131 q 934 75 934 122 q 884 13 934 28 q 822 75 822 21 q 878 131 830 131 m 996 131 q 1045 81 1045 131 l 1045 50 q 989 13 1021 13 q 940 68 949 13 l 940 94 q 996 131 962 131 m 1063 131 q 1082 62 1082 106 l 1095 62 q 1120 131 1103 131 l 1126 131 q 1150 56 1139 131 l 1156 56 q 1181 131 1164 131 q 1194 118 1194 129 q 1156 19 1166 19 l 1150 19 q 1126 94 1136 19 l 1120 94 q 1088 19 1103 19 q 1051 125 1069 19 l 1063 131 m 1249 131 q 1305 62 1305 131 q 1249 13 1285 13 q 1194 87 1194 13 q 1249 131 1212 131 m 1367 131 q 1417 81 1417 131 l 1417 50 q 1361 13 1393 13 q 1311 68 1321 13 l 1311 81 q 1367 131 1311 131 m 1522 131 q 1565 94 1565 131 l 1553 87 q 1516 112 1532 112 q 1491 75 1491 106 l 1491 56 q 1510 38 1491 47 l 1528 38 q 1559 62 1556 62 l 1565 50 l 1565 44 q 1516 13 1548 13 q 1466 87 1466 13 q 1522 131 1485 131 m 1627 131 q 1683 75 1683 122 l 1683 68 q 1627 13 1675 13 q 1571 75 1571 27 q 1627 131 1584 131 m 1708 131 l 1714 131 q 1745 50 1728 131 l 1751 50 q 1788 131 1771 131 q 1801 118 1801 129 l 1801 32 q 1788 19 1801 19 q 1782 75 1782 23 l 1775 75 q 1751 19 1763 19 l 1745 19 q 1720 81 1731 19 l 1714 81 q 1702 19 1714 19 l 1695 32 l 1695 118 q 1708 131 1697 131 m 847 87 l 847 56 q 865 38 847 47 l 890 38 q 909 56 899 38 l 909 87 q 884 112 909 97 l 871 112 q 847 87 862 112 m 958 75 q 983 38 971 38 l 1008 38 q 1027 75 1027 44 q 989 112 1021 112 q 958 75 971 111 m 1219 75 l 1219 56 q 1237 38 1219 47 l 1261 38 q 1280 56 1271 38 l 1280 87 q 1255 112 1280 97 q 1219 75 1219 112 m 1330 68 q 1355 38 1342 40 l 1379 38 q 1398 75 1398 44 q 1361 112 1393 112 q 1330 68 1330 102 m 1596 87 l 1596 75 q 1615 38 1600 38 l 1640 38 q 1658 56 1649 38 l 1658 75 q 1627 112 1658 112 q 1596 87 1599 100 m 593 81 l 593 68 l 611 68 l 611 75 q 605 94 605 87 q 593 81 593 92 m 456 38 l 463 25 l 450 19 l 444 32 l 456 38 m 1441 38 q 1454 25 1454 36 l 1441 19 q 1429 32 1429 19 l 1441 38 z "},"&":{"ha":1843,"x_min":17,"x_max":1801,"o":"m 921 1158 q 1033 1065 977 1158 q 1082 991 1082 1031 l 1082 972 q 1051 917 1082 949 l 1051 873 q 1082 855 1082 869 q 1045 793 1045 849 l 1045 738 l 1033 738 l 1033 781 q 989 762 1010 762 l 977 762 q 958 781 968 762 q 964 787 958 787 q 958 831 958 812 l 946 824 l 946 837 q 1002 892 964 881 l 1039 880 l 1039 899 l 996 905 q 952 886 975 905 l 946 899 q 977 924 977 915 l 964 924 l 934 917 l 903 924 q 884 917 896 924 q 841 924 859 924 q 779 917 833 924 q 772 924 779 924 l 766 911 l 779 905 l 772 892 l 772 880 q 828 892 819 892 q 884 831 884 873 l 871 837 l 871 806 l 878 774 l 859 762 l 841 762 q 785 831 785 762 l 779 831 l 779 806 q 853 663 779 663 q 921 638 853 652 q 1027 725 1027 674 l 1039 725 q 1021 675 1039 713 q 1014 558 1014 577 q 1144 484 1144 532 q 1150 452 1150 473 l 1150 347 q 1156 218 1150 298 q 1132 186 1144 189 l 1126 186 l 1126 193 l 1138 211 l 1138 353 q 1114 359 1124 353 q 946 236 1114 236 l 946 248 q 1039 260 1025 260 l 1039 267 q 667 317 736 317 q 649 279 667 284 l 642 279 l 642 286 l 655 311 q 618 323 631 311 l 618 317 q 636 242 618 307 q 587 527 601 242 q 655 645 601 645 q 649 750 649 718 l 649 806 q 779 1134 649 1064 q 921 1158 818 1152 m 1008 924 l 1008 917 l 1039 911 l 1039 924 l 1008 924 m 859 917 q 890 892 888 905 l 890 886 l 884 886 l 853 905 q 785 899 798 899 l 785 911 q 859 917 795 911 m 748 855 l 748 831 q 760 843 760 831 q 748 855 760 855 m 785 855 l 791 824 l 797 824 l 797 855 l 785 855 m 1039 855 q 1033 818 1033 823 l 1033 812 l 1039 812 q 1045 849 1039 817 l 1045 855 l 1039 855 m 835 849 q 847 837 836 837 l 853 849 l 835 849 m 816 812 l 816 800 q 853 774 822 774 l 859 806 l 847 812 q 822 806 836 806 q 816 812 822 812 m 946 818 q 958 793 946 808 l 958 787 q 934 812 949 787 l 946 818 m 996 812 l 989 800 l 977 806 l 970 806 q 989 774 979 774 l 996 774 q 1014 793 1004 774 l 1014 806 q 996 812 1008 806 m 909 725 l 934 725 q 921 713 934 713 l 909 713 l 909 725 m 884 700 l 890 700 l 903 694 q 928 700 913 700 q 946 682 936 700 q 928 663 946 673 l 909 663 q 884 694 900 664 l 884 700 m 828 657 q 822 601 822 614 q 871 564 868 578 l 871 558 q 797 595 822 595 l 797 583 q 871 552 797 569 q 909 521 871 545 q 964 533 956 533 l 958 521 q 983 539 983 524 l 996 539 q 1063 521 1056 521 l 1063 533 q 996 545 1057 533 l 940 545 l 940 558 l 989 558 l 989 564 q 946 632 946 573 l 934 626 l 921 626 q 828 657 886 626 m 667 638 q 717 595 681 607 l 717 601 q 673 638 707 638 l 667 638 m 630 614 l 636 614 q 649 626 649 614 l 649 632 q 630 614 640 632 m 928 595 l 934 595 q 909 558 921 558 q 897 570 897 558 l 897 576 l 909 570 q 928 595 918 595 m 692 558 l 698 527 l 692 496 l 711 484 l 723 484 l 717 514 l 717 539 l 729 539 l 723 583 l 692 558 m 605 576 l 605 545 l 611 545 l 611 576 l 605 576 m 797 552 l 797 545 l 816 545 l 816 539 l 810 527 l 828 527 l 822 539 q 828 545 828 539 q 810 552 822 545 l 797 552 m 847 552 l 847 545 q 871 533 857 545 l 871 539 l 853 552 l 847 552 m 599 527 l 599 521 q 630 496 630 521 l 642 496 q 661 527 644 527 q 655 545 655 539 l 649 545 q 599 527 633 527 m 680 539 l 673 514 l 673 503 l 680 503 l 686 533 l 686 539 l 680 539 m 1002 514 l 996 503 q 1002 496 1002 503 q 996 490 996 496 l 1008 490 q 1039 508 1008 508 l 1039 514 l 1002 514 m 1088 521 l 1082 508 l 1082 465 q 1120 378 1105 378 l 1132 397 q 1120 410 1120 397 l 1132 410 q 1120 421 1132 421 l 1114 421 l 1120 410 l 1114 410 q 1101 421 1101 410 l 1120 446 q 1114 465 1114 458 l 1126 471 l 1138 465 l 1138 471 q 1088 521 1126 521 m 797 503 q 915 378 797 414 l 915 434 q 928 421 928 432 l 928 378 l 977 378 q 1045 446 1045 378 q 1051 503 1051 469 l 1045 503 q 952 446 979 446 l 952 452 l 940 446 l 921 459 q 909 446 921 446 q 890 465 909 456 l 871 452 q 847 477 847 469 l 835 471 l 828 484 q 835 490 835 484 q 816 503 816 490 q 822 508 822 503 l 810 508 l 797 503 m 642 490 l 636 477 l 636 471 l 642 471 q 655 484 655 471 l 642 490 m 605 484 l 605 428 q 636 440 621 440 l 636 459 l 630 471 l 618 465 l 611 465 l 611 484 l 605 484 m 958 484 l 958 477 q 970 465 960 465 l 970 471 q 958 484 970 484 m 655 465 l 649 452 l 667 452 q 655 465 667 465 m 624 428 q 605 410 624 410 q 618 397 607 397 l 636 421 l 624 428 m 704 428 l 704 410 q 723 404 711 410 l 723 428 l 704 428 m 680 404 l 680 397 q 704 385 689 397 l 704 391 q 698 410 698 403 q 680 404 686 404 m 1126 372 l 1126 366 q 1138 378 1138 366 l 1138 385 q 1126 372 1126 382 m 686 378 l 686 372 q 742 335 715 372 l 735 335 q 729 341 729 335 l 717 335 l 686 341 l 667 341 l 667 335 l 772 317 l 772 323 q 723 378 762 355 l 723 372 q 754 341 731 372 l 754 335 q 692 378 707 378 l 686 378 m 661 372 l 661 366 q 704 347 673 366 l 711 347 l 711 353 q 667 372 698 353 l 661 372 m 636 323 l 642 323 q 655 335 655 323 l 649 335 q 636 323 636 333 m 29 131 q 54 56 45 131 l 60 56 q 91 131 73 131 q 122 62 105 131 l 129 62 q 153 131 133 131 l 172 131 q 197 62 182 131 l 203 62 q 228 131 212 131 l 234 131 q 258 62 250 131 l 264 62 q 290 131 277 131 l 308 131 q 332 62 327 131 q 363 131 340 62 l 370 131 q 401 62 387 131 l 408 62 q 432 131 414 131 l 438 131 l 438 118 q 401 19 422 19 q 376 87 385 19 l 363 87 q 339 19 355 19 q 302 112 321 19 l 296 112 q 264 19 281 19 q 234 94 244 19 l 228 94 q 197 19 215 19 q 165 106 178 19 q 129 19 157 106 l 122 19 q 91 87 109 19 l 85 87 q 60 19 76 19 l 54 19 q 17 125 42 19 l 29 131 m 488 131 l 556 131 q 568 118 568 129 q 531 106 568 106 l 531 32 q 518 19 531 19 q 507 32 507 19 l 507 106 q 475 118 475 106 q 488 131 477 131 m 599 131 q 655 25 615 131 l 642 19 q 624 50 625 19 l 581 50 q 562 19 576 19 l 549 25 q 599 131 588 131 m 655 131 l 810 131 q 822 118 822 129 q 791 106 822 106 l 791 32 q 779 19 791 19 q 766 32 766 19 l 766 106 q 735 112 735 106 q 698 106 726 106 l 698 32 q 686 19 698 19 q 673 32 673 19 l 673 106 q 642 118 642 106 q 655 131 644 131 m 878 131 q 934 75 934 122 q 884 13 934 28 q 822 75 822 21 q 878 131 830 131 m 996 131 q 1045 81 1045 131 l 1045 50 q 989 13 1021 13 q 940 68 949 13 l 940 94 q 996 131 962 131 m 1063 131 q 1082 62 1082 106 l 1095 62 q 1120 131 1103 131 l 1126 131 q 1150 56 1139 131 l 1156 56 q 1181 131 1164 131 q 1194 118 1194 129 q 1156 19 1166 19 l 1150 19 q 1126 94 1136 19 l 1120 94 q 1088 19 1103 19 q 1051 125 1069 19 l 1063 131 m 1249 131 q 1305 62 1305 131 q 1249 13 1285 13 q 1194 87 1194 13 q 1249 131 1212 131 m 1367 131 q 1417 81 1417 131 l 1417 50 q 1361 13 1393 13 q 1311 68 1321 13 l 1311 81 q 1367 131 1311 131 m 1522 131 q 1565 94 1565 131 l 1553 87 q 1516 112 1532 112 q 1491 75 1491 106 l 1491 56 q 1510 38 1491 47 l 1528 38 q 1559 62 1556 62 l 1565 50 l 1565 44 q 1516 13 1548 13 q 1466 87 1466 13 q 1522 131 1485 131 m 1627 131 q 1683 75 1683 122 l 1683 68 q 1627 13 1675 13 q 1571 75 1571 27 q 1627 131 1584 131 m 1708 131 l 1714 131 q 1745 50 1728 131 l 1751 50 q 1788 131 1771 131 q 1801 118 1801 129 l 1801 32 q 1788 19 1801 19 q 1782 75 1782 23 l 1775 75 q 1751 19 1763 19 l 1745 19 q 1720 81 1731 19 l 1714 81 q 1702 19 1714 19 l 1695 32 l 1695 118 q 1708 131 1697 131 m 847 87 l 847 56 q 865 38 847 47 l 890 38 q 909 56 899 38 l 909 87 q 884 112 909 97 l 871 112 q 847 87 862 112 m 958 75 q 983 38 971 38 l 1008 38 q 1027 75 1027 44 q 989 112 1021 112 q 958 75 971 111 m 1219 75 l 1219 56 q 1237 38 1219 47 l 1261 38 q 1280 56 1271 38 l 1280 87 q 1255 112 1280 97 q 1219 75 1219 112 m 1330 68 q 1355 38 1342 40 l 1379 38 q 1398 75 1398 44 q 1361 112 1393 112 q 1330 68 1330 102 m 1596 87 l 1596 75 q 1615 38 1600 38 l 1640 38 q 1658 56 1649 38 l 1658 75 q 1627 112 1658 112 q 1596 87 1599 100 m 593 81 l 593 68 l 611 68 l 611 75 q 605 94 605 87 q 593 81 593 92 m 456 38 l 463 25 l 450 19 l 444 32 l 456 38 m 1441 38 q 1454 25 1454 36 l 1441 19 q 1429 32 1429 19 l 1441 38 z "},"'":{"ha":1843,"x_min":17,"x_max":1801,"o":"m 921 1158 q 1033 1065 977 1158 q 1082 991 1082 1031 l 1082 972 q 1051 917 1082 949 l 1051 873 q 1082 855 1082 869 q 1045 793 1045 849 l 1045 738 l 1033 738 l 1033 781 q 989 762 1010 762 l 977 762 q 958 781 968 762 q 964 787 958 787 q 958 831 958 812 l 946 824 l 946 837 q 1002 892 964 881 l 1039 880 l 1039 899 l 996 905 q 952 886 975 905 l 946 899 q 977 924 977 915 l 964 924 l 934 917 l 903 924 q 884 917 896 924 q 841 924 859 924 q 779 917 833 924 q 772 924 779 924 l 766 911 l 779 905 l 772 892 l 772 880 q 828 892 819 892 q 884 831 884 873 l 871 837 l 871 806 l 878 774 l 859 762 l 841 762 q 785 831 785 762 l 779 831 l 779 806 q 853 663 779 663 q 921 638 853 652 q 1027 725 1027 674 l 1039 725 q 1021 675 1039 713 q 1014 558 1014 577 q 1144 484 1144 532 q 1150 452 1150 473 l 1150 347 q 1156 218 1150 298 q 1132 186 1144 189 l 1126 186 l 1126 193 l 1138 211 l 1138 353 q 1114 359 1124 353 q 946 236 1114 236 l 946 248 q 1039 260 1025 260 l 1039 267 q 667 317 736 317 q 649 279 667 284 l 642 279 l 642 286 l 655 311 q 618 323 631 311 l 618 317 q 636 242 618 307 q 587 527 601 242 q 655 645 601 645 q 649 750 649 718 l 649 806 q 779 1134 649 1064 q 921 1158 818 1152 m 1008 924 l 1008 917 l 1039 911 l 1039 924 l 1008 924 m 859 917 q 890 892 888 905 l 890 886 l 884 886 l 853 905 q 785 899 798 899 l 785 911 q 859 917 795 911 m 748 855 l 748 831 q 760 843 760 831 q 748 855 760 855 m 785 855 l 791 824 l 797 824 l 797 855 l 785 855 m 1039 855 q 1033 818 1033 823 l 1033 812 l 1039 812 q 1045 849 1039 817 l 1045 855 l 1039 855 m 835 849 q 847 837 836 837 l 853 849 l 835 849 m 816 812 l 816 800 q 853 774 822 774 l 859 806 l 847 812 q 822 806 836 806 q 816 812 822 812 m 946 818 q 958 793 946 808 l 958 787 q 934 812 949 787 l 946 818 m 996 812 l 989 800 l 977 806 l 970 806 q 989 774 979 774 l 996 774 q 1014 793 1004 774 l 1014 806 q 996 812 1008 806 m 909 725 l 934 725 q 921 713 934 713 l 909 713 l 909 725 m 884 700 l 890 700 l 903 694 q 928 700 913 700 q 946 682 936 700 q 928 663 946 673 l 909 663 q 884 694 900 664 l 884 700 m 828 657 q 822 601 822 614 q 871 564 868 578 l 871 558 q 797 595 822 595 l 797 583 q 871 552 797 569 q 909 521 871 545 q 964 533 956 533 l 958 521 q 983 539 983 524 l 996 539 q 1063 521 1056 521 l 1063 533 q 996 545 1057 533 l 940 545 l 940 558 l 989 558 l 989 564 q 946 632 946 573 l 934 626 l 921 626 q 828 657 886 626 m 667 638 q 717 595 681 607 l 717 601 q 673 638 707 638 l 667 638 m 630 614 l 636 614 q 649 626 649 614 l 649 632 q 630 614 640 632 m 928 595 l 934 595 q 909 558 921 558 q 897 570 897 558 l 897 576 l 909 570 q 928 595 918 595 m 692 558 l 698 527 l 692 496 l 711 484 l 723 484 l 717 514 l 717 539 l 729 539 l 723 583 l 692 558 m 605 576 l 605 545 l 611 545 l 611 576 l 605 576 m 797 552 l 797 545 l 816 545 l 816 539 l 810 527 l 828 527 l 822 539 q 828 545 828 539 q 810 552 822 545 l 797 552 m 847 552 l 847 545 q 871 533 857 545 l 871 539 l 853 552 l 847 552 m 599 527 l 599 521 q 630 496 630 521 l 642 496 q 661 527 644 527 q 655 545 655 539 l 649 545 q 599 527 633 527 m 680 539 l 673 514 l 673 503 l 680 503 l 686 533 l 686 539 l 680 539 m 1002 514 l 996 503 q 1002 496 1002 503 q 996 490 996 496 l 1008 490 q 1039 508 1008 508 l 1039 514 l 1002 514 m 1088 521 l 1082 508 l 1082 465 q 1120 378 1105 378 l 1132 397 q 1120 410 1120 397 l 1132 410 q 1120 421 1132 421 l 1114 421 l 1120 410 l 1114 410 q 1101 421 1101 410 l 1120 446 q 1114 465 1114 458 l 1126 471 l 1138 465 l 1138 471 q 1088 521 1126 521 m 797 503 q 915 378 797 414 l 915 434 q 928 421 928 432 l 928 378 l 977 378 q 1045 446 1045 378 q 1051 503 1051 469 l 1045 503 q 952 446 979 446 l 952 452 l 940 446 l 921 459 q 909 446 921 446 q 890 465 909 456 l 871 452 q 847 477 847 469 l 835 471 l 828 484 q 835 490 835 484 q 816 503 816 490 q 822 508 822 503 l 810 508 l 797 503 m 642 490 l 636 477 l 636 471 l 642 471 q 655 484 655 471 l 642 490 m 605 484 l 605 428 q 636 440 621 440 l 636 459 l 630 471 l 618 465 l 611 465 l 611 484 l 605 484 m 958 484 l 958 477 q 970 465 960 465 l 970 471 q 958 484 970 484 m 655 465 l 649 452 l 667 452 q 655 465 667 465 m 624 428 q 605 410 624 410 q 618 397 607 397 l 636 421 l 624 428 m 704 428 l 704 410 q 723 404 711 410 l 723 428 l 704 428 m 680 404 l 680 397 q 704 385 689 397 l 704 391 q 698 410 698 403 q 680 404 686 404 m 1126 372 l 1126 366 q 1138 378 1138 366 l 1138 385 q 1126 372 1126 382 m 686 378 l 686 372 q 742 335 715 372 l 735 335 q 729 341 729 335 l 717 335 l 686 341 l 667 341 l 667 335 l 772 317 l 772 323 q 723 378 762 355 l 723 372 q 754 341 731 372 l 754 335 q 692 378 707 378 l 686 378 m 661 372 l 661 366 q 704 347 673 366 l 711 347 l 711 353 q 667 372 698 353 l 661 372 m 636 323 l 642 323 q 655 335 655 323 l 649 335 q 636 323 636 333 m 29 131 q 54 56 45 131 l 60 56 q 91 131 73 131 q 122 62 105 131 l 129 62 q 153 131 133 131 l 172 131 q 197 62 182 131 l 203 62 q 228 131 212 131 l 234 131 q 258 62 250 131 l 264 62 q 290 131 277 131 l 308 131 q 332 62 327 131 q 363 131 340 62 l 370 131 q 401 62 387 131 l 408 62 q 432 131 414 131 l 438 131 l 438 118 q 401 19 422 19 q 376 87 385 19 l 363 87 q 339 19 355 19 q 302 112 321 19 l 296 112 q 264 19 281 19 q 234 94 244 19 l 228 94 q 197 19 215 19 q 165 106 178 19 q 129 19 157 106 l 122 19 q 91 87 109 19 l 85 87 q 60 19 76 19 l 54 19 q 17 125 42 19 l 29 131 m 488 131 l 556 131 q 568 118 568 129 q 531 106 568 106 l 531 32 q 518 19 531 19 q 507 32 507 19 l 507 106 q 475 118 475 106 q 488 131 477 131 m 599 131 q 655 25 615 131 l 642 19 q 624 50 625 19 l 581 50 q 562 19 576 19 l 549 25 q 599 131 588 131 m 655 131 l 810 131 q 822 118 822 129 q 791 106 822 106 l 791 32 q 779 19 791 19 q 766 32 766 19 l 766 106 q 735 112 735 106 q 698 106 726 106 l 698 32 q 686 19 698 19 q 673 32 673 19 l 673 106 q 642 118 642 106 q 655 131 644 131 m 878 131 q 934 75 934 122 q 884 13 934 28 q 822 75 822 21 q 878 131 830 131 m 996 131 q 1045 81 1045 131 l 1045 50 q 989 13 1021 13 q 940 68 949 13 l 940 94 q 996 131 962 131 m 1063 131 q 1082 62 1082 106 l 1095 62 q 1120 131 1103 131 l 1126 131 q 1150 56 1139 131 l 1156 56 q 1181 131 1164 131 q 1194 118 1194 129 q 1156 19 1166 19 l 1150 19 q 1126 94 1136 19 l 1120 94 q 1088 19 1103 19 q 1051 125 1069 19 l 1063 131 m 1249 131 q 1305 62 1305 131 q 1249 13 1285 13 q 1194 87 1194 13 q 1249 131 1212 131 m 1367 131 q 1417 81 1417 131 l 1417 50 q 1361 13 1393 13 q 1311 68 1321 13 l 1311 81 q 1367 131 1311 131 m 1522 131 q 1565 94 1565 131 l 1553 87 q 1516 112 1532 112 q 1491 75 1491 106 l 1491 56 q 1510 38 1491 47 l 1528 38 q 1559 62 1556 62 l 1565 50 l 1565 44 q 1516 13 1548 13 q 1466 87 1466 13 q 1522 131 1485 131 m 1627 131 q 1683 75 1683 122 l 1683 68 q 1627 13 1675 13 q 1571 75 1571 27 q 1627 131 1584 131 m 1708 131 l 1714 131 q 1745 50 1728 131 l 1751 50 q 1788 131 1771 131 q 1801 118 1801 129 l 1801 32 q 1788 19 1801 19 q 1782 75 1782 23 l 1775 75 q 1751 19 1763 19 l 1745 19 q 1720 81 1731 19 l 1714 81 q 1702 19 1714 19 l 1695 32 l 1695 118 q 1708 131 1697 131 m 847 87 l 847 56 q 865 38 847 47 l 890 38 q 909 56 899 38 l 909 87 q 884 112 909 97 l 871 112 q 847 87 862 112 m 958 75 q 983 38 971 38 l 1008 38 q 1027 75 1027 44 q 989 112 1021 112 q 958 75 971 111 m 1219 75 l 1219 56 q 1237 38 1219 47 l 1261 38 q 1280 56 1271 38 l 1280 87 q 1255 112 1280 97 q 1219 75 1219 112 m 1330 68 q 1355 38 1342 40 l 1379 38 q 1398 75 1398 44 q 1361 112 1393 112 q 1330 68 1330 102 m 1596 87 l 1596 75 q 1615 38 1600 38 l 1640 38 q 1658 56 1649 38 l 1658 75 q 1627 112 1658 112 q 1596 87 1599 100 m 593 81 l 593 68 l 611 68 l 611 75 q 605 94 605 87 q 593 81 593 92 m 456 38 l 463 25 l 450 19 l 444 32 l 456 38 m 1441 38 q 1454 25 1454 36 l 1441 19 q 1429 32 1429 19 l 1441 38 z "},"(":{"ha":1843,"x_min":17,"x_max":1801,"o":"m 921 1158 q 1033 1065 977 1158 q 1082 991 1082 1031 l 1082 972 q 1051 917 1082 949 l 1051 873 q 1082 855 1082 869 q 1045 793 1045 849 l 1045 738 l 1033 738 l 1033 781 q 989 762 1010 762 l 977 762 q 958 781 968 762 q 964 787 958 787 q 958 831 958 812 l 946 824 l 946 837 q 1002 892 964 881 l 1039 880 l 1039 899 l 996 905 q 952 886 975 905 l 946 899 q 977 924 977 915 l 964 924 l 934 917 l 903 924 q 884 917 896 924 q 841 924 859 924 q 779 917 833 924 q 772 924 779 924 l 766 911 l 779 905 l 772 892 l 772 880 q 828 892 819 892 q 884 831 884 873 l 871 837 l 871 806 l 878 774 l 859 762 l 841 762 q 785 831 785 762 l 779 831 l 779 806 q 853 663 779 663 q 921 638 853 652 q 1027 725 1027 674 l 1039 725 q 1021 675 1039 713 q 1014 558 1014 577 q 1144 484 1144 532 q 1150 452 1150 473 l 1150 347 q 1156 218 1150 298 q 1132 186 1144 189 l 1126 186 l 1126 193 l 1138 211 l 1138 353 q 1114 359 1124 353 q 946 236 1114 236 l 946 248 q 1039 260 1025 260 l 1039 267 q 667 317 736 317 q 649 279 667 284 l 642 279 l 642 286 l 655 311 q 618 323 631 311 l 618 317 q 636 242 618 307 q 587 527 601 242 q 655 645 601 645 q 649 750 649 718 l 649 806 q 779 1134 649 1064 q 921 1158 818 1152 m 1008 924 l 1008 917 l 1039 911 l 1039 924 l 1008 924 m 859 917 q 890 892 888 905 l 890 886 l 884 886 l 853 905 q 785 899 798 899 l 785 911 q 859 917 795 911 m 748 855 l 748 831 q 760 843 760 831 q 748 855 760 855 m 785 855 l 791 824 l 797 824 l 797 855 l 785 855 m 1039 855 q 1033 818 1033 823 l 1033 812 l 1039 812 q 1045 849 1039 817 l 1045 855 l 1039 855 m 835 849 q 847 837 836 837 l 853 849 l 835 849 m 816 812 l 816 800 q 853 774 822 774 l 859 806 l 847 812 q 822 806 836 806 q 816 812 822 812 m 946 818 q 958 793 946 808 l 958 787 q 934 812 949 787 l 946 818 m 996 812 l 989 800 l 977 806 l 970 806 q 989 774 979 774 l 996 774 q 1014 793 1004 774 l 1014 806 q 996 812 1008 806 m 909 725 l 934 725 q 921 713 934 713 l 909 713 l 909 725 m 884 700 l 890 700 l 903 694 q 928 700 913 700 q 946 682 936 700 q 928 663 946 673 l 909 663 q 884 694 900 664 l 884 700 m 828 657 q 822 601 822 614 q 871 564 868 578 l 871 558 q 797 595 822 595 l 797 583 q 871 552 797 569 q 909 521 871 545 q 964 533 956 533 l 958 521 q 983 539 983 524 l 996 539 q 1063 521 1056 521 l 1063 533 q 996 545 1057 533 l 940 545 l 940 558 l 989 558 l 989 564 q 946 632 946 573 l 934 626 l 921 626 q 828 657 886 626 m 667 638 q 717 595 681 607 l 717 601 q 673 638 707 638 l 667 638 m 630 614 l 636 614 q 649 626 649 614 l 649 632 q 630 614 640 632 m 928 595 l 934 595 q 909 558 921 558 q 897 570 897 558 l 897 576 l 909 570 q 928 595 918 595 m 692 558 l 698 527 l 692 496 l 711 484 l 723 484 l 717 514 l 717 539 l 729 539 l 723 583 l 692 558 m 605 576 l 605 545 l 611 545 l 611 576 l 605 576 m 797 552 l 797 545 l 816 545 l 816 539 l 810 527 l 828 527 l 822 539 q 828 545 828 539 q 810 552 822 545 l 797 552 m 847 552 l 847 545 q 871 533 857 545 l 871 539 l 853 552 l 847 552 m 599 527 l 599 521 q 630 496 630 521 l 642 496 q 661 527 644 527 q 655 545 655 539 l 649 545 q 599 527 633 527 m 680 539 l 673 514 l 673 503 l 680 503 l 686 533 l 686 539 l 680 539 m 1002 514 l 996 503 q 1002 496 1002 503 q 996 490 996 496 l 1008 490 q 1039 508 1008 508 l 1039 514 l 1002 514 m 1088 521 l 1082 508 l 1082 465 q 1120 378 1105 378 l 1132 397 q 1120 410 1120 397 l 1132 410 q 1120 421 1132 421 l 1114 421 l 1120 410 l 1114 410 q 1101 421 1101 410 l 1120 446 q 1114 465 1114 458 l 1126 471 l 1138 465 l 1138 471 q 1088 521 1126 521 m 797 503 q 915 378 797 414 l 915 434 q 928 421 928 432 l 928 378 l 977 378 q 1045 446 1045 378 q 1051 503 1051 469 l 1045 503 q 952 446 979 446 l 952 452 l 940 446 l 921 459 q 909 446 921 446 q 890 465 909 456 l 871 452 q 847 477 847 469 l 835 471 l 828 484 q 835 490 835 484 q 816 503 816 490 q 822 508 822 503 l 810 508 l 797 503 m 642 490 l 636 477 l 636 471 l 642 471 q 655 484 655 471 l 642 490 m 605 484 l 605 428 q 636 440 621 440 l 636 459 l 630 471 l 618 465 l 611 465 l 611 484 l 605 484 m 958 484 l 958 477 q 970 465 960 465 l 970 471 q 958 484 970 484 m 655 465 l 649 452 l 667 452 q 655 465 667 465 m 624 428 q 605 410 624 410 q 618 397 607 397 l 636 421 l 624 428 m 704 428 l 704 410 q 723 404 711 410 l 723 428 l 704 428 m 680 404 l 680 397 q 704 385 689 397 l 704 391 q 698 410 698 403 q 680 404 686 404 m 1126 372 l 1126 366 q 1138 378 1138 366 l 1138 385 q 1126 372 1126 382 m 686 378 l 686 372 q 742 335 715 372 l 735 335 q 729 341 729 335 l 717 335 l 686 341 l 667 341 l 667 335 l 772 317 l 772 323 q 723 378 762 355 l 723 372 q 754 341 731 372 l 754 335 q 692 378 707 378 l 686 378 m 661 372 l 661 366 q 704 347 673 366 l 711 347 l 711 353 q 667 372 698 353 l 661 372 m 636 323 l 642 323 q 655 335 655 323 l 649 335 q 636 323 636 333 m 29 131 q 54 56 45 131 l 60 56 q 91 131 73 131 q 122 62 105 131 l 129 62 q 153 131 133 131 l 172 131 q 197 62 182 131 l 203 62 q 228 131 212 131 l 234 131 q 258 62 250 131 l 264 62 q 290 131 277 131 l 308 131 q 332 62 327 131 q 363 131 340 62 l 370 131 q 401 62 387 131 l 408 62 q 432 131 414 131 l 438 131 l 438 118 q 401 19 422 19 q 376 87 385 19 l 363 87 q 339 19 355 19 q 302 112 321 19 l 296 112 q 264 19 281 19 q 234 94 244 19 l 228 94 q 197 19 215 19 q 165 106 178 19 q 129 19 157 106 l 122 19 q 91 87 109 19 l 85 87 q 60 19 76 19 l 54 19 q 17 125 42 19 l 29 131 m 488 131 l 556 131 q 568 118 568 129 q 531 106 568 106 l 531 32 q 518 19 531 19 q 507 32 507 19 l 507 106 q 475 118 475 106 q 488 131 477 131 m 599 131 q 655 25 615 131 l 642 19 q 624 50 625 19 l 581 50 q 562 19 576 19 l 549 25 q 599 131 588 131 m 655 131 l 810 131 q 822 118 822 129 q 791 106 822 106 l 791 32 q 779 19 791 19 q 766 32 766 19 l 766 106 q 735 112 735 106 q 698 106 726 106 l 698 32 q 686 19 698 19 q 673 32 673 19 l 673 106 q 642 118 642 106 q 655 131 644 131 m 878 131 q 934 75 934 122 q 884 13 934 28 q 822 75 822 21 q 878 131 830 131 m 996 131 q 1045 81 1045 131 l 1045 50 q 989 13 1021 13 q 940 68 949 13 l 940 94 q 996 131 962 131 m 1063 131 q 1082 62 1082 106 l 1095 62 q 1120 131 1103 131 l 1126 131 q 1150 56 1139 131 l 1156 56 q 1181 131 1164 131 q 1194 118 1194 129 q 1156 19 1166 19 l 1150 19 q 1126 94 1136 19 l 1120 94 q 1088 19 1103 19 q 1051 125 1069 19 l 1063 131 m 1249 131 q 1305 62 1305 131 q 1249 13 1285 13 q 1194 87 1194 13 q 1249 131 1212 131 m 1367 131 q 1417 81 1417 131 l 1417 50 q 1361 13 1393 13 q 1311 68 1321 13 l 1311 81 q 1367 131 1311 131 m 1522 131 q 1565 94 1565 131 l 1553 87 q 1516 112 1532 112 q 1491 75 1491 106 l 1491 56 q 1510 38 1491 47 l 1528 38 q 1559 62 1556 62 l 1565 50 l 1565 44 q 1516 13 1548 13 q 1466 87 1466 13 q 1522 131 1485 131 m 1627 131 q 1683 75 1683 122 l 1683 68 q 1627 13 1675 13 q 1571 75 1571 27 q 1627 131 1584 131 m 1708 131 l 1714 131 q 1745 50 1728 131 l 1751 50 q 1788 131 1771 131 q 1801 118 1801 129 l 1801 32 q 1788 19 1801 19 q 1782 75 1782 23 l 1775 75 q 1751 19 1763 19 l 1745 19 q 1720 81 1731 19 l 1714 81 q 1702 19 1714 19 l 1695 32 l 1695 118 q 1708 131 1697 131 m 847 87 l 847 56 q 865 38 847 47 l 890 38 q 909 56 899 38 l 909 87 q 884 112 909 97 l 871 112 q 847 87 862 112 m 958 75 q 983 38 971 38 l 1008 38 q 1027 75 1027 44 q 989 112 1021 112 q 958 75 971 111 m 1219 75 l 1219 56 q 1237 38 1219 47 l 1261 38 q 1280 56 1271 38 l 1280 87 q 1255 112 1280 97 q 1219 75 1219 112 m 1330 68 q 1355 38 1342 40 l 1379 38 q 1398 75 1398 44 q 1361 112 1393 112 q 1330 68 1330 102 m 1596 87 l 1596 75 q 1615 38 1600 38 l 1640 38 q 1658 56 1649 38 l 1658 75 q 1627 112 1658 112 q 1596 87 1599 100 m 593 81 l 593 68 l 611 68 l 611 75 q 605 94 605 87 q 593 81 593 92 m 456 38 l 463 25 l 450 19 l 444 32 l 456 38 m 1441 38 q 1454 25 1454 36 l 1441 19 q 1429 32 1429 19 l 1441 38 z "},")":{"ha":1843,"x_min":17,"x_max":1801,"o":"m 921 1158 q 1033 1065 977 1158 q 1082 991 1082 1031 l 1082 972 q 1051 917 1082 949 l 1051 873 q 1082 855 1082 869 q 1045 793 1045 849 l 1045 738 l 1033 738 l 1033 781 q 989 762 1010 762 l 977 762 q 958 781 968 762 q 964 787 958 787 q 958 831 958 812 l 946 824 l 946 837 q 1002 892 964 881 l 1039 880 l 1039 899 l 996 905 q 952 886 975 905 l 946 899 q 977 924 977 915 l 964 924 l 934 917 l 903 924 q 884 917 896 924 q 841 924 859 924 q 779 917 833 924 q 772 924 779 924 l 766 911 l 779 905 l 772 892 l 772 880 q 828 892 819 892 q 884 831 884 873 l 871 837 l 871 806 l 878 774 l 859 762 l 841 762 q 785 831 785 762 l 779 831 l 779 806 q 853 663 779 663 q 921 638 853 652 q 1027 725 1027 674 l 1039 725 q 1021 675 1039 713 q 1014 558 1014 577 q 1144 484 1144 532 q 1150 452 1150 473 l 1150 347 q 1156 218 1150 298 q 1132 186 1144 189 l 1126 186 l 1126 193 l 1138 211 l 1138 353 q 1114 359 1124 353 q 946 236 1114 236 l 946 248 q 1039 260 1025 260 l 1039 267 q 667 317 736 317 q 649 279 667 284 l 642 279 l 642 286 l 655 311 q 618 323 631 311 l 618 317 q 636 242 618 307 q 587 527 601 242 q 655 645 601 645 q 649 750 649 718 l 649 806 q 779 1134 649 1064 q 921 1158 818 1152 m 1008 924 l 1008 917 l 1039 911 l 1039 924 l 1008 924 m 859 917 q 890 892 888 905 l 890 886 l 884 886 l 853 905 q 785 899 798 899 l 785 911 q 859 917 795 911 m 748 855 l 748 831 q 760 843 760 831 q 748 855 760 855 m 785 855 l 791 824 l 797 824 l 797 855 l 785 855 m 1039 855 q 1033 818 1033 823 l 1033 812 l 1039 812 q 1045 849 1039 817 l 1045 855 l 1039 855 m 835 849 q 847 837 836 837 l 853 849 l 835 849 m 816 812 l 816 800 q 853 774 822 774 l 859 806 l 847 812 q 822 806 836 806 q 816 812 822 812 m 946 818 q 958 793 946 808 l 958 787 q 934 812 949 787 l 946 818 m 996 812 l 989 800 l 977 806 l 970 806 q 989 774 979 774 l 996 774 q 1014 793 1004 774 l 1014 806 q 996 812 1008 806 m 909 725 l 934 725 q 921 713 934 713 l 909 713 l 909 725 m 884 700 l 890 700 l 903 694 q 928 700 913 700 q 946 682 936 700 q 928 663 946 673 l 909 663 q 884 694 900 664 l 884 700 m 828 657 q 822 601 822 614 q 871 564 868 578 l 871 558 q 797 595 822 595 l 797 583 q 871 552 797 569 q 909 521 871 545 q 964 533 956 533 l 958 521 q 983 539 983 524 l 996 539 q 1063 521 1056 521 l 1063 533 q 996 545 1057 533 l 940 545 l 940 558 l 989 558 l 989 564 q 946 632 946 573 l 934 626 l 921 626 q 828 657 886 626 m 667 638 q 717 595 681 607 l 717 601 q 673 638 707 638 l 667 638 m 630 614 l 636 614 q 649 626 649 614 l 649 632 q 630 614 640 632 m 928 595 l 934 595 q 909 558 921 558 q 897 570 897 558 l 897 576 l 909 570 q 928 595 918 595 m 692 558 l 698 527 l 692 496 l 711 484 l 723 484 l 717 514 l 717 539 l 729 539 l 723 583 l 692 558 m 605 576 l 605 545 l 611 545 l 611 576 l 605 576 m 797 552 l 797 545 l 816 545 l 816 539 l 810 527 l 828 527 l 822 539 q 828 545 828 539 q 810 552 822 545 l 797 552 m 847 552 l 847 545 q 871 533 857 545 l 871 539 l 853 552 l 847 552 m 599 527 l 599 521 q 630 496 630 521 l 642 496 q 661 527 644 527 q 655 545 655 539 l 649 545 q 599 527 633 527 m 680 539 l 673 514 l 673 503 l 680 503 l 686 533 l 686 539 l 680 539 m 1002 514 l 996 503 q 1002 496 1002 503 q 996 490 996 496 l 1008 490 q 1039 508 1008 508 l 1039 514 l 1002 514 m 1088 521 l 1082 508 l 1082 465 q 1120 378 1105 378 l 1132 397 q 1120 410 1120 397 l 1132 410 q 1120 421 1132 421 l 1114 421 l 1120 410 l 1114 410 q 1101 421 1101 410 l 1120 446 q 1114 465 1114 458 l 1126 471 l 1138 465 l 1138 471 q 1088 521 1126 521 m 797 503 q 915 378 797 414 l 915 434 q 928 421 928 432 l 928 378 l 977 378 q 1045 446 1045 378 q 1051 503 1051 469 l 1045 503 q 952 446 979 446 l 952 452 l 940 446 l 921 459 q 909 446 921 446 q 890 465 909 456 l 871 452 q 847 477 847 469 l 835 471 l 828 484 q 835 490 835 484 q 816 503 816 490 q 822 508 822 503 l 810 508 l 797 503 m 642 490 l 636 477 l 636 471 l 642 471 q 655 484 655 471 l 642 490 m 605 484 l 605 428 q 636 440 621 440 l 636 459 l 630 471 l 618 465 l 611 465 l 611 484 l 605 484 m 958 484 l 958 477 q 970 465 960 465 l 970 471 q 958 484 970 484 m 655 465 l 649 452 l 667 452 q 655 465 667 465 m 624 428 q 605 410 624 410 q 618 397 607 397 l 636 421 l 624 428 m 704 428 l 704 410 q 723 404 711 410 l 723 428 l 704 428 m 680 404 l 680 397 q 704 385 689 397 l 704 391 q 698 410 698 403 q 680 404 686 404 m 1126 372 l 1126 366 q 1138 378 1138 366 l 1138 385 q 1126 372 1126 382 m 686 378 l 686 372 q 742 335 715 372 l 735 335 q 729 341 729 335 l 717 335 l 686 341 l 667 341 l 667 335 l 772 317 l 772 323 q 723 378 762 355 l 723 372 q 754 341 731 372 l 754 335 q 692 378 707 378 l 686 378 m 661 372 l 661 366 q 704 347 673 366 l 711 347 l 711 353 q 667 372 698 353 l 661 372 m 636 323 l 642 323 q 655 335 655 323 l 649 335 q 636 323 636 333 m 29 131 q 54 56 45 131 l 60 56 q 91 131 73 131 q 122 62 105 131 l 129 62 q 153 131 133 131 l 172 131 q 197 62 182 131 l 203 62 q 228 131 212 131 l 234 131 q 258 62 250 131 l 264 62 q 290 131 277 131 l 308 131 q 332 62 327 131 q 363 131 340 62 l 370 131 q 401 62 387 131 l 408 62 q 432 131 414 131 l 438 131 l 438 118 q 401 19 422 19 q 376 87 385 19 l 363 87 q 339 19 355 19 q 302 112 321 19 l 296 112 q 264 19 281 19 q 234 94 244 19 l 228 94 q 197 19 215 19 q 165 106 178 19 q 129 19 157 106 l 122 19 q 91 87 109 19 l 85 87 q 60 19 76 19 l 54 19 q 17 125 42 19 l 29 131 m 488 131 l 556 131 q 568 118 568 129 q 531 106 568 106 l 531 32 q 518 19 531 19 q 507 32 507 19 l 507 106 q 475 118 475 106 q 488 131 477 131 m 599 131 q 655 25 615 131 l 642 19 q 624 50 625 19 l 581 50 q 562 19 576 19 l 549 25 q 599 131 588 131 m 655 131 l 810 131 q 822 118 822 129 q 791 106 822 106 l 791 32 q 779 19 791 19 q 766 32 766 19 l 766 106 q 735 112 735 106 q 698 106 726 106 l 698 32 q 686 19 698 19 q 673 32 673 19 l 673 106 q 642 118 642 106 q 655 131 644 131 m 878 131 q 934 75 934 122 q 884 13 934 28 q 822 75 822 21 q 878 131 830 131 m 996 131 q 1045 81 1045 131 l 1045 50 q 989 13 1021 13 q 940 68 949 13 l 940 94 q 996 131 962 131 m 1063 131 q 1082 62 1082 106 l 1095 62 q 1120 131 1103 131 l 1126 131 q 1150 56 1139 131 l 1156 56 q 1181 131 1164 131 q 1194 118 1194 129 q 1156 19 1166 19 l 1150 19 q 1126 94 1136 19 l 1120 94 q 1088 19 1103 19 q 1051 125 1069 19 l 1063 131 m 1249 131 q 1305 62 1305 131 q 1249 13 1285 13 q 1194 87 1194 13 q 1249 131 1212 131 m 1367 131 q 1417 81 1417 131 l 1417 50 q 1361 13 1393 13 q 1311 68 1321 13 l 1311 81 q 1367 131 1311 131 m 1522 131 q 1565 94 1565 131 l 1553 87 q 1516 112 1532 112 q 1491 75 1491 106 l 1491 56 q 1510 38 1491 47 l 1528 38 q 1559 62 1556 62 l 1565 50 l 1565 44 q 1516 13 1548 13 q 1466 87 1466 13 q 1522 131 1485 131 m 1627 131 q 1683 75 1683 122 l 1683 68 q 1627 13 1675 13 q 1571 75 1571 27 q 1627 131 1584 131 m 1708 131 l 1714 131 q 1745 50 1728 131 l 1751 50 q 1788 131 1771 131 q 1801 118 1801 129 l 1801 32 q 1788 19 1801 19 q 1782 75 1782 23 l 1775 75 q 1751 19 1763 19 l 1745 19 q 1720 81 1731 19 l 1714 81 q 1702 19 1714 19 l 1695 32 l 1695 118 q 1708 131 1697 131 m 847 87 l 847 56 q 865 38 847 47 l 890 38 q 909 56 899 38 l 909 87 q 884 112 909 97 l 871 112 q 847 87 862 112 m 958 75 q 983 38 971 38 l 1008 38 q 1027 75 1027 44 q 989 112 1021 112 q 958 75 971 111 m 1219 75 l 1219 56 q 1237 38 1219 47 l 1261 38 q 1280 56 1271 38 l 1280 87 q 1255 112 1280 97 q 1219 75 1219 112 m 1330 68 q 1355 38 1342 40 l 1379 38 q 1398 75 1398 44 q 1361 112 1393 112 q 1330 68 1330 102 m 1596 87 l 1596 75 q 1615 38 1600 38 l 1640 38 q 1658 56 1649 38 l 1658 75 q 1627 112 1658 112 q 1596 87 1599 100 m 593 81 l 593 68 l 611 68 l 611 75 q 605 94 605 87 q 593 81 593 92 m 456 38 l 463 25 l 450 19 l 444 32 l 456 38 m 1441 38 q 1454 25 1454 36 l 1441 19 q 1429 32 1429 19 l 1441 38 z "},"*":{"ha":1843,"x_min":17,"x_max":1801,"o":"m 921 1158 q 1033 1065 977 1158 q 1082 991 1082 1031 l 1082 972 q 1051 917 1082 949 l 1051 873 q 1082 855 1082 869 q 1045 793 1045 849 l 1045 738 l 1033 738 l 1033 781 q 989 762 1010 762 l 977 762 q 958 781 968 762 q 964 787 958 787 q 958 831 958 812 l 946 824 l 946 837 q 1002 892 964 881 l 1039 880 l 1039 899 l 996 905 q 952 886 975 905 l 946 899 q 977 924 977 915 l 964 924 l 934 917 l 903 924 q 884 917 896 924 q 841 924 859 924 q 779 917 833 924 q 772 924 779 924 l 766 911 l 779 905 l 772 892 l 772 880 q 828 892 819 892 q 884 831 884 873 l 871 837 l 871 806 l 878 774 l 859 762 l 841 762 q 785 831 785 762 l 779 831 l 779 806 q 853 663 779 663 q 921 638 853 652 q 1027 725 1027 674 l 1039 725 q 1021 675 1039 713 q 1014 558 1014 577 q 1144 484 1144 532 q 1150 452 1150 473 l 1150 347 q 1156 218 1150 298 q 1132 186 1144 189 l 1126 186 l 1126 193 l 1138 211 l 1138 353 q 1114 359 1124 353 q 946 236 1114 236 l 946 248 q 1039 260 1025 260 l 1039 267 q 667 317 736 317 q 649 279 667 284 l 642 279 l 642 286 l 655 311 q 618 323 631 311 l 618 317 q 636 242 618 307 q 587 527 601 242 q 655 645 601 645 q 649 750 649 718 l 649 806 q 779 1134 649 1064 q 921 1158 818 1152 m 1008 924 l 1008 917 l 1039 911 l 1039 924 l 1008 924 m 859 917 q 890 892 888 905 l 890 886 l 884 886 l 853 905 q 785 899 798 899 l 785 911 q 859 917 795 911 m 748 855 l 748 831 q 760 843 760 831 q 748 855 760 855 m 785 855 l 791 824 l 797 824 l 797 855 l 785 855 m 1039 855 q 1033 818 1033 823 l 1033 812 l 1039 812 q 1045 849 1039 817 l 1045 855 l 1039 855 m 835 849 q 847 837 836 837 l 853 849 l 835 849 m 816 812 l 816 800 q 853 774 822 774 l 859 806 l 847 812 q 822 806 836 806 q 816 812 822 812 m 946 818 q 958 793 946 808 l 958 787 q 934 812 949 787 l 946 818 m 996 812 l 989 800 l 977 806 l 970 806 q 989 774 979 774 l 996 774 q 1014 793 1004 774 l 1014 806 q 996 812 1008 806 m 909 725 l 934 725 q 921 713 934 713 l 909 713 l 909 725 m 884 700 l 890 700 l 903 694 q 928 700 913 700 q 946 682 936 700 q 928 663 946 673 l 909 663 q 884 694 900 664 l 884 700 m 828 657 q 822 601 822 614 q 871 564 868 578 l 871 558 q 797 595 822 595 l 797 583 q 871 552 797 569 q 909 521 871 545 q 964 533 956 533 l 958 521 q 983 539 983 524 l 996 539 q 1063 521 1056 521 l 1063 533 q 996 545 1057 533 l 940 545 l 940 558 l 989 558 l 989 564 q 946 632 946 573 l 934 626 l 921 626 q 828 657 886 626 m 667 638 q 717 595 681 607 l 717 601 q 673 638 707 638 l 667 638 m 630 614 l 636 614 q 649 626 649 614 l 649 632 q 630 614 640 632 m 928 595 l 934 595 q 909 558 921 558 q 897 570 897 558 l 897 576 l 909 570 q 928 595 918 595 m 692 558 l 698 527 l 692 496 l 711 484 l 723 484 l 717 514 l 717 539 l 729 539 l 723 583 l 692 558 m 605 576 l 605 545 l 611 545 l 611 576 l 605 576 m 797 552 l 797 545 l 816 545 l 816 539 l 810 527 l 828 527 l 822 539 q 828 545 828 539 q 810 552 822 545 l 797 552 m 847 552 l 847 545 q 871 533 857 545 l 871 539 l 853 552 l 847 552 m 599 527 l 599 521 q 630 496 630 521 l 642 496 q 661 527 644 527 q 655 545 655 539 l 649 545 q 599 527 633 527 m 680 539 l 673 514 l 673 503 l 680 503 l 686 533 l 686 539 l 680 539 m 1002 514 l 996 503 q 1002 496 1002 503 q 996 490 996 496 l 1008 490 q 1039 508 1008 508 l 1039 514 l 1002 514 m 1088 521 l 1082 508 l 1082 465 q 1120 378 1105 378 l 1132 397 q 1120 410 1120 397 l 1132 410 q 1120 421 1132 421 l 1114 421 l 1120 410 l 1114 410 q 1101 421 1101 410 l 1120 446 q 1114 465 1114 458 l 1126 471 l 1138 465 l 1138 471 q 1088 521 1126 521 m 797 503 q 915 378 797 414 l 915 434 q 928 421 928 432 l 928 378 l 977 378 q 1045 446 1045 378 q 1051 503 1051 469 l 1045 503 q 952 446 979 446 l 952 452 l 940 446 l 921 459 q 909 446 921 446 q 890 465 909 456 l 871 452 q 847 477 847 469 l 835 471 l 828 484 q 835 490 835 484 q 816 503 816 490 q 822 508 822 503 l 810 508 l 797 503 m 642 490 l 636 477 l 636 471 l 642 471 q 655 484 655 471 l 642 490 m 605 484 l 605 428 q 636 440 621 440 l 636 459 l 630 471 l 618 465 l 611 465 l 611 484 l 605 484 m 958 484 l 958 477 q 970 465 960 465 l 970 471 q 958 484 970 484 m 655 465 l 649 452 l 667 452 q 655 465 667 465 m 624 428 q 605 410 624 410 q 618 397 607 397 l 636 421 l 624 428 m 704 428 l 704 410 q 723 404 711 410 l 723 428 l 704 428 m 680 404 l 680 397 q 704 385 689 397 l 704 391 q 698 410 698 403 q 680 404 686 404 m 1126 372 l 1126 366 q 1138 378 1138 366 l 1138 385 q 1126 372 1126 382 m 686 378 l 686 372 q 742 335 715 372 l 735 335 q 729 341 729 335 l 717 335 l 686 341 l 667 341 l 667 335 l 772 317 l 772 323 q 723 378 762 355 l 723 372 q 754 341 731 372 l 754 335 q 692 378 707 378 l 686 378 m 661 372 l 661 366 q 704 347 673 366 l 711 347 l 711 353 q 667 372 698 353 l 661 372 m 636 323 l 642 323 q 655 335 655 323 l 649 335 q 636 323 636 333 m 29 131 q 54 56 45 131 l 60 56 q 91 131 73 131 q 122 62 105 131 l 129 62 q 153 131 133 131 l 172 131 q 197 62 182 131 l 203 62 q 228 131 212 131 l 234 131 q 258 62 250 131 l 264 62 q 290 131 277 131 l 308 131 q 332 62 327 131 q 363 131 340 62 l 370 131 q 401 62 387 131 l 408 62 q 432 131 414 131 l 438 131 l 438 118 q 401 19 422 19 q 376 87 385 19 l 363 87 q 339 19 355 19 q 302 112 321 19 l 296 112 q 264 19 281 19 q 234 94 244 19 l 228 94 q 197 19 215 19 q 165 106 178 19 q 129 19 157 106 l 122 19 q 91 87 109 19 l 85 87 q 60 19 76 19 l 54 19 q 17 125 42 19 l 29 131 m 488 131 l 556 131 q 568 118 568 129 q 531 106 568 106 l 531 32 q 518 19 531 19 q 507 32 507 19 l 507 106 q 475 118 475 106 q 488 131 477 131 m 599 131 q 655 25 615 131 l 642 19 q 624 50 625 19 l 581 50 q 562 19 576 19 l 549 25 q 599 131 588 131 m 655 131 l 810 131 q 822 118 822 129 q 791 106 822 106 l 791 32 q 779 19 791 19 q 766 32 766 19 l 766 106 q 735 112 735 106 q 698 106 726 106 l 698 32 q 686 19 698 19 q 673 32 673 19 l 673 106 q 642 118 642 106 q 655 131 644 131 m 878 131 q 934 75 934 122 q 884 13 934 28 q 822 75 822 21 q 878 131 830 131 m 996 131 q 1045 81 1045 131 l 1045 50 q 989 13 1021 13 q 940 68 949 13 l 940 94 q 996 131 962 131 m 1063 131 q 1082 62 1082 106 l 1095 62 q 1120 131 1103 131 l 1126 131 q 1150 56 1139 131 l 1156 56 q 1181 131 1164 131 q 1194 118 1194 129 q 1156 19 1166 19 l 1150 19 q 1126 94 1136 19 l 1120 94 q 1088 19 1103 19 q 1051 125 1069 19 l 1063 131 m 1249 131 q 1305 62 1305 131 q 1249 13 1285 13 q 1194 87 1194 13 q 1249 131 1212 131 m 1367 131 q 1417 81 1417 131 l 1417 50 q 1361 13 1393 13 q 1311 68 1321 13 l 1311 81 q 1367 131 1311 131 m 1522 131 q 1565 94 1565 131 l 1553 87 q 1516 112 1532 112 q 1491 75 1491 106 l 1491 56 q 1510 38 1491 47 l 1528 38 q 1559 62 1556 62 l 1565 50 l 1565 44 q 1516 13 1548 13 q 1466 87 1466 13 q 1522 131 1485 131 m 1627 131 q 1683 75 1683 122 l 1683 68 q 1627 13 1675 13 q 1571 75 1571 27 q 1627 131 1584 131 m 1708 131 l 1714 131 q 1745 50 1728 131 l 1751 50 q 1788 131 1771 131 q 1801 118 1801 129 l 1801 32 q 1788 19 1801 19 q 1782 75 1782 23 l 1775 75 q 1751 19 1763 19 l 1745 19 q 1720 81 1731 19 l 1714 81 q 1702 19 1714 19 l 1695 32 l 1695 118 q 1708 131 1697 131 m 847 87 l 847 56 q 865 38 847 47 l 890 38 q 909 56 899 38 l 909 87 q 884 112 909 97 l 871 112 q 847 87 862 112 m 958 75 q 983 38 971 38 l 1008 38 q 1027 75 1027 44 q 989 112 1021 112 q 958 75 971 111 m 1219 75 l 1219 56 q 1237 38 1219 47 l 1261 38 q 1280 56 1271 38 l 1280 87 q 1255 112 1280 97 q 1219 75 1219 112 m 1330 68 q 1355 38 1342 40 l 1379 38 q 1398 75 1398 44 q 1361 112 1393 112 q 1330 68 1330 102 m 1596 87 l 1596 75 q 1615 38 1600 38 l 1640 38 q 1658 56 1649 38 l 1658 75 q 1627 112 1658 112 q 1596 87 1599 100 m 593 81 l 593 68 l 611 68 l 611 75 q 605 94 605 87 q 593 81 593 92 m 456 38 l 463 25 l 450 19 l 444 32 l 456 38 m 1441 38 q 1454 25 1454 36 l 1441 19 q 1429 32 1429 19 l 1441 38 z "},"+":{"ha":1843,"x_min":17,"x_max":1801,"o":"m 921 1158 q 1033 1065 977 1158 q 1082 991 1082 1031 l 1082 972 q 1051 917 1082 949 l 1051 873 q 1082 855 1082 869 q 1045 793 1045 849 l 1045 738 l 1033 738 l 1033 781 q 989 762 1010 762 l 977 762 q 958 781 968 762 q 964 787 958 787 q 958 831 958 812 l 946 824 l 946 837 q 1002 892 964 881 l 1039 880 l 1039 899 l 996 905 q 952 886 975 905 l 946 899 q 977 924 977 915 l 964 924 l 934 917 l 903 924 q 884 917 896 924 q 841 924 859 924 q 779 917 833 924 q 772 924 779 924 l 766 911 l 779 905 l 772 892 l 772 880 q 828 892 819 892 q 884 831 884 873 l 871 837 l 871 806 l 878 774 l 859 762 l 841 762 q 785 831 785 762 l 779 831 l 779 806 q 853 663 779 663 q 921 638 853 652 q 1027 725 1027 674 l 1039 725 q 1021 675 1039 713 q 1014 558 1014 577 q 1144 484 1144 532 q 1150 452 1150 473 l 1150 347 q 1156 218 1150 298 q 1132 186 1144 189 l 1126 186 l 1126 193 l 1138 211 l 1138 353 q 1114 359 1124 353 q 946 236 1114 236 l 946 248 q 1039 260 1025 260 l 1039 267 q 667 317 736 317 q 649 279 667 284 l 642 279 l 642 286 l 655 311 q 618 323 631 311 l 618 317 q 636 242 618 307 q 587 527 601 242 q 655 645 601 645 q 649 750 649 718 l 649 806 q 779 1134 649 1064 q 921 1158 818 1152 m 1008 924 l 1008 917 l 1039 911 l 1039 924 l 1008 924 m 859 917 q 890 892 888 905 l 890 886 l 884 886 l 853 905 q 785 899 798 899 l 785 911 q 859 917 795 911 m 748 855 l 748 831 q 760 843 760 831 q 748 855 760 855 m 785 855 l 791 824 l 797 824 l 797 855 l 785 855 m 1039 855 q 1033 818 1033 823 l 1033 812 l 1039 812 q 1045 849 1039 817 l 1045 855 l 1039 855 m 835 849 q 847 837 836 837 l 853 849 l 835 849 m 816 812 l 816 800 q 853 774 822 774 l 859 806 l 847 812 q 822 806 836 806 q 816 812 822 812 m 946 818 q 958 793 946 808 l 958 787 q 934 812 949 787 l 946 818 m 996 812 l 989 800 l 977 806 l 970 806 q 989 774 979 774 l 996 774 q 1014 793 1004 774 l 1014 806 q 996 812 1008 806 m 909 725 l 934 725 q 921 713 934 713 l 909 713 l 909 725 m 884 700 l 890 700 l 903 694 q 928 700 913 700 q 946 682 936 700 q 928 663 946 673 l 909 663 q 884 694 900 664 l 884 700 m 828 657 q 822 601 822 614 q 871 564 868 578 l 871 558 q 797 595 822 595 l 797 583 q 871 552 797 569 q 909 521 871 545 q 964 533 956 533 l 958 521 q 983 539 983 524 l 996 539 q 1063 521 1056 521 l 1063 533 q 996 545 1057 533 l 940 545 l 940 558 l 989 558 l 989 564 q 946 632 946 573 l 934 626 l 921 626 q 828 657 886 626 m 667 638 q 717 595 681 607 l 717 601 q 673 638 707 638 l 667 638 m 630 614 l 636 614 q 649 626 649 614 l 649 632 q 630 614 640 632 m 928 595 l 934 595 q 909 558 921 558 q 897 570 897 558 l 897 576 l 909 570 q 928 595 918 595 m 692 558 l 698 527 l 692 496 l 711 484 l 723 484 l 717 514 l 717 539 l 729 539 l 723 583 l 692 558 m 605 576 l 605 545 l 611 545 l 611 576 l 605 576 m 797 552 l 797 545 l 816 545 l 816 539 l 810 527 l 828 527 l 822 539 q 828 545 828 539 q 810 552 822 545 l 797 552 m 847 552 l 847 545 q 871 533 857 545 l 871 539 l 853 552 l 847 552 m 599 527 l 599 521 q 630 496 630 521 l 642 496 q 661 527 644 527 q 655 545 655 539 l 649 545 q 599 527 633 527 m 680 539 l 673 514 l 673 503 l 680 503 l 686 533 l 686 539 l 680 539 m 1002 514 l 996 503 q 1002 496 1002 503 q 996 490 996 496 l 1008 490 q 1039 508 1008 508 l 1039 514 l 1002 514 m 1088 521 l 1082 508 l 1082 465 q 1120 378 1105 378 l 1132 397 q 1120 410 1120 397 l 1132 410 q 1120 421 1132 421 l 1114 421 l 1120 410 l 1114 410 q 1101 421 1101 410 l 1120 446 q 1114 465 1114 458 l 1126 471 l 1138 465 l 1138 471 q 1088 521 1126 521 m 797 503 q 915 378 797 414 l 915 434 q 928 421 928 432 l 928 378 l 977 378 q 1045 446 1045 378 q 1051 503 1051 469 l 1045 503 q 952 446 979 446 l 952 452 l 940 446 l 921 459 q 909 446 921 446 q 890 465 909 456 l 871 452 q 847 477 847 469 l 835 471 l 828 484 q 835 490 835 484 q 816 503 816 490 q 822 508 822 503 l 810 508 l 797 503 m 642 490 l 636 477 l 636 471 l 642 471 q 655 484 655 471 l 642 490 m 605 484 l 605 428 q 636 440 621 440 l 636 459 l 630 471 l 618 465 l 611 465 l 611 484 l 605 484 m 958 484 l 958 477 q 970 465 960 465 l 970 471 q 958 484 970 484 m 655 465 l 649 452 l 667 452 q 655 465 667 465 m 624 428 q 605 410 624 410 q 618 397 607 397 l 636 421 l 624 428 m 704 428 l 704 410 q 723 404 711 410 l 723 428 l 704 428 m 680 404 l 680 397 q 704 385 689 397 l 704 391 q 698 410 698 403 q 680 404 686 404 m 1126 372 l 1126 366 q 1138 378 1138 366 l 1138 385 q 1126 372 1126 382 m 686 378 l 686 372 q 742 335 715 372 l 735 335 q 729 341 729 335 l 717 335 l 686 341 l 667 341 l 667 335 l 772 317 l 772 323 q 723 378 762 355 l 723 372 q 754 341 731 372 l 754 335 q 692 378 707 378 l 686 378 m 661 372 l 661 366 q 704 347 673 366 l 711 347 l 711 353 q 667 372 698 353 l 661 372 m 636 323 l 642 323 q 655 335 655 323 l 649 335 q 636 323 636 333 m 29 131 q 54 56 45 131 l 60 56 q 91 131 73 131 q 122 62 105 131 l 129 62 q 153 131 133 131 l 172 131 q 197 62 182 131 l 203 62 q 228 131 212 131 l 234 131 q 258 62 250 131 l 264 62 q 290 131 277 131 l 308 131 q 332 62 327 131 q 363 131 340 62 l 370 131 q 401 62 387 131 l 408 62 q 432 131 414 131 l 438 131 l 438 118 q 401 19 422 19 q 376 87 385 19 l 363 87 q 339 19 355 19 q 302 112 321 19 l 296 112 q 264 19 281 19 q 234 94 244 19 l 228 94 q 197 19 215 19 q 165 106 178 19 q 129 19 157 106 l 122 19 q 91 87 109 19 l 85 87 q 60 19 76 19 l 54 19 q 17 125 42 19 l 29 131 m 488 131 l 556 131 q 568 118 568 129 q 531 106 568 106 l 531 32 q 518 19 531 19 q 507 32 507 19 l 507 106 q 475 118 475 106 q 488 131 477 131 m 599 131 q 655 25 615 131 l 642 19 q 624 50 625 19 l 581 50 q 562 19 576 19 l 549 25 q 599 131 588 131 m 655 131 l 810 131 q 822 118 822 129 q 791 106 822 106 l 791 32 q 779 19 791 19 q 766 32 766 19 l 766 106 q 735 112 735 106 q 698 106 726 106 l 698 32 q 686 19 698 19 q 673 32 673 19 l 673 106 q 642 118 642 106 q 655 131 644 131 m 878 131 q 934 75 934 122 q 884 13 934 28 q 822 75 822 21 q 878 131 830 131 m 996 131 q 1045 81 1045 131 l 1045 50 q 989 13 1021 13 q 940 68 949 13 l 940 94 q 996 131 962 131 m 1063 131 q 1082 62 1082 106 l 1095 62 q 1120 131 1103 131 l 1126 131 q 1150 56 1139 131 l 1156 56 q 1181 131 1164 131 q 1194 118 1194 129 q 1156 19 1166 19 l 1150 19 q 1126 94 1136 19 l 1120 94 q 1088 19 1103 19 q 1051 125 1069 19 l 1063 131 m 1249 131 q 1305 62 1305 131 q 1249 13 1285 13 q 1194 87 1194 13 q 1249 131 1212 131 m 1367 131 q 1417 81 1417 131 l 1417 50 q 1361 13 1393 13 q 1311 68 1321 13 l 1311 81 q 1367 131 1311 131 m 1522 131 q 1565 94 1565 131 l 1553 87 q 1516 112 1532 112 q 1491 75 1491 106 l 1491 56 q 1510 38 1491 47 l 1528 38 q 1559 62 1556 62 l 1565 50 l 1565 44 q 1516 13 1548 13 q 1466 87 1466 13 q 1522 131 1485 131 m 1627 131 q 1683 75 1683 122 l 1683 68 q 1627 13 1675 13 q 1571 75 1571 27 q 1627 131 1584 131 m 1708 131 l 1714 131 q 1745 50 1728 131 l 1751 50 q 1788 131 1771 131 q 1801 118 1801 129 l 1801 32 q 1788 19 1801 19 q 1782 75 1782 23 l 1775 75 q 1751 19 1763 19 l 1745 19 q 1720 81 1731 19 l 1714 81 q 1702 19 1714 19 l 1695 32 l 1695 118 q 1708 131 1697 131 m 847 87 l 847 56 q 865 38 847 47 l 890 38 q 909 56 899 38 l 909 87 q 884 112 909 97 l 871 112 q 847 87 862 112 m 958 75 q 983 38 971 38 l 1008 38 q 1027 75 1027 44 q 989 112 1021 112 q 958 75 971 111 m 1219 75 l 1219 56 q 1237 38 1219 47 l 1261 38 q 1280 56 1271 38 l 1280 87 q 1255 112 1280 97 q 1219 75 1219 112 m 1330 68 q 1355 38 1342 40 l 1379 38 q 1398 75 1398 44 q 1361 112 1393 112 q 1330 68 1330 102 m 1596 87 l 1596 75 q 1615 38 1600 38 l 1640 38 q 1658 56 1649 38 l 1658 75 q 1627 112 1658 112 q 1596 87 1599 100 m 593 81 l 593 68 l 611 68 l 611 75 q 605 94 605 87 q 593 81 593 92 m 456 38 l 463 25 l 450 19 l 444 32 l 456 38 m 1441 38 q 1454 25 1454 36 l 1441 19 q 1429 32 1429 19 l 1441 38 z "},",":{"ha":1843,"x_min":17,"x_max":1801,"o":"m 921 1158 q 1033 1065 977 1158 q 1082 991 1082 1031 l 1082 972 q 1051 917 1082 949 l 1051 873 q 1082 855 1082 869 q 1045 793 1045 849 l 1045 738 l 1033 738 l 1033 781 q 989 762 1010 762 l 977 762 q 958 781 968 762 q 964 787 958 787 q 958 831 958 812 l 946 824 l 946 837 q 1002 892 964 881 l 1039 880 l 1039 899 l 996 905 q 952 886 975 905 l 946 899 q 977 924 977 915 l 964 924 l 934 917 l 903 924 q 884 917 896 924 q 841 924 859 924 q 779 917 833 924 q 772 924 779 924 l 766 911 l 779 905 l 772 892 l 772 880 q 828 892 819 892 q 884 831 884 873 l 871 837 l 871 806 l 878 774 l 859 762 l 841 762 q 785 831 785 762 l 779 831 l 779 806 q 853 663 779 663 q 921 638 853 652 q 1027 725 1027 674 l 1039 725 q 1021 675 1039 713 q 1014 558 1014 577 q 1144 484 1144 532 q 1150 452 1150 473 l 1150 347 q 1156 218 1150 298 q 1132 186 1144 189 l 1126 186 l 1126 193 l 1138 211 l 1138 353 q 1114 359 1124 353 q 946 236 1114 236 l 946 248 q 1039 260 1025 260 l 1039 267 q 667 317 736 317 q 649 279 667 284 l 642 279 l 642 286 l 655 311 q 618 323 631 311 l 618 317 q 636 242 618 307 q 587 527 601 242 q 655 645 601 645 q 649 750 649 718 l 649 806 q 779 1134 649 1064 q 921 1158 818 1152 m 1008 924 l 1008 917 l 1039 911 l 1039 924 l 1008 924 m 859 917 q 890 892 888 905 l 890 886 l 884 886 l 853 905 q 785 899 798 899 l 785 911 q 859 917 795 911 m 748 855 l 748 831 q 760 843 760 831 q 748 855 760 855 m 785 855 l 791 824 l 797 824 l 797 855 l 785 855 m 1039 855 q 1033 818 1033 823 l 1033 812 l 1039 812 q 1045 849 1039 817 l 1045 855 l 1039 855 m 835 849 q 847 837 836 837 l 853 849 l 835 849 m 816 812 l 816 800 q 853 774 822 774 l 859 806 l 847 812 q 822 806 836 806 q 816 812 822 812 m 946 818 q 958 793 946 808 l 958 787 q 934 812 949 787 l 946 818 m 996 812 l 989 800 l 977 806 l 970 806 q 989 774 979 774 l 996 774 q 1014 793 1004 774 l 1014 806 q 996 812 1008 806 m 909 725 l 934 725 q 921 713 934 713 l 909 713 l 909 725 m 884 700 l 890 700 l 903 694 q 928 700 913 700 q 946 682 936 700 q 928 663 946 673 l 909 663 q 884 694 900 664 l 884 700 m 828 657 q 822 601 822 614 q 871 564 868 578 l 871 558 q 797 595 822 595 l 797 583 q 871 552 797 569 q 909 521 871 545 q 964 533 956 533 l 958 521 q 983 539 983 524 l 996 539 q 1063 521 1056 521 l 1063 533 q 996 545 1057 533 l 940 545 l 940 558 l 989 558 l 989 564 q 946 632 946 573 l 934 626 l 921 626 q 828 657 886 626 m 667 638 q 717 595 681 607 l 717 601 q 673 638 707 638 l 667 638 m 630 614 l 636 614 q 649 626 649 614 l 649 632 q 630 614 640 632 m 928 595 l 934 595 q 909 558 921 558 q 897 570 897 558 l 897 576 l 909 570 q 928 595 918 595 m 692 558 l 698 527 l 692 496 l 711 484 l 723 484 l 717 514 l 717 539 l 729 539 l 723 583 l 692 558 m 605 576 l 605 545 l 611 545 l 611 576 l 605 576 m 797 552 l 797 545 l 816 545 l 816 539 l 810 527 l 828 527 l 822 539 q 828 545 828 539 q 810 552 822 545 l 797 552 m 847 552 l 847 545 q 871 533 857 545 l 871 539 l 853 552 l 847 552 m 599 527 l 599 521 q 630 496 630 521 l 642 496 q 661 527 644 527 q 655 545 655 539 l 649 545 q 599 527 633 527 m 680 539 l 673 514 l 673 503 l 680 503 l 686 533 l 686 539 l 680 539 m 1002 514 l 996 503 q 1002 496 1002 503 q 996 490 996 496 l 1008 490 q 1039 508 1008 508 l 1039 514 l 1002 514 m 1088 521 l 1082 508 l 1082 465 q 1120 378 1105 378 l 1132 397 q 1120 410 1120 397 l 1132 410 q 1120 421 1132 421 l 1114 421 l 1120 410 l 1114 410 q 1101 421 1101 410 l 1120 446 q 1114 465 1114 458 l 1126 471 l 1138 465 l 1138 471 q 1088 521 1126 521 m 797 503 q 915 378 797 414 l 915 434 q 928 421 928 432 l 928 378 l 977 378 q 1045 446 1045 378 q 1051 503 1051 469 l 1045 503 q 952 446 979 446 l 952 452 l 940 446 l 921 459 q 909 446 921 446 q 890 465 909 456 l 871 452 q 847 477 847 469 l 835 471 l 828 484 q 835 490 835 484 q 816 503 816 490 q 822 508 822 503 l 810 508 l 797 503 m 642 490 l 636 477 l 636 471 l 642 471 q 655 484 655 471 l 642 490 m 605 484 l 605 428 q 636 440 621 440 l 636 459 l 630 471 l 618 465 l 611 465 l 611 484 l 605 484 m 958 484 l 958 477 q 970 465 960 465 l 970 471 q 958 484 970 484 m 655 465 l 649 452 l 667 452 q 655 465 667 465 m 624 428 q 605 410 624 410 q 618 397 607 397 l 636 421 l 624 428 m 704 428 l 704 410 q 723 404 711 410 l 723 428 l 704 428 m 680 404 l 680 397 q 704 385 689 397 l 704 391 q 698 410 698 403 q 680 404 686 404 m 1126 372 l 1126 366 q 1138 378 1138 366 l 1138 385 q 1126 372 1126 382 m 686 378 l 686 372 q 742 335 715 372 l 735 335 q 729 341 729 335 l 717 335 l 686 341 l 667 341 l 667 335 l 772 317 l 772 323 q 723 378 762 355 l 723 372 q 754 341 731 372 l 754 335 q 692 378 707 378 l 686 378 m 661 372 l 661 366 q 704 347 673 366 l 711 347 l 711 353 q 667 372 698 353 l 661 372 m 636 323 l 642 323 q 655 335 655 323 l 649 335 q 636 323 636 333 m 29 131 q 54 56 45 131 l 60 56 q 91 131 73 131 q 122 62 105 131 l 129 62 q 153 131 133 131 l 172 131 q 197 62 182 131 l 203 62 q 228 131 212 131 l 234 131 q 258 62 250 131 l 264 62 q 290 131 277 131 l 308 131 q 332 62 327 131 q 363 131 340 62 l 370 131 q 401 62 387 131 l 408 62 q 432 131 414 131 l 438 131 l 438 118 q 401 19 422 19 q 376 87 385 19 l 363 87 q 339 19 355 19 q 302 112 321 19 l 296 112 q 264 19 281 19 q 234 94 244 19 l 228 94 q 197 19 215 19 q 165 106 178 19 q 129 19 157 106 l 122 19 q 91 87 109 19 l 85 87 q 60 19 76 19 l 54 19 q 17 125 42 19 l 29 131 m 488 131 l 556 131 q 568 118 568 129 q 531 106 568 106 l 531 32 q 518 19 531 19 q 507 32 507 19 l 507 106 q 475 118 475 106 q 488 131 477 131 m 599 131 q 655 25 615 131 l 642 19 q 624 50 625 19 l 581 50 q 562 19 576 19 l 549 25 q 599 131 588 131 m 655 131 l 810 131 q 822 118 822 129 q 791 106 822 106 l 791 32 q 779 19 791 19 q 766 32 766 19 l 766 106 q 735 112 735 106 q 698 106 726 106 l 698 32 q 686 19 698 19 q 673 32 673 19 l 673 106 q 642 118 642 106 q 655 131 644 131 m 878 131 q 934 75 934 122 q 884 13 934 28 q 822 75 822 21 q 878 131 830 131 m 996 131 q 1045 81 1045 131 l 1045 50 q 989 13 1021 13 q 940 68 949 13 l 940 94 q 996 131 962 131 m 1063 131 q 1082 62 1082 106 l 1095 62 q 1120 131 1103 131 l 1126 131 q 1150 56 1139 131 l 1156 56 q 1181 131 1164 131 q 1194 118 1194 129 q 1156 19 1166 19 l 1150 19 q 1126 94 1136 19 l 1120 94 q 1088 19 1103 19 q 1051 125 1069 19 l 1063 131 m 1249 131 q 1305 62 1305 131 q 1249 13 1285 13 q 1194 87 1194 13 q 1249 131 1212 131 m 1367 131 q 1417 81 1417 131 l 1417 50 q 1361 13 1393 13 q 1311 68 1321 13 l 1311 81 q 1367 131 1311 131 m 1522 131 q 1565 94 1565 131 l 1553 87 q 1516 112 1532 112 q 1491 75 1491 106 l 1491 56 q 1510 38 1491 47 l 1528 38 q 1559 62 1556 62 l 1565 50 l 1565 44 q 1516 13 1548 13 q 1466 87 1466 13 q 1522 131 1485 131 m 1627 131 q 1683 75 1683 122 l 1683 68 q 1627 13 1675 13 q 1571 75 1571 27 q 1627 131 1584 131 m 1708 131 l 1714 131 q 1745 50 1728 131 l 1751 50 q 1788 131 1771 131 q 1801 118 1801 129 l 1801 32 q 1788 19 1801 19 q 1782 75 1782 23 l 1775 75 q 1751 19 1763 19 l 1745 19 q 1720 81 1731 19 l 1714 81 q 1702 19 1714 19 l 1695 32 l 1695 118 q 1708 131 1697 131 m 847 87 l 847 56 q 865 38 847 47 l 890 38 q 909 56 899 38 l 909 87 q 884 112 909 97 l 871 112 q 847 87 862 112 m 958 75 q 983 38 971 38 l 1008 38 q 1027 75 1027 44 q 989 112 1021 112 q 958 75 971 111 m 1219 75 l 1219 56 q 1237 38 1219 47 l 1261 38 q 1280 56 1271 38 l 1280 87 q 1255 112 1280 97 q 1219 75 1219 112 m 1330 68 q 1355 38 1342 40 l 1379 38 q 1398 75 1398 44 q 1361 112 1393 112 q 1330 68 1330 102 m 1596 87 l 1596 75 q 1615 38 1600 38 l 1640 38 q 1658 56 1649 38 l 1658 75 q 1627 112 1658 112 q 1596 87 1599 100 m 593 81 l 593 68 l 611 68 l 611 75 q 605 94 605 87 q 593 81 593 92 m 456 38 l 463 25 l 450 19 l 444 32 l 456 38 m 1441 38 q 1454 25 1454 36 l 1441 19 q 1429 32 1429 19 l 1441 38 z "},"-":{"ha":1843,"x_min":17,"x_max":1801,"o":"m 921 1158 q 1033 1065 977 1158 q 1082 991 1082 1031 l 1082 972 q 1051 917 1082 949 l 1051 873 q 1082 855 1082 869 q 1045 793 1045 849 l 1045 738 l 1033 738 l 1033 781 q 989 762 1010 762 l 977 762 q 958 781 968 762 q 964 787 958 787 q 958 831 958 812 l 946 824 l 946 837 q 1002 892 964 881 l 1039 880 l 1039 899 l 996 905 q 952 886 975 905 l 946 899 q 977 924 977 915 l 964 924 l 934 917 l 903 924 q 884 917 896 924 q 841 924 859 924 q 779 917 833 924 q 772 924 779 924 l 766 911 l 779 905 l 772 892 l 772 880 q 828 892 819 892 q 884 831 884 873 l 871 837 l 871 806 l 878 774 l 859 762 l 841 762 q 785 831 785 762 l 779 831 l 779 806 q 853 663 779 663 q 921 638 853 652 q 1027 725 1027 674 l 1039 725 q 1021 675 1039 713 q 1014 558 1014 577 q 1144 484 1144 532 q 1150 452 1150 473 l 1150 347 q 1156 218 1150 298 q 1132 186 1144 189 l 1126 186 l 1126 193 l 1138 211 l 1138 353 q 1114 359 1124 353 q 946 236 1114 236 l 946 248 q 1039 260 1025 260 l 1039 267 q 667 317 736 317 q 649 279 667 284 l 642 279 l 642 286 l 655 311 q 618 323 631 311 l 618 317 q 636 242 618 307 q 587 527 601 242 q 655 645 601 645 q 649 750 649 718 l 649 806 q 779 1134 649 1064 q 921 1158 818 1152 m 1008 924 l 1008 917 l 1039 911 l 1039 924 l 1008 924 m 859 917 q 890 892 888 905 l 890 886 l 884 886 l 853 905 q 785 899 798 899 l 785 911 q 859 917 795 911 m 748 855 l 748 831 q 760 843 760 831 q 748 855 760 855 m 785 855 l 791 824 l 797 824 l 797 855 l 785 855 m 1039 855 q 1033 818 1033 823 l 1033 812 l 1039 812 q 1045 849 1039 817 l 1045 855 l 1039 855 m 835 849 q 847 837 836 837 l 853 849 l 835 849 m 816 812 l 816 800 q 853 774 822 774 l 859 806 l 847 812 q 822 806 836 806 q 816 812 822 812 m 946 818 q 958 793 946 808 l 958 787 q 934 812 949 787 l 946 818 m 996 812 l 989 800 l 977 806 l 970 806 q 989 774 979 774 l 996 774 q 1014 793 1004 774 l 1014 806 q 996 812 1008 806 m 909 725 l 934 725 q 921 713 934 713 l 909 713 l 909 725 m 884 700 l 890 700 l 903 694 q 928 700 913 700 q 946 682 936 700 q 928 663 946 673 l 909 663 q 884 694 900 664 l 884 700 m 828 657 q 822 601 822 614 q 871 564 868 578 l 871 558 q 797 595 822 595 l 797 583 q 871 552 797 569 q 909 521 871 545 q 964 533 956 533 l 958 521 q 983 539 983 524 l 996 539 q 1063 521 1056 521 l 1063 533 q 996 545 1057 533 l 940 545 l 940 558 l 989 558 l 989 564 q 946 632 946 573 l 934 626 l 921 626 q 828 657 886 626 m 667 638 q 717 595 681 607 l 717 601 q 673 638 707 638 l 667 638 m 630 614 l 636 614 q 649 626 649 614 l 649 632 q 630 614 640 632 m 928 595 l 934 595 q 909 558 921 558 q 897 570 897 558 l 897 576 l 909 570 q 928 595 918 595 m 692 558 l 698 527 l 692 496 l 711 484 l 723 484 l 717 514 l 717 539 l 729 539 l 723 583 l 692 558 m 605 576 l 605 545 l 611 545 l 611 576 l 605 576 m 797 552 l 797 545 l 816 545 l 816 539 l 810 527 l 828 527 l 822 539 q 828 545 828 539 q 810 552 822 545 l 797 552 m 847 552 l 847 545 q 871 533 857 545 l 871 539 l 853 552 l 847 552 m 599 527 l 599 521 q 630 496 630 521 l 642 496 q 661 527 644 527 q 655 545 655 539 l 649 545 q 599 527 633 527 m 680 539 l 673 514 l 673 503 l 680 503 l 686 533 l 686 539 l 680 539 m 1002 514 l 996 503 q 1002 496 1002 503 q 996 490 996 496 l 1008 490 q 1039 508 1008 508 l 1039 514 l 1002 514 m 1088 521 l 1082 508 l 1082 465 q 1120 378 1105 378 l 1132 397 q 1120 410 1120 397 l 1132 410 q 1120 421 1132 421 l 1114 421 l 1120 410 l 1114 410 q 1101 421 1101 410 l 1120 446 q 1114 465 1114 458 l 1126 471 l 1138 465 l 1138 471 q 1088 521 1126 521 m 797 503 q 915 378 797 414 l 915 434 q 928 421 928 432 l 928 378 l 977 378 q 1045 446 1045 378 q 1051 503 1051 469 l 1045 503 q 952 446 979 446 l 952 452 l 940 446 l 921 459 q 909 446 921 446 q 890 465 909 456 l 871 452 q 847 477 847 469 l 835 471 l 828 484 q 835 490 835 484 q 816 503 816 490 q 822 508 822 503 l 810 508 l 797 503 m 642 490 l 636 477 l 636 471 l 642 471 q 655 484 655 471 l 642 490 m 605 484 l 605 428 q 636 440 621 440 l 636 459 l 630 471 l 618 465 l 611 465 l 611 484 l 605 484 m 958 484 l 958 477 q 970 465 960 465 l 970 471 q 958 484 970 484 m 655 465 l 649 452 l 667 452 q 655 465 667 465 m 624 428 q 605 410 624 410 q 618 397 607 397 l 636 421 l 624 428 m 704 428 l 704 410 q 723 404 711 410 l 723 428 l 704 428 m 680 404 l 680 397 q 704 385 689 397 l 704 391 q 698 410 698 403 q 680 404 686 404 m 1126 372 l 1126 366 q 1138 378 1138 366 l 1138 385 q 1126 372 1126 382 m 686 378 l 686 372 q 742 335 715 372 l 735 335 q 729 341 729 335 l 717 335 l 686 341 l 667 341 l 667 335 l 772 317 l 772 323 q 723 378 762 355 l 723 372 q 754 341 731 372 l 754 335 q 692 378 707 378 l 686 378 m 661 372 l 661 366 q 704 347 673 366 l 711 347 l 711 353 q 667 372 698 353 l 661 372 m 636 323 l 642 323 q 655 335 655 323 l 649 335 q 636 323 636 333 m 29 131 q 54 56 45 131 l 60 56 q 91 131 73 131 q 122 62 105 131 l 129 62 q 153 131 133 131 l 172 131 q 197 62 182 131 l 203 62 q 228 131 212 131 l 234 131 q 258 62 250 131 l 264 62 q 290 131 277 131 l 308 131 q 332 62 327 131 q 363 131 340 62 l 370 131 q 401 62 387 131 l 408 62 q 432 131 414 131 l 438 131 l 438 118 q 401 19 422 19 q 376 87 385 19 l 363 87 q 339 19 355 19 q 302 112 321 19 l 296 112 q 264 19 281 19 q 234 94 244 19 l 228 94 q 197 19 215 19 q 165 106 178 19 q 129 19 157 106 l 122 19 q 91 87 109 19 l 85 87 q 60 19 76 19 l 54 19 q 17 125 42 19 l 29 131 m 488 131 l 556 131 q 568 118 568 129 q 531 106 568 106 l 531 32 q 518 19 531 19 q 507 32 507 19 l 507 106 q 475 118 475 106 q 488 131 477 131 m 599 131 q 655 25 615 131 l 642 19 q 624 50 625 19 l 581 50 q 562 19 576 19 l 549 25 q 599 131 588 131 m 655 131 l 810 131 q 822 118 822 129 q 791 106 822 106 l 791 32 q 779 19 791 19 q 766 32 766 19 l 766 106 q 735 112 735 106 q 698 106 726 106 l 698 32 q 686 19 698 19 q 673 32 673 19 l 673 106 q 642 118 642 106 q 655 131 644 131 m 878 131 q 934 75 934 122 q 884 13 934 28 q 822 75 822 21 q 878 131 830 131 m 996 131 q 1045 81 1045 131 l 1045 50 q 989 13 1021 13 q 940 68 949 13 l 940 94 q 996 131 962 131 m 1063 131 q 1082 62 1082 106 l 1095 62 q 1120 131 1103 131 l 1126 131 q 1150 56 1139 131 l 1156 56 q 1181 131 1164 131 q 1194 118 1194 129 q 1156 19 1166 19 l 1150 19 q 1126 94 1136 19 l 1120 94 q 1088 19 1103 19 q 1051 125 1069 19 l 1063 131 m 1249 131 q 1305 62 1305 131 q 1249 13 1285 13 q 1194 87 1194 13 q 1249 131 1212 131 m 1367 131 q 1417 81 1417 131 l 1417 50 q 1361 13 1393 13 q 1311 68 1321 13 l 1311 81 q 1367 131 1311 131 m 1522 131 q 1565 94 1565 131 l 1553 87 q 1516 112 1532 112 q 1491 75 1491 106 l 1491 56 q 1510 38 1491 47 l 1528 38 q 1559 62 1556 62 l 1565 50 l 1565 44 q 1516 13 1548 13 q 1466 87 1466 13 q 1522 131 1485 131 m 1627 131 q 1683 75 1683 122 l 1683 68 q 1627 13 1675 13 q 1571 75 1571 27 q 1627 131 1584 131 m 1708 131 l 1714 131 q 1745 50 1728 131 l 1751 50 q 1788 131 1771 131 q 1801 118 1801 129 l 1801 32 q 1788 19 1801 19 q 1782 75 1782 23 l 1775 75 q 1751 19 1763 19 l 1745 19 q 1720 81 1731 19 l 1714 81 q 1702 19 1714 19 l 1695 32 l 1695 118 q 1708 131 1697 131 m 847 87 l 847 56 q 865 38 847 47 l 890 38 q 909 56 899 38 l 909 87 q 884 112 909 97 l 871 112 q 847 87 862 112 m 958 75 q 983 38 971 38 l 1008 38 q 1027 75 1027 44 q 989 112 1021 112 q 958 75 971 111 m 1219 75 l 1219 56 q 1237 38 1219 47 l 1261 38 q 1280 56 1271 38 l 1280 87 q 1255 112 1280 97 q 1219 75 1219 112 m 1330 68 q 1355 38 1342 40 l 1379 38 q 1398 75 1398 44 q 1361 112 1393 112 q 1330 68 1330 102 m 1596 87 l 1596 75 q 1615 38 1600 38 l 1640 38 q 1658 56 1649 38 l 1658 75 q 1627 112 1658 112 q 1596 87 1599 100 m 593 81 l 593 68 l 611 68 l 611 75 q 605 94 605 87 q 593 81 593 92 m 456 38 l 463 25 l 450 19 l 444 32 l 456 38 m 1441 38 q 1454 25 1454 36 l 1441 19 q 1429 32 1429 19 l 1441 38 z "},"­":{"ha":1843,"x_min":17,"x_max":1801,"o":"m 921 1158 q 1033 1065 977 1158 q 1082 991 1082 1031 l 1082 972 q 1051 917 1082 949 l 1051 873 q 1082 855 1082 869 q 1045 793 1045 849 l 1045 738 l 1033 738 l 1033 781 q 989 762 1010 762 l 977 762 q 958 781 968 762 q 964 787 958 787 q 958 831 958 812 l 946 824 l 946 837 q 1002 892 964 881 l 1039 880 l 1039 899 l 996 905 q 952 886 975 905 l 946 899 q 977 924 977 915 l 964 924 l 934 917 l 903 924 q 884 917 896 924 q 841 924 859 924 q 779 917 833 924 q 772 924 779 924 l 766 911 l 779 905 l 772 892 l 772 880 q 828 892 819 892 q 884 831 884 873 l 871 837 l 871 806 l 878 774 l 859 762 l 841 762 q 785 831 785 762 l 779 831 l 779 806 q 853 663 779 663 q 921 638 853 652 q 1027 725 1027 674 l 1039 725 q 1021 675 1039 713 q 1014 558 1014 577 q 1144 484 1144 532 q 1150 452 1150 473 l 1150 347 q 1156 218 1150 298 q 1132 186 1144 189 l 1126 186 l 1126 193 l 1138 211 l 1138 353 q 1114 359 1124 353 q 946 236 1114 236 l 946 248 q 1039 260 1025 260 l 1039 267 q 667 317 736 317 q 649 279 667 284 l 642 279 l 642 286 l 655 311 q 618 323 631 311 l 618 317 q 636 242 618 307 q 587 527 601 242 q 655 645 601 645 q 649 750 649 718 l 649 806 q 779 1134 649 1064 q 921 1158 818 1152 m 1008 924 l 1008 917 l 1039 911 l 1039 924 l 1008 924 m 859 917 q 890 892 888 905 l 890 886 l 884 886 l 853 905 q 785 899 798 899 l 785 911 q 859 917 795 911 m 748 855 l 748 831 q 760 843 760 831 q 748 855 760 855 m 785 855 l 791 824 l 797 824 l 797 855 l 785 855 m 1039 855 q 1033 818 1033 823 l 1033 812 l 1039 812 q 1045 849 1039 817 l 1045 855 l 1039 855 m 835 849 q 847 837 836 837 l 853 849 l 835 849 m 816 812 l 816 800 q 853 774 822 774 l 859 806 l 847 812 q 822 806 836 806 q 816 812 822 812 m 946 818 q 958 793 946 808 l 958 787 q 934 812 949 787 l 946 818 m 996 812 l 989 800 l 977 806 l 970 806 q 989 774 979 774 l 996 774 q 1014 793 1004 774 l 1014 806 q 996 812 1008 806 m 909 725 l 934 725 q 921 713 934 713 l 909 713 l 909 725 m 884 700 l 890 700 l 903 694 q 928 700 913 700 q 946 682 936 700 q 928 663 946 673 l 909 663 q 884 694 900 664 l 884 700 m 828 657 q 822 601 822 614 q 871 564 868 578 l 871 558 q 797 595 822 595 l 797 583 q 871 552 797 569 q 909 521 871 545 q 964 533 956 533 l 958 521 q 983 539 983 524 l 996 539 q 1063 521 1056 521 l 1063 533 q 996 545 1057 533 l 940 545 l 940 558 l 989 558 l 989 564 q 946 632 946 573 l 934 626 l 921 626 q 828 657 886 626 m 667 638 q 717 595 681 607 l 717 601 q 673 638 707 638 l 667 638 m 630 614 l 636 614 q 649 626 649 614 l 649 632 q 630 614 640 632 m 928 595 l 934 595 q 909 558 921 558 q 897 570 897 558 l 897 576 l 909 570 q 928 595 918 595 m 692 558 l 698 527 l 692 496 l 711 484 l 723 484 l 717 514 l 717 539 l 729 539 l 723 583 l 692 558 m 605 576 l 605 545 l 611 545 l 611 576 l 605 576 m 797 552 l 797 545 l 816 545 l 816 539 l 810 527 l 828 527 l 822 539 q 828 545 828 539 q 810 552 822 545 l 797 552 m 847 552 l 847 545 q 871 533 857 545 l 871 539 l 853 552 l 847 552 m 599 527 l 599 521 q 630 496 630 521 l 642 496 q 661 527 644 527 q 655 545 655 539 l 649 545 q 599 527 633 527 m 680 539 l 673 514 l 673 503 l 680 503 l 686 533 l 686 539 l 680 539 m 1002 514 l 996 503 q 1002 496 1002 503 q 996 490 996 496 l 1008 490 q 1039 508 1008 508 l 1039 514 l 1002 514 m 1088 521 l 1082 508 l 1082 465 q 1120 378 1105 378 l 1132 397 q 1120 410 1120 397 l 1132 410 q 1120 421 1132 421 l 1114 421 l 1120 410 l 1114 410 q 1101 421 1101 410 l 1120 446 q 1114 465 1114 458 l 1126 471 l 1138 465 l 1138 471 q 1088 521 1126 521 m 797 503 q 915 378 797 414 l 915 434 q 928 421 928 432 l 928 378 l 977 378 q 1045 446 1045 378 q 1051 503 1051 469 l 1045 503 q 952 446 979 446 l 952 452 l 940 446 l 921 459 q 909 446 921 446 q 890 465 909 456 l 871 452 q 847 477 847 469 l 835 471 l 828 484 q 835 490 835 484 q 816 503 816 490 q 822 508 822 503 l 810 508 l 797 503 m 642 490 l 636 477 l 636 471 l 642 471 q 655 484 655 471 l 642 490 m 605 484 l 605 428 q 636 440 621 440 l 636 459 l 630 471 l 618 465 l 611 465 l 611 484 l 605 484 m 958 484 l 958 477 q 970 465 960 465 l 970 471 q 958 484 970 484 m 655 465 l 649 452 l 667 452 q 655 465 667 465 m 624 428 q 605 410 624 410 q 618 397 607 397 l 636 421 l 624 428 m 704 428 l 704 410 q 723 404 711 410 l 723 428 l 704 428 m 680 404 l 680 397 q 704 385 689 397 l 704 391 q 698 410 698 403 q 680 404 686 404 m 1126 372 l 1126 366 q 1138 378 1138 366 l 1138 385 q 1126 372 1126 382 m 686 378 l 686 372 q 742 335 715 372 l 735 335 q 729 341 729 335 l 717 335 l 686 341 l 667 341 l 667 335 l 772 317 l 772 323 q 723 378 762 355 l 723 372 q 754 341 731 372 l 754 335 q 692 378 707 378 l 686 378 m 661 372 l 661 366 q 704 347 673 366 l 711 347 l 711 353 q 667 372 698 353 l 661 372 m 636 323 l 642 323 q 655 335 655 323 l 649 335 q 636 323 636 333 m 29 131 q 54 56 45 131 l 60 56 q 91 131 73 131 q 122 62 105 131 l 129 62 q 153 131 133 131 l 172 131 q 197 62 182 131 l 203 62 q 228 131 212 131 l 234 131 q 258 62 250 131 l 264 62 q 290 131 277 131 l 308 131 q 332 62 327 131 q 363 131 340 62 l 370 131 q 401 62 387 131 l 408 62 q 432 131 414 131 l 438 131 l 438 118 q 401 19 422 19 q 376 87 385 19 l 363 87 q 339 19 355 19 q 302 112 321 19 l 296 112 q 264 19 281 19 q 234 94 244 19 l 228 94 q 197 19 215 19 q 165 106 178 19 q 129 19 157 106 l 122 19 q 91 87 109 19 l 85 87 q 60 19 76 19 l 54 19 q 17 125 42 19 l 29 131 m 488 131 l 556 131 q 568 118 568 129 q 531 106 568 106 l 531 32 q 518 19 531 19 q 507 32 507 19 l 507 106 q 475 118 475 106 q 488 131 477 131 m 599 131 q 655 25 615 131 l 642 19 q 624 50 625 19 l 581 50 q 562 19 576 19 l 549 25 q 599 131 588 131 m 655 131 l 810 131 q 822 118 822 129 q 791 106 822 106 l 791 32 q 779 19 791 19 q 766 32 766 19 l 766 106 q 735 112 735 106 q 698 106 726 106 l 698 32 q 686 19 698 19 q 673 32 673 19 l 673 106 q 642 118 642 106 q 655 131 644 131 m 878 131 q 934 75 934 122 q 884 13 934 28 q 822 75 822 21 q 878 131 830 131 m 996 131 q 1045 81 1045 131 l 1045 50 q 989 13 1021 13 q 940 68 949 13 l 940 94 q 996 131 962 131 m 1063 131 q 1082 62 1082 106 l 1095 62 q 1120 131 1103 131 l 1126 131 q 1150 56 1139 131 l 1156 56 q 1181 131 1164 131 q 1194 118 1194 129 q 1156 19 1166 19 l 1150 19 q 1126 94 1136 19 l 1120 94 q 1088 19 1103 19 q 1051 125 1069 19 l 1063 131 m 1249 131 q 1305 62 1305 131 q 1249 13 1285 13 q 1194 87 1194 13 q 1249 131 1212 131 m 1367 131 q 1417 81 1417 131 l 1417 50 q 1361 13 1393 13 q 1311 68 1321 13 l 1311 81 q 1367 131 1311 131 m 1522 131 q 1565 94 1565 131 l 1553 87 q 1516 112 1532 112 q 1491 75 1491 106 l 1491 56 q 1510 38 1491 47 l 1528 38 q 1559 62 1556 62 l 1565 50 l 1565 44 q 1516 13 1548 13 q 1466 87 1466 13 q 1522 131 1485 131 m 1627 131 q 1683 75 1683 122 l 1683 68 q 1627 13 1675 13 q 1571 75 1571 27 q 1627 131 1584 131 m 1708 131 l 1714 131 q 1745 50 1728 131 l 1751 50 q 1788 131 1771 131 q 1801 118 1801 129 l 1801 32 q 1788 19 1801 19 q 1782 75 1782 23 l 1775 75 q 1751 19 1763 19 l 1745 19 q 1720 81 1731 19 l 1714 81 q 1702 19 1714 19 l 1695 32 l 1695 118 q 1708 131 1697 131 m 847 87 l 847 56 q 865 38 847 47 l 890 38 q 909 56 899 38 l 909 87 q 884 112 909 97 l 871 112 q 847 87 862 112 m 958 75 q 983 38 971 38 l 1008 38 q 1027 75 1027 44 q 989 112 1021 112 q 958 75 971 111 m 1219 75 l 1219 56 q 1237 38 1219 47 l 1261 38 q 1280 56 1271 38 l 1280 87 q 1255 112 1280 97 q 1219 75 1219 112 m 1330 68 q 1355 38 1342 40 l 1379 38 q 1398 75 1398 44 q 1361 112 1393 112 q 1330 68 1330 102 m 1596 87 l 1596 75 q 1615 38 1600 38 l 1640 38 q 1658 56 1649 38 l 1658 75 q 1627 112 1658 112 q 1596 87 1599 100 m 593 81 l 593 68 l 611 68 l 611 75 q 605 94 605 87 q 593 81 593 92 m 456 38 l 463 25 l 450 19 l 444 32 l 456 38 m 1441 38 q 1454 25 1454 36 l 1441 19 q 1429 32 1429 19 l 1441 38 z "},".":{"ha":378,"x_min":89,"x_max":302,"o":"m 224 456 l 236 456 q 240 451 240 455 l 205 425 l 207 420 l 218 422 q 302 342 302 412 l 302 329 q 276 267 302 298 q 256 253 262 253 l 254 258 q 258 289 258 275 l 258 304 q 254 309 258 309 q 158 264 214 264 q 89 347 89 282 q 178 447 89 403 q 224 456 205 456 z "},"/":{"ha":1843,"x_min":17,"x_max":1801,"o":"m 921 1158 q 1033 1065 977 1158 q 1082 991 1082 1031 l 1082 972 q 1051 917 1082 949 l 1051 873 q 1082 855 1082 869 q 1045 793 1045 849 l 1045 738 l 1033 738 l 1033 781 q 989 762 1010 762 l 977 762 q 958 781 968 762 q 964 787 958 787 q 958 831 958 812 l 946 824 l 946 837 q 1002 892 964 881 l 1039 880 l 1039 899 l 996 905 q 952 886 975 905 l 946 899 q 977 924 977 915 l 964 924 l 934 917 l 903 924 q 884 917 896 924 q 841 924 859 924 q 779 917 833 924 q 772 924 779 924 l 766 911 l 779 905 l 772 892 l 772 880 q 828 892 819 892 q 884 831 884 873 l 871 837 l 871 806 l 878 774 l 859 762 l 841 762 q 785 831 785 762 l 779 831 l 779 806 q 853 663 779 663 q 921 638 853 652 q 1027 725 1027 674 l 1039 725 q 1021 675 1039 713 q 1014 558 1014 577 q 1144 484 1144 532 q 1150 452 1150 473 l 1150 347 q 1156 218 1150 298 q 1132 186 1144 189 l 1126 186 l 1126 193 l 1138 211 l 1138 353 q 1114 359 1124 353 q 946 236 1114 236 l 946 248 q 1039 260 1025 260 l 1039 267 q 667 317 736 317 q 649 279 667 284 l 642 279 l 642 286 l 655 311 q 618 323 631 311 l 618 317 q 636 242 618 307 q 587 527 601 242 q 655 645 601 645 q 649 750 649 718 l 649 806 q 779 1134 649 1064 q 921 1158 818 1152 m 1008 924 l 1008 917 l 1039 911 l 1039 924 l 1008 924 m 859 917 q 890 892 888 905 l 890 886 l 884 886 l 853 905 q 785 899 798 899 l 785 911 q 859 917 795 911 m 748 855 l 748 831 q 760 843 760 831 q 748 855 760 855 m 785 855 l 791 824 l 797 824 l 797 855 l 785 855 m 1039 855 q 1033 818 1033 823 l 1033 812 l 1039 812 q 1045 849 1039 817 l 1045 855 l 1039 855 m 835 849 q 847 837 836 837 l 853 849 l 835 849 m 816 812 l 816 800 q 853 774 822 774 l 859 806 l 847 812 q 822 806 836 806 q 816 812 822 812 m 946 818 q 958 793 946 808 l 958 787 q 934 812 949 787 l 946 818 m 996 812 l 989 800 l 977 806 l 970 806 q 989 774 979 774 l 996 774 q 1014 793 1004 774 l 1014 806 q 996 812 1008 806 m 909 725 l 934 725 q 921 713 934 713 l 909 713 l 909 725 m 884 700 l 890 700 l 903 694 q 928 700 913 700 q 946 682 936 700 q 928 663 946 673 l 909 663 q 884 694 900 664 l 884 700 m 828 657 q 822 601 822 614 q 871 564 868 578 l 871 558 q 797 595 822 595 l 797 583 q 871 552 797 569 q 909 521 871 545 q 964 533 956 533 l 958 521 q 983 539 983 524 l 996 539 q 1063 521 1056 521 l 1063 533 q 996 545 1057 533 l 940 545 l 940 558 l 989 558 l 989 564 q 946 632 946 573 l 934 626 l 921 626 q 828 657 886 626 m 667 638 q 717 595 681 607 l 717 601 q 673 638 707 638 l 667 638 m 630 614 l 636 614 q 649 626 649 614 l 649 632 q 630 614 640 632 m 928 595 l 934 595 q 909 558 921 558 q 897 570 897 558 l 897 576 l 909 570 q 928 595 918 595 m 692 558 l 698 527 l 692 496 l 711 484 l 723 484 l 717 514 l 717 539 l 729 539 l 723 583 l 692 558 m 605 576 l 605 545 l 611 545 l 611 576 l 605 576 m 797 552 l 797 545 l 816 545 l 816 539 l 810 527 l 828 527 l 822 539 q 828 545 828 539 q 810 552 822 545 l 797 552 m 847 552 l 847 545 q 871 533 857 545 l 871 539 l 853 552 l 847 552 m 599 527 l 599 521 q 630 496 630 521 l 642 496 q 661 527 644 527 q 655 545 655 539 l 649 545 q 599 527 633 527 m 680 539 l 673 514 l 673 503 l 680 503 l 686 533 l 686 539 l 680 539 m 1002 514 l 996 503 q 1002 496 1002 503 q 996 490 996 496 l 1008 490 q 1039 508 1008 508 l 1039 514 l 1002 514 m 1088 521 l 1082 508 l 1082 465 q 1120 378 1105 378 l 1132 397 q 1120 410 1120 397 l 1132 410 q 1120 421 1132 421 l 1114 421 l 1120 410 l 1114 410 q 1101 421 1101 410 l 1120 446 q 1114 465 1114 458 l 1126 471 l 1138 465 l 1138 471 q 1088 521 1126 521 m 797 503 q 915 378 797 414 l 915 434 q 928 421 928 432 l 928 378 l 977 378 q 1045 446 1045 378 q 1051 503 1051 469 l 1045 503 q 952 446 979 446 l 952 452 l 940 446 l 921 459 q 909 446 921 446 q 890 465 909 456 l 871 452 q 847 477 847 469 l 835 471 l 828 484 q 835 490 835 484 q 816 503 816 490 q 822 508 822 503 l 810 508 l 797 503 m 642 490 l 636 477 l 636 471 l 642 471 q 655 484 655 471 l 642 490 m 605 484 l 605 428 q 636 440 621 440 l 636 459 l 630 471 l 618 465 l 611 465 l 611 484 l 605 484 m 958 484 l 958 477 q 970 465 960 465 l 970 471 q 958 484 970 484 m 655 465 l 649 452 l 667 452 q 655 465 667 465 m 624 428 q 605 410 624 410 q 618 397 607 397 l 636 421 l 624 428 m 704 428 l 704 410 q 723 404 711 410 l 723 428 l 704 428 m 680 404 l 680 397 q 704 385 689 397 l 704 391 q 698 410 698 403 q 680 404 686 404 m 1126 372 l 1126 366 q 1138 378 1138 366 l 1138 385 q 1126 372 1126 382 m 686 378 l 686 372 q 742 335 715 372 l 735 335 q 729 341 729 335 l 717 335 l 686 341 l 667 341 l 667 335 l 772 317 l 772 323 q 723 378 762 355 l 723 372 q 754 341 731 372 l 754 335 q 692 378 707 378 l 686 378 m 661 372 l 661 366 q 704 347 673 366 l 711 347 l 711 353 q 667 372 698 353 l 661 372 m 636 323 l 642 323 q 655 335 655 323 l 649 335 q 636 323 636 333 m 29 131 q 54 56 45 131 l 60 56 q 91 131 73 131 q 122 62 105 131 l 129 62 q 153 131 133 131 l 172 131 q 197 62 182 131 l 203 62 q 228 131 212 131 l 234 131 q 258 62 250 131 l 264 62 q 290 131 277 131 l 308 131 q 332 62 327 131 q 363 131 340 62 l 370 131 q 401 62 387 131 l 408 62 q 432 131 414 131 l 438 131 l 438 118 q 401 19 422 19 q 376 87 385 19 l 363 87 q 339 19 355 19 q 302 112 321 19 l 296 112 q 264 19 281 19 q 234 94 244 19 l 228 94 q 197 19 215 19 q 165 106 178 19 q 129 19 157 106 l 122 19 q 91 87 109 19 l 85 87 q 60 19 76 19 l 54 19 q 17 125 42 19 l 29 131 m 488 131 l 556 131 q 568 118 568 129 q 531 106 568 106 l 531 32 q 518 19 531 19 q 507 32 507 19 l 507 106 q 475 118 475 106 q 488 131 477 131 m 599 131 q 655 25 615 131 l 642 19 q 624 50 625 19 l 581 50 q 562 19 576 19 l 549 25 q 599 131 588 131 m 655 131 l 810 131 q 822 118 822 129 q 791 106 822 106 l 791 32 q 779 19 791 19 q 766 32 766 19 l 766 106 q 735 112 735 106 q 698 106 726 106 l 698 32 q 686 19 698 19 q 673 32 673 19 l 673 106 q 642 118 642 106 q 655 131 644 131 m 878 131 q 934 75 934 122 q 884 13 934 28 q 822 75 822 21 q 878 131 830 131 m 996 131 q 1045 81 1045 131 l 1045 50 q 989 13 1021 13 q 940 68 949 13 l 940 94 q 996 131 962 131 m 1063 131 q 1082 62 1082 106 l 1095 62 q 1120 131 1103 131 l 1126 131 q 1150 56 1139 131 l 1156 56 q 1181 131 1164 131 q 1194 118 1194 129 q 1156 19 1166 19 l 1150 19 q 1126 94 1136 19 l 1120 94 q 1088 19 1103 19 q 1051 125 1069 19 l 1063 131 m 1249 131 q 1305 62 1305 131 q 1249 13 1285 13 q 1194 87 1194 13 q 1249 131 1212 131 m 1367 131 q 1417 81 1417 131 l 1417 50 q 1361 13 1393 13 q 1311 68 1321 13 l 1311 81 q 1367 131 1311 131 m 1522 131 q 1565 94 1565 131 l 1553 87 q 1516 112 1532 112 q 1491 75 1491 106 l 1491 56 q 1510 38 1491 47 l 1528 38 q 1559 62 1556 62 l 1565 50 l 1565 44 q 1516 13 1548 13 q 1466 87 1466 13 q 1522 131 1485 131 m 1627 131 q 1683 75 1683 122 l 1683 68 q 1627 13 1675 13 q 1571 75 1571 27 q 1627 131 1584 131 m 1708 131 l 1714 131 q 1745 50 1728 131 l 1751 50 q 1788 131 1771 131 q 1801 118 1801 129 l 1801 32 q 1788 19 1801 19 q 1782 75 1782 23 l 1775 75 q 1751 19 1763 19 l 1745 19 q 1720 81 1731 19 l 1714 81 q 1702 19 1714 19 l 1695 32 l 1695 118 q 1708 131 1697 131 m 847 87 l 847 56 q 865 38 847 47 l 890 38 q 909 56 899 38 l 909 87 q 884 112 909 97 l 871 112 q 847 87 862 112 m 958 75 q 983 38 971 38 l 1008 38 q 1027 75 1027 44 q 989 112 1021 112 q 958 75 971 111 m 1219 75 l 1219 56 q 1237 38 1219 47 l 1261 38 q 1280 56 1271 38 l 1280 87 q 1255 112 1280 97 q 1219 75 1219 112 m 1330 68 q 1355 38 1342 40 l 1379 38 q 1398 75 1398 44 q 1361 112 1393 112 q 1330 68 1330 102 m 1596 87 l 1596 75 q 1615 38 1600 38 l 1640 38 q 1658 56 1649 38 l 1658 75 q 1627 112 1658 112 q 1596 87 1599 100 m 593 81 l 593 68 l 611 68 l 611 75 q 605 94 605 87 q 593 81 593 92 m 456 38 l 463 25 l 450 19 l 444 32 l 456 38 m 1441 38 q 1454 25 1454 36 l 1441 19 q 1429 32 1429 19 l 1441 38 z "},":":{"ha":1843,"x_min":17,"x_max":1801,"o":"m 921 1158 q 1033 1065 977 1158 q 1082 991 1082 1031 l 1082 972 q 1051 917 1082 949 l 1051 873 q 1082 855 1082 869 q 1045 793 1045 849 l 1045 738 l 1033 738 l 1033 781 q 989 762 1010 762 l 977 762 q 958 781 968 762 q 964 787 958 787 q 958 831 958 812 l 946 824 l 946 837 q 1002 892 964 881 l 1039 880 l 1039 899 l 996 905 q 952 886 975 905 l 946 899 q 977 924 977 915 l 964 924 l 934 917 l 903 924 q 884 917 896 924 q 841 924 859 924 q 779 917 833 924 q 772 924 779 924 l 766 911 l 779 905 l 772 892 l 772 880 q 828 892 819 892 q 884 831 884 873 l 871 837 l 871 806 l 878 774 l 859 762 l 841 762 q 785 831 785 762 l 779 831 l 779 806 q 853 663 779 663 q 921 638 853 652 q 1027 725 1027 674 l 1039 725 q 1021 675 1039 713 q 1014 558 1014 577 q 1144 484 1144 532 q 1150 452 1150 473 l 1150 347 q 1156 218 1150 298 q 1132 186 1144 189 l 1126 186 l 1126 193 l 1138 211 l 1138 353 q 1114 359 1124 353 q 946 236 1114 236 l 946 248 q 1039 260 1025 260 l 1039 267 q 667 317 736 317 q 649 279 667 284 l 642 279 l 642 286 l 655 311 q 618 323 631 311 l 618 317 q 636 242 618 307 q 587 527 601 242 q 655 645 601 645 q 649 750 649 718 l 649 806 q 779 1134 649 1064 q 921 1158 818 1152 m 1008 924 l 1008 917 l 1039 911 l 1039 924 l 1008 924 m 859 917 q 890 892 888 905 l 890 886 l 884 886 l 853 905 q 785 899 798 899 l 785 911 q 859 917 795 911 m 748 855 l 748 831 q 760 843 760 831 q 748 855 760 855 m 785 855 l 791 824 l 797 824 l 797 855 l 785 855 m 1039 855 q 1033 818 1033 823 l 1033 812 l 1039 812 q 1045 849 1039 817 l 1045 855 l 1039 855 m 835 849 q 847 837 836 837 l 853 849 l 835 849 m 816 812 l 816 800 q 853 774 822 774 l 859 806 l 847 812 q 822 806 836 806 q 816 812 822 812 m 946 818 q 958 793 946 808 l 958 787 q 934 812 949 787 l 946 818 m 996 812 l 989 800 l 977 806 l 970 806 q 989 774 979 774 l 996 774 q 1014 793 1004 774 l 1014 806 q 996 812 1008 806 m 909 725 l 934 725 q 921 713 934 713 l 909 713 l 909 725 m 884 700 l 890 700 l 903 694 q 928 700 913 700 q 946 682 936 700 q 928 663 946 673 l 909 663 q 884 694 900 664 l 884 700 m 828 657 q 822 601 822 614 q 871 564 868 578 l 871 558 q 797 595 822 595 l 797 583 q 871 552 797 569 q 909 521 871 545 q 964 533 956 533 l 958 521 q 983 539 983 524 l 996 539 q 1063 521 1056 521 l 1063 533 q 996 545 1057 533 l 940 545 l 940 558 l 989 558 l 989 564 q 946 632 946 573 l 934 626 l 921 626 q 828 657 886 626 m 667 638 q 717 595 681 607 l 717 601 q 673 638 707 638 l 667 638 m 630 614 l 636 614 q 649 626 649 614 l 649 632 q 630 614 640 632 m 928 595 l 934 595 q 909 558 921 558 q 897 570 897 558 l 897 576 l 909 570 q 928 595 918 595 m 692 558 l 698 527 l 692 496 l 711 484 l 723 484 l 717 514 l 717 539 l 729 539 l 723 583 l 692 558 m 605 576 l 605 545 l 611 545 l 611 576 l 605 576 m 797 552 l 797 545 l 816 545 l 816 539 l 810 527 l 828 527 l 822 539 q 828 545 828 539 q 810 552 822 545 l 797 552 m 847 552 l 847 545 q 871 533 857 545 l 871 539 l 853 552 l 847 552 m 599 527 l 599 521 q 630 496 630 521 l 642 496 q 661 527 644 527 q 655 545 655 539 l 649 545 q 599 527 633 527 m 680 539 l 673 514 l 673 503 l 680 503 l 686 533 l 686 539 l 680 539 m 1002 514 l 996 503 q 1002 496 1002 503 q 996 490 996 496 l 1008 490 q 1039 508 1008 508 l 1039 514 l 1002 514 m 1088 521 l 1082 508 l 1082 465 q 1120 378 1105 378 l 1132 397 q 1120 410 1120 397 l 1132 410 q 1120 421 1132 421 l 1114 421 l 1120 410 l 1114 410 q 1101 421 1101 410 l 1120 446 q 1114 465 1114 458 l 1126 471 l 1138 465 l 1138 471 q 1088 521 1126 521 m 797 503 q 915 378 797 414 l 915 434 q 928 421 928 432 l 928 378 l 977 378 q 1045 446 1045 378 q 1051 503 1051 469 l 1045 503 q 952 446 979 446 l 952 452 l 940 446 l 921 459 q 909 446 921 446 q 890 465 909 456 l 871 452 q 847 477 847 469 l 835 471 l 828 484 q 835 490 835 484 q 816 503 816 490 q 822 508 822 503 l 810 508 l 797 503 m 642 490 l 636 477 l 636 471 l 642 471 q 655 484 655 471 l 642 490 m 605 484 l 605 428 q 636 440 621 440 l 636 459 l 630 471 l 618 465 l 611 465 l 611 484 l 605 484 m 958 484 l 958 477 q 970 465 960 465 l 970 471 q 958 484 970 484 m 655 465 l 649 452 l 667 452 q 655 465 667 465 m 624 428 q 605 410 624 410 q 618 397 607 397 l 636 421 l 624 428 m 704 428 l 704 410 q 723 404 711 410 l 723 428 l 704 428 m 680 404 l 680 397 q 704 385 689 397 l 704 391 q 698 410 698 403 q 680 404 686 404 m 1126 372 l 1126 366 q 1138 378 1138 366 l 1138 385 q 1126 372 1126 382 m 686 378 l 686 372 q 742 335 715 372 l 735 335 q 729 341 729 335 l 717 335 l 686 341 l 667 341 l 667 335 l 772 317 l 772 323 q 723 378 762 355 l 723 372 q 754 341 731 372 l 754 335 q 692 378 707 378 l 686 378 m 661 372 l 661 366 q 704 347 673 366 l 711 347 l 711 353 q 667 372 698 353 l 661 372 m 636 323 l 642 323 q 655 335 655 323 l 649 335 q 636 323 636 333 m 29 131 q 54 56 45 131 l 60 56 q 91 131 73 131 q 122 62 105 131 l 129 62 q 153 131 133 131 l 172 131 q 197 62 182 131 l 203 62 q 228 131 212 131 l 234 131 q 258 62 250 131 l 264 62 q 290 131 277 131 l 308 131 q 332 62 327 131 q 363 131 340 62 l 370 131 q 401 62 387 131 l 408 62 q 432 131 414 131 l 438 131 l 438 118 q 401 19 422 19 q 376 87 385 19 l 363 87 q 339 19 355 19 q 302 112 321 19 l 296 112 q 264 19 281 19 q 234 94 244 19 l 228 94 q 197 19 215 19 q 165 106 178 19 q 129 19 157 106 l 122 19 q 91 87 109 19 l 85 87 q 60 19 76 19 l 54 19 q 17 125 42 19 l 29 131 m 488 131 l 556 131 q 568 118 568 129 q 531 106 568 106 l 531 32 q 518 19 531 19 q 507 32 507 19 l 507 106 q 475 118 475 106 q 488 131 477 131 m 599 131 q 655 25 615 131 l 642 19 q 624 50 625 19 l 581 50 q 562 19 576 19 l 549 25 q 599 131 588 131 m 655 131 l 810 131 q 822 118 822 129 q 791 106 822 106 l 791 32 q 779 19 791 19 q 766 32 766 19 l 766 106 q 735 112 735 106 q 698 106 726 106 l 698 32 q 686 19 698 19 q 673 32 673 19 l 673 106 q 642 118 642 106 q 655 131 644 131 m 878 131 q 934 75 934 122 q 884 13 934 28 q 822 75 822 21 q 878 131 830 131 m 996 131 q 1045 81 1045 131 l 1045 50 q 989 13 1021 13 q 940 68 949 13 l 940 94 q 996 131 962 131 m 1063 131 q 1082 62 1082 106 l 1095 62 q 1120 131 1103 131 l 1126 131 q 1150 56 1139 131 l 1156 56 q 1181 131 1164 131 q 1194 118 1194 129 q 1156 19 1166 19 l 1150 19 q 1126 94 1136 19 l 1120 94 q 1088 19 1103 19 q 1051 125 1069 19 l 1063 131 m 1249 131 q 1305 62 1305 131 q 1249 13 1285 13 q 1194 87 1194 13 q 1249 131 1212 131 m 1367 131 q 1417 81 1417 131 l 1417 50 q 1361 13 1393 13 q 1311 68 1321 13 l 1311 81 q 1367 131 1311 131 m 1522 131 q 1565 94 1565 131 l 1553 87 q 1516 112 1532 112 q 1491 75 1491 106 l 1491 56 q 1510 38 1491 47 l 1528 38 q 1559 62 1556 62 l 1565 50 l 1565 44 q 1516 13 1548 13 q 1466 87 1466 13 q 1522 131 1485 131 m 1627 131 q 1683 75 1683 122 l 1683 68 q 1627 13 1675 13 q 1571 75 1571 27 q 1627 131 1584 131 m 1708 131 l 1714 131 q 1745 50 1728 131 l 1751 50 q 1788 131 1771 131 q 1801 118 1801 129 l 1801 32 q 1788 19 1801 19 q 1782 75 1782 23 l 1775 75 q 1751 19 1763 19 l 1745 19 q 1720 81 1731 19 l 1714 81 q 1702 19 1714 19 l 1695 32 l 1695 118 q 1708 131 1697 131 m 847 87 l 847 56 q 865 38 847 47 l 890 38 q 909 56 899 38 l 909 87 q 884 112 909 97 l 871 112 q 847 87 862 112 m 958 75 q 983 38 971 38 l 1008 38 q 1027 75 1027 44 q 989 112 1021 112 q 958 75 971 111 m 1219 75 l 1219 56 q 1237 38 1219 47 l 1261 38 q 1280 56 1271 38 l 1280 87 q 1255 112 1280 97 q 1219 75 1219 112 m 1330 68 q 1355 38 1342 40 l 1379 38 q 1398 75 1398 44 q 1361 112 1393 112 q 1330 68 1330 102 m 1596 87 l 1596 75 q 1615 38 1600 38 l 1640 38 q 1658 56 1649 38 l 1658 75 q 1627 112 1658 112 q 1596 87 1599 100 m 593 81 l 593 68 l 611 68 l 611 75 q 605 94 605 87 q 593 81 593 92 m 456 38 l 463 25 l 450 19 l 444 32 l 456 38 m 1441 38 q 1454 25 1454 36 l 1441 19 q 1429 32 1429 19 l 1441 38 z "},";":{"ha":1843,"x_min":17,"x_max":1801,"o":"m 921 1158 q 1033 1065 977 1158 q 1082 991 1082 1031 l 1082 972 q 1051 917 1082 949 l 1051 873 q 1082 855 1082 869 q 1045 793 1045 849 l 1045 738 l 1033 738 l 1033 781 q 989 762 1010 762 l 977 762 q 958 781 968 762 q 964 787 958 787 q 958 831 958 812 l 946 824 l 946 837 q 1002 892 964 881 l 1039 880 l 1039 899 l 996 905 q 952 886 975 905 l 946 899 q 977 924 977 915 l 964 924 l 934 917 l 903 924 q 884 917 896 924 q 841 924 859 924 q 779 917 833 924 q 772 924 779 924 l 766 911 l 779 905 l 772 892 l 772 880 q 828 892 819 892 q 884 831 884 873 l 871 837 l 871 806 l 878 774 l 859 762 l 841 762 q 785 831 785 762 l 779 831 l 779 806 q 853 663 779 663 q 921 638 853 652 q 1027 725 1027 674 l 1039 725 q 1021 675 1039 713 q 1014 558 1014 577 q 1144 484 1144 532 q 1150 452 1150 473 l 1150 347 q 1156 218 1150 298 q 1132 186 1144 189 l 1126 186 l 1126 193 l 1138 211 l 1138 353 q 1114 359 1124 353 q 946 236 1114 236 l 946 248 q 1039 260 1025 260 l 1039 267 q 667 317 736 317 q 649 279 667 284 l 642 279 l 642 286 l 655 311 q 618 323 631 311 l 618 317 q 636 242 618 307 q 587 527 601 242 q 655 645 601 645 q 649 750 649 718 l 649 806 q 779 1134 649 1064 q 921 1158 818 1152 m 1008 924 l 1008 917 l 1039 911 l 1039 924 l 1008 924 m 859 917 q 890 892 888 905 l 890 886 l 884 886 l 853 905 q 785 899 798 899 l 785 911 q 859 917 795 911 m 748 855 l 748 831 q 760 843 760 831 q 748 855 760 855 m 785 855 l 791 824 l 797 824 l 797 855 l 785 855 m 1039 855 q 1033 818 1033 823 l 1033 812 l 1039 812 q 1045 849 1039 817 l 1045 855 l 1039 855 m 835 849 q 847 837 836 837 l 853 849 l 835 849 m 816 812 l 816 800 q 853 774 822 774 l 859 806 l 847 812 q 822 806 836 806 q 816 812 822 812 m 946 818 q 958 793 946 808 l 958 787 q 934 812 949 787 l 946 818 m 996 812 l 989 800 l 977 806 l 970 806 q 989 774 979 774 l 996 774 q 1014 793 1004 774 l 1014 806 q 996 812 1008 806 m 909 725 l 934 725 q 921 713 934 713 l 909 713 l 909 725 m 884 700 l 890 700 l 903 694 q 928 700 913 700 q 946 682 936 700 q 928 663 946 673 l 909 663 q 884 694 900 664 l 884 700 m 828 657 q 822 601 822 614 q 871 564 868 578 l 871 558 q 797 595 822 595 l 797 583 q 871 552 797 569 q 909 521 871 545 q 964 533 956 533 l 958 521 q 983 539 983 524 l 996 539 q 1063 521 1056 521 l 1063 533 q 996 545 1057 533 l 940 545 l 940 558 l 989 558 l 989 564 q 946 632 946 573 l 934 626 l 921 626 q 828 657 886 626 m 667 638 q 717 595 681 607 l 717 601 q 673 638 707 638 l 667 638 m 630 614 l 636 614 q 649 626 649 614 l 649 632 q 630 614 640 632 m 928 595 l 934 595 q 909 558 921 558 q 897 570 897 558 l 897 576 l 909 570 q 928 595 918 595 m 692 558 l 698 527 l 692 496 l 711 484 l 723 484 l 717 514 l 717 539 l 729 539 l 723 583 l 692 558 m 605 576 l 605 545 l 611 545 l 611 576 l 605 576 m 797 552 l 797 545 l 816 545 l 816 539 l 810 527 l 828 527 l 822 539 q 828 545 828 539 q 810 552 822 545 l 797 552 m 847 552 l 847 545 q 871 533 857 545 l 871 539 l 853 552 l 847 552 m 599 527 l 599 521 q 630 496 630 521 l 642 496 q 661 527 644 527 q 655 545 655 539 l 649 545 q 599 527 633 527 m 680 539 l 673 514 l 673 503 l 680 503 l 686 533 l 686 539 l 680 539 m 1002 514 l 996 503 q 1002 496 1002 503 q 996 490 996 496 l 1008 490 q 1039 508 1008 508 l 1039 514 l 1002 514 m 1088 521 l 1082 508 l 1082 465 q 1120 378 1105 378 l 1132 397 q 1120 410 1120 397 l 1132 410 q 1120 421 1132 421 l 1114 421 l 1120 410 l 1114 410 q 1101 421 1101 410 l 1120 446 q 1114 465 1114 458 l 1126 471 l 1138 465 l 1138 471 q 1088 521 1126 521 m 797 503 q 915 378 797 414 l 915 434 q 928 421 928 432 l 928 378 l 977 378 q 1045 446 1045 378 q 1051 503 1051 469 l 1045 503 q 952 446 979 446 l 952 452 l 940 446 l 921 459 q 909 446 921 446 q 890 465 909 456 l 871 452 q 847 477 847 469 l 835 471 l 828 484 q 835 490 835 484 q 816 503 816 490 q 822 508 822 503 l 810 508 l 797 503 m 642 490 l 636 477 l 636 471 l 642 471 q 655 484 655 471 l 642 490 m 605 484 l 605 428 q 636 440 621 440 l 636 459 l 630 471 l 618 465 l 611 465 l 611 484 l 605 484 m 958 484 l 958 477 q 970 465 960 465 l 970 471 q 958 484 970 484 m 655 465 l 649 452 l 667 452 q 655 465 667 465 m 624 428 q 605 410 624 410 q 618 397 607 397 l 636 421 l 624 428 m 704 428 l 704 410 q 723 404 711 410 l 723 428 l 704 428 m 680 404 l 680 397 q 704 385 689 397 l 704 391 q 698 410 698 403 q 680 404 686 404 m 1126 372 l 1126 366 q 1138 378 1138 366 l 1138 385 q 1126 372 1126 382 m 686 378 l 686 372 q 742 335 715 372 l 735 335 q 729 341 729 335 l 717 335 l 686 341 l 667 341 l 667 335 l 772 317 l 772 323 q 723 378 762 355 l 723 372 q 754 341 731 372 l 754 335 q 692 378 707 378 l 686 378 m 661 372 l 661 366 q 704 347 673 366 l 711 347 l 711 353 q 667 372 698 353 l 661 372 m 636 323 l 642 323 q 655 335 655 323 l 649 335 q 636 323 636 333 m 29 131 q 54 56 45 131 l 60 56 q 91 131 73 131 q 122 62 105 131 l 129 62 q 153 131 133 131 l 172 131 q 197 62 182 131 l 203 62 q 228 131 212 131 l 234 131 q 258 62 250 131 l 264 62 q 290 131 277 131 l 308 131 q 332 62 327 131 q 363 131 340 62 l 370 131 q 401 62 387 131 l 408 62 q 432 131 414 131 l 438 131 l 438 118 q 401 19 422 19 q 376 87 385 19 l 363 87 q 339 19 355 19 q 302 112 321 19 l 296 112 q 264 19 281 19 q 234 94 244 19 l 228 94 q 197 19 215 19 q 165 106 178 19 q 129 19 157 106 l 122 19 q 91 87 109 19 l 85 87 q 60 19 76 19 l 54 19 q 17 125 42 19 l 29 131 m 488 131 l 556 131 q 568 118 568 129 q 531 106 568 106 l 531 32 q 518 19 531 19 q 507 32 507 19 l 507 106 q 475 118 475 106 q 488 131 477 131 m 599 131 q 655 25 615 131 l 642 19 q 624 50 625 19 l 581 50 q 562 19 576 19 l 549 25 q 599 131 588 131 m 655 131 l 810 131 q 822 118 822 129 q 791 106 822 106 l 791 32 q 779 19 791 19 q 766 32 766 19 l 766 106 q 735 112 735 106 q 698 106 726 106 l 698 32 q 686 19 698 19 q 673 32 673 19 l 673 106 q 642 118 642 106 q 655 131 644 131 m 878 131 q 934 75 934 122 q 884 13 934 28 q 822 75 822 21 q 878 131 830 131 m 996 131 q 1045 81 1045 131 l 1045 50 q 989 13 1021 13 q 940 68 949 13 l 940 94 q 996 131 962 131 m 1063 131 q 1082 62 1082 106 l 1095 62 q 1120 131 1103 131 l 1126 131 q 1150 56 1139 131 l 1156 56 q 1181 131 1164 131 q 1194 118 1194 129 q 1156 19 1166 19 l 1150 19 q 1126 94 1136 19 l 1120 94 q 1088 19 1103 19 q 1051 125 1069 19 l 1063 131 m 1249 131 q 1305 62 1305 131 q 1249 13 1285 13 q 1194 87 1194 13 q 1249 131 1212 131 m 1367 131 q 1417 81 1417 131 l 1417 50 q 1361 13 1393 13 q 1311 68 1321 13 l 1311 81 q 1367 131 1311 131 m 1522 131 q 1565 94 1565 131 l 1553 87 q 1516 112 1532 112 q 1491 75 1491 106 l 1491 56 q 1510 38 1491 47 l 1528 38 q 1559 62 1556 62 l 1565 50 l 1565 44 q 1516 13 1548 13 q 1466 87 1466 13 q 1522 131 1485 131 m 1627 131 q 1683 75 1683 122 l 1683 68 q 1627 13 1675 13 q 1571 75 1571 27 q 1627 131 1584 131 m 1708 131 l 1714 131 q 1745 50 1728 131 l 1751 50 q 1788 131 1771 131 q 1801 118 1801 129 l 1801 32 q 1788 19 1801 19 q 1782 75 1782 23 l 1775 75 q 1751 19 1763 19 l 1745 19 q 1720 81 1731 19 l 1714 81 q 1702 19 1714 19 l 1695 32 l 1695 118 q 1708 131 1697 131 m 847 87 l 847 56 q 865 38 847 47 l 890 38 q 909 56 899 38 l 909 87 q 884 112 909 97 l 871 112 q 847 87 862 112 m 958 75 q 983 38 971 38 l 1008 38 q 1027 75 1027 44 q 989 112 1021 112 q 958 75 971 111 m 1219 75 l 1219 56 q 1237 38 1219 47 l 1261 38 q 1280 56 1271 38 l 1280 87 q 1255 112 1280 97 q 1219 75 1219 112 m 1330 68 q 1355 38 1342 40 l 1379 38 q 1398 75 1398 44 q 1361 112 1393 112 q 1330 68 1330 102 m 1596 87 l 1596 75 q 1615 38 1600 38 l 1640 38 q 1658 56 1649 38 l 1658 75 q 1627 112 1658 112 q 1596 87 1599 100 m 593 81 l 593 68 l 611 68 l 611 75 q 605 94 605 87 q 593 81 593 92 m 456 38 l 463 25 l 450 19 l 444 32 l 456 38 m 1441 38 q 1454 25 1454 36 l 1441 19 q 1429 32 1429 19 l 1441 38 z "},";":{"ha":1843,"x_min":17,"x_max":1801,"o":"m 921 1158 q 1033 1065 977 1158 q 1082 991 1082 1031 l 1082 972 q 1051 917 1082 949 l 1051 873 q 1082 855 1082 869 q 1045 793 1045 849 l 1045 738 l 1033 738 l 1033 781 q 989 762 1010 762 l 977 762 q 958 781 968 762 q 964 787 958 787 q 958 831 958 812 l 946 824 l 946 837 q 1002 892 964 881 l 1039 880 l 1039 899 l 996 905 q 952 886 975 905 l 946 899 q 977 924 977 915 l 964 924 l 934 917 l 903 924 q 884 917 896 924 q 841 924 859 924 q 779 917 833 924 q 772 924 779 924 l 766 911 l 779 905 l 772 892 l 772 880 q 828 892 819 892 q 884 831 884 873 l 871 837 l 871 806 l 878 774 l 859 762 l 841 762 q 785 831 785 762 l 779 831 l 779 806 q 853 663 779 663 q 921 638 853 652 q 1027 725 1027 674 l 1039 725 q 1021 675 1039 713 q 1014 558 1014 577 q 1144 484 1144 532 q 1150 452 1150 473 l 1150 347 q 1156 218 1150 298 q 1132 186 1144 189 l 1126 186 l 1126 193 l 1138 211 l 1138 353 q 1114 359 1124 353 q 946 236 1114 236 l 946 248 q 1039 260 1025 260 l 1039 267 q 667 317 736 317 q 649 279 667 284 l 642 279 l 642 286 l 655 311 q 618 323 631 311 l 618 317 q 636 242 618 307 q 587 527 601 242 q 655 645 601 645 q 649 750 649 718 l 649 806 q 779 1134 649 1064 q 921 1158 818 1152 m 1008 924 l 1008 917 l 1039 911 l 1039 924 l 1008 924 m 859 917 q 890 892 888 905 l 890 886 l 884 886 l 853 905 q 785 899 798 899 l 785 911 q 859 917 795 911 m 748 855 l 748 831 q 760 843 760 831 q 748 855 760 855 m 785 855 l 791 824 l 797 824 l 797 855 l 785 855 m 1039 855 q 1033 818 1033 823 l 1033 812 l 1039 812 q 1045 849 1039 817 l 1045 855 l 1039 855 m 835 849 q 847 837 836 837 l 853 849 l 835 849 m 816 812 l 816 800 q 853 774 822 774 l 859 806 l 847 812 q 822 806 836 806 q 816 812 822 812 m 946 818 q 958 793 946 808 l 958 787 q 934 812 949 787 l 946 818 m 996 812 l 989 800 l 977 806 l 970 806 q 989 774 979 774 l 996 774 q 1014 793 1004 774 l 1014 806 q 996 812 1008 806 m 909 725 l 934 725 q 921 713 934 713 l 909 713 l 909 725 m 884 700 l 890 700 l 903 694 q 928 700 913 700 q 946 682 936 700 q 928 663 946 673 l 909 663 q 884 694 900 664 l 884 700 m 828 657 q 822 601 822 614 q 871 564 868 578 l 871 558 q 797 595 822 595 l 797 583 q 871 552 797 569 q 909 521 871 545 q 964 533 956 533 l 958 521 q 983 539 983 524 l 996 539 q 1063 521 1056 521 l 1063 533 q 996 545 1057 533 l 940 545 l 940 558 l 989 558 l 989 564 q 946 632 946 573 l 934 626 l 921 626 q 828 657 886 626 m 667 638 q 717 595 681 607 l 717 601 q 673 638 707 638 l 667 638 m 630 614 l 636 614 q 649 626 649 614 l 649 632 q 630 614 640 632 m 928 595 l 934 595 q 909 558 921 558 q 897 570 897 558 l 897 576 l 909 570 q 928 595 918 595 m 692 558 l 698 527 l 692 496 l 711 484 l 723 484 l 717 514 l 717 539 l 729 539 l 723 583 l 692 558 m 605 576 l 605 545 l 611 545 l 611 576 l 605 576 m 797 552 l 797 545 l 816 545 l 816 539 l 810 527 l 828 527 l 822 539 q 828 545 828 539 q 810 552 822 545 l 797 552 m 847 552 l 847 545 q 871 533 857 545 l 871 539 l 853 552 l 847 552 m 599 527 l 599 521 q 630 496 630 521 l 642 496 q 661 527 644 527 q 655 545 655 539 l 649 545 q 599 527 633 527 m 680 539 l 673 514 l 673 503 l 680 503 l 686 533 l 686 539 l 680 539 m 1002 514 l 996 503 q 1002 496 1002 503 q 996 490 996 496 l 1008 490 q 1039 508 1008 508 l 1039 514 l 1002 514 m 1088 521 l 1082 508 l 1082 465 q 1120 378 1105 378 l 1132 397 q 1120 410 1120 397 l 1132 410 q 1120 421 1132 421 l 1114 421 l 1120 410 l 1114 410 q 1101 421 1101 410 l 1120 446 q 1114 465 1114 458 l 1126 471 l 1138 465 l 1138 471 q 1088 521 1126 521 m 797 503 q 915 378 797 414 l 915 434 q 928 421 928 432 l 928 378 l 977 378 q 1045 446 1045 378 q 1051 503 1051 469 l 1045 503 q 952 446 979 446 l 952 452 l 940 446 l 921 459 q 909 446 921 446 q 890 465 909 456 l 871 452 q 847 477 847 469 l 835 471 l 828 484 q 835 490 835 484 q 816 503 816 490 q 822 508 822 503 l 810 508 l 797 503 m 642 490 l 636 477 l 636 471 l 642 471 q 655 484 655 471 l 642 490 m 605 484 l 605 428 q 636 440 621 440 l 636 459 l 630 471 l 618 465 l 611 465 l 611 484 l 605 484 m 958 484 l 958 477 q 970 465 960 465 l 970 471 q 958 484 970 484 m 655 465 l 649 452 l 667 452 q 655 465 667 465 m 624 428 q 605 410 624 410 q 618 397 607 397 l 636 421 l 624 428 m 704 428 l 704 410 q 723 404 711 410 l 723 428 l 704 428 m 680 404 l 680 397 q 704 385 689 397 l 704 391 q 698 410 698 403 q 680 404 686 404 m 1126 372 l 1126 366 q 1138 378 1138 366 l 1138 385 q 1126 372 1126 382 m 686 378 l 686 372 q 742 335 715 372 l 735 335 q 729 341 729 335 l 717 335 l 686 341 l 667 341 l 667 335 l 772 317 l 772 323 q 723 378 762 355 l 723 372 q 754 341 731 372 l 754 335 q 692 378 707 378 l 686 378 m 661 372 l 661 366 q 704 347 673 366 l 711 347 l 711 353 q 667 372 698 353 l 661 372 m 636 323 l 642 323 q 655 335 655 323 l 649 335 q 636 323 636 333 m 29 131 q 54 56 45 131 l 60 56 q 91 131 73 131 q 122 62 105 131 l 129 62 q 153 131 133 131 l 172 131 q 197 62 182 131 l 203 62 q 228 131 212 131 l 234 131 q 258 62 250 131 l 264 62 q 290 131 277 131 l 308 131 q 332 62 327 131 q 363 131 340 62 l 370 131 q 401 62 387 131 l 408 62 q 432 131 414 131 l 438 131 l 438 118 q 401 19 422 19 q 376 87 385 19 l 363 87 q 339 19 355 19 q 302 112 321 19 l 296 112 q 264 19 281 19 q 234 94 244 19 l 228 94 q 197 19 215 19 q 165 106 178 19 q 129 19 157 106 l 122 19 q 91 87 109 19 l 85 87 q 60 19 76 19 l 54 19 q 17 125 42 19 l 29 131 m 488 131 l 556 131 q 568 118 568 129 q 531 106 568 106 l 531 32 q 518 19 531 19 q 507 32 507 19 l 507 106 q 475 118 475 106 q 488 131 477 131 m 599 131 q 655 25 615 131 l 642 19 q 624 50 625 19 l 581 50 q 562 19 576 19 l 549 25 q 599 131 588 131 m 655 131 l 810 131 q 822 118 822 129 q 791 106 822 106 l 791 32 q 779 19 791 19 q 766 32 766 19 l 766 106 q 735 112 735 106 q 698 106 726 106 l 698 32 q 686 19 698 19 q 673 32 673 19 l 673 106 q 642 118 642 106 q 655 131 644 131 m 878 131 q 934 75 934 122 q 884 13 934 28 q 822 75 822 21 q 878 131 830 131 m 996 131 q 1045 81 1045 131 l 1045 50 q 989 13 1021 13 q 940 68 949 13 l 940 94 q 996 131 962 131 m 1063 131 q 1082 62 1082 106 l 1095 62 q 1120 131 1103 131 l 1126 131 q 1150 56 1139 131 l 1156 56 q 1181 131 1164 131 q 1194 118 1194 129 q 1156 19 1166 19 l 1150 19 q 1126 94 1136 19 l 1120 94 q 1088 19 1103 19 q 1051 125 1069 19 l 1063 131 m 1249 131 q 1305 62 1305 131 q 1249 13 1285 13 q 1194 87 1194 13 q 1249 131 1212 131 m 1367 131 q 1417 81 1417 131 l 1417 50 q 1361 13 1393 13 q 1311 68 1321 13 l 1311 81 q 1367 131 1311 131 m 1522 131 q 1565 94 1565 131 l 1553 87 q 1516 112 1532 112 q 1491 75 1491 106 l 1491 56 q 1510 38 1491 47 l 1528 38 q 1559 62 1556 62 l 1565 50 l 1565 44 q 1516 13 1548 13 q 1466 87 1466 13 q 1522 131 1485 131 m 1627 131 q 1683 75 1683 122 l 1683 68 q 1627 13 1675 13 q 1571 75 1571 27 q 1627 131 1584 131 m 1708 131 l 1714 131 q 1745 50 1728 131 l 1751 50 q 1788 131 1771 131 q 1801 118 1801 129 l 1801 32 q 1788 19 1801 19 q 1782 75 1782 23 l 1775 75 q 1751 19 1763 19 l 1745 19 q 1720 81 1731 19 l 1714 81 q 1702 19 1714 19 l 1695 32 l 1695 118 q 1708 131 1697 131 m 847 87 l 847 56 q 865 38 847 47 l 890 38 q 909 56 899 38 l 909 87 q 884 112 909 97 l 871 112 q 847 87 862 112 m 958 75 q 983 38 971 38 l 1008 38 q 1027 75 1027 44 q 989 112 1021 112 q 958 75 971 111 m 1219 75 l 1219 56 q 1237 38 1219 47 l 1261 38 q 1280 56 1271 38 l 1280 87 q 1255 112 1280 97 q 1219 75 1219 112 m 1330 68 q 1355 38 1342 40 l 1379 38 q 1398 75 1398 44 q 1361 112 1393 112 q 1330 68 1330 102 m 1596 87 l 1596 75 q 1615 38 1600 38 l 1640 38 q 1658 56 1649 38 l 1658 75 q 1627 112 1658 112 q 1596 87 1599 100 m 593 81 l 593 68 l 611 68 l 611 75 q 605 94 605 87 q 593 81 593 92 m 456 38 l 463 25 l 450 19 l 444 32 l 456 38 m 1441 38 q 1454 25 1454 36 l 1441 19 q 1429 32 1429 19 l 1441 38 z "},"<":{"ha":1843,"x_min":17,"x_max":1801,"o":"m 921 1158 q 1033 1065 977 1158 q 1082 991 1082 1031 l 1082 972 q 1051 917 1082 949 l 1051 873 q 1082 855 1082 869 q 1045 793 1045 849 l 1045 738 l 1033 738 l 1033 781 q 989 762 1010 762 l 977 762 q 958 781 968 762 q 964 787 958 787 q 958 831 958 812 l 946 824 l 946 837 q 1002 892 964 881 l 1039 880 l 1039 899 l 996 905 q 952 886 975 905 l 946 899 q 977 924 977 915 l 964 924 l 934 917 l 903 924 q 884 917 896 924 q 841 924 859 924 q 779 917 833 924 q 772 924 779 924 l 766 911 l 779 905 l 772 892 l 772 880 q 828 892 819 892 q 884 831 884 873 l 871 837 l 871 806 l 878 774 l 859 762 l 841 762 q 785 831 785 762 l 779 831 l 779 806 q 853 663 779 663 q 921 638 853 652 q 1027 725 1027 674 l 1039 725 q 1021 675 1039 713 q 1014 558 1014 577 q 1144 484 1144 532 q 1150 452 1150 473 l 1150 347 q 1156 218 1150 298 q 1132 186 1144 189 l 1126 186 l 1126 193 l 1138 211 l 1138 353 q 1114 359 1124 353 q 946 236 1114 236 l 946 248 q 1039 260 1025 260 l 1039 267 q 667 317 736 317 q 649 279 667 284 l 642 279 l 642 286 l 655 311 q 618 323 631 311 l 618 317 q 636 242 618 307 q 587 527 601 242 q 655 645 601 645 q 649 750 649 718 l 649 806 q 779 1134 649 1064 q 921 1158 818 1152 m 1008 924 l 1008 917 l 1039 911 l 1039 924 l 1008 924 m 859 917 q 890 892 888 905 l 890 886 l 884 886 l 853 905 q 785 899 798 899 l 785 911 q 859 917 795 911 m 748 855 l 748 831 q 760 843 760 831 q 748 855 760 855 m 785 855 l 791 824 l 797 824 l 797 855 l 785 855 m 1039 855 q 1033 818 1033 823 l 1033 812 l 1039 812 q 1045 849 1039 817 l 1045 855 l 1039 855 m 835 849 q 847 837 836 837 l 853 849 l 835 849 m 816 812 l 816 800 q 853 774 822 774 l 859 806 l 847 812 q 822 806 836 806 q 816 812 822 812 m 946 818 q 958 793 946 808 l 958 787 q 934 812 949 787 l 946 818 m 996 812 l 989 800 l 977 806 l 970 806 q 989 774 979 774 l 996 774 q 1014 793 1004 774 l 1014 806 q 996 812 1008 806 m 909 725 l 934 725 q 921 713 934 713 l 909 713 l 909 725 m 884 700 l 890 700 l 903 694 q 928 700 913 700 q 946 682 936 700 q 928 663 946 673 l 909 663 q 884 694 900 664 l 884 700 m 828 657 q 822 601 822 614 q 871 564 868 578 l 871 558 q 797 595 822 595 l 797 583 q 871 552 797 569 q 909 521 871 545 q 964 533 956 533 l 958 521 q 983 539 983 524 l 996 539 q 1063 521 1056 521 l 1063 533 q 996 545 1057 533 l 940 545 l 940 558 l 989 558 l 989 564 q 946 632 946 573 l 934 626 l 921 626 q 828 657 886 626 m 667 638 q 717 595 681 607 l 717 601 q 673 638 707 638 l 667 638 m 630 614 l 636 614 q 649 626 649 614 l 649 632 q 630 614 640 632 m 928 595 l 934 595 q 909 558 921 558 q 897 570 897 558 l 897 576 l 909 570 q 928 595 918 595 m 692 558 l 698 527 l 692 496 l 711 484 l 723 484 l 717 514 l 717 539 l 729 539 l 723 583 l 692 558 m 605 576 l 605 545 l 611 545 l 611 576 l 605 576 m 797 552 l 797 545 l 816 545 l 816 539 l 810 527 l 828 527 l 822 539 q 828 545 828 539 q 810 552 822 545 l 797 552 m 847 552 l 847 545 q 871 533 857 545 l 871 539 l 853 552 l 847 552 m 599 527 l 599 521 q 630 496 630 521 l 642 496 q 661 527 644 527 q 655 545 655 539 l 649 545 q 599 527 633 527 m 680 539 l 673 514 l 673 503 l 680 503 l 686 533 l 686 539 l 680 539 m 1002 514 l 996 503 q 1002 496 1002 503 q 996 490 996 496 l 1008 490 q 1039 508 1008 508 l 1039 514 l 1002 514 m 1088 521 l 1082 508 l 1082 465 q 1120 378 1105 378 l 1132 397 q 1120 410 1120 397 l 1132 410 q 1120 421 1132 421 l 1114 421 l 1120 410 l 1114 410 q 1101 421 1101 410 l 1120 446 q 1114 465 1114 458 l 1126 471 l 1138 465 l 1138 471 q 1088 521 1126 521 m 797 503 q 915 378 797 414 l 915 434 q 928 421 928 432 l 928 378 l 977 378 q 1045 446 1045 378 q 1051 503 1051 469 l 1045 503 q 952 446 979 446 l 952 452 l 940 446 l 921 459 q 909 446 921 446 q 890 465 909 456 l 871 452 q 847 477 847 469 l 835 471 l 828 484 q 835 490 835 484 q 816 503 816 490 q 822 508 822 503 l 810 508 l 797 503 m 642 490 l 636 477 l 636 471 l 642 471 q 655 484 655 471 l 642 490 m 605 484 l 605 428 q 636 440 621 440 l 636 459 l 630 471 l 618 465 l 611 465 l 611 484 l 605 484 m 958 484 l 958 477 q 970 465 960 465 l 970 471 q 958 484 970 484 m 655 465 l 649 452 l 667 452 q 655 465 667 465 m 624 428 q 605 410 624 410 q 618 397 607 397 l 636 421 l 624 428 m 704 428 l 704 410 q 723 404 711 410 l 723 428 l 704 428 m 680 404 l 680 397 q 704 385 689 397 l 704 391 q 698 410 698 403 q 680 404 686 404 m 1126 372 l 1126 366 q 1138 378 1138 366 l 1138 385 q 1126 372 1126 382 m 686 378 l 686 372 q 742 335 715 372 l 735 335 q 729 341 729 335 l 717 335 l 686 341 l 667 341 l 667 335 l 772 317 l 772 323 q 723 378 762 355 l 723 372 q 754 341 731 372 l 754 335 q 692 378 707 378 l 686 378 m 661 372 l 661 366 q 704 347 673 366 l 711 347 l 711 353 q 667 372 698 353 l 661 372 m 636 323 l 642 323 q 655 335 655 323 l 649 335 q 636 323 636 333 m 29 131 q 54 56 45 131 l 60 56 q 91 131 73 131 q 122 62 105 131 l 129 62 q 153 131 133 131 l 172 131 q 197 62 182 131 l 203 62 q 228 131 212 131 l 234 131 q 258 62 250 131 l 264 62 q 290 131 277 131 l 308 131 q 332 62 327 131 q 363 131 340 62 l 370 131 q 401 62 387 131 l 408 62 q 432 131 414 131 l 438 131 l 438 118 q 401 19 422 19 q 376 87 385 19 l 363 87 q 339 19 355 19 q 302 112 321 19 l 296 112 q 264 19 281 19 q 234 94 244 19 l 228 94 q 197 19 215 19 q 165 106 178 19 q 129 19 157 106 l 122 19 q 91 87 109 19 l 85 87 q 60 19 76 19 l 54 19 q 17 125 42 19 l 29 131 m 488 131 l 556 131 q 568 118 568 129 q 531 106 568 106 l 531 32 q 518 19 531 19 q 507 32 507 19 l 507 106 q 475 118 475 106 q 488 131 477 131 m 599 131 q 655 25 615 131 l 642 19 q 624 50 625 19 l 581 50 q 562 19 576 19 l 549 25 q 599 131 588 131 m 655 131 l 810 131 q 822 118 822 129 q 791 106 822 106 l 791 32 q 779 19 791 19 q 766 32 766 19 l 766 106 q 735 112 735 106 q 698 106 726 106 l 698 32 q 686 19 698 19 q 673 32 673 19 l 673 106 q 642 118 642 106 q 655 131 644 131 m 878 131 q 934 75 934 122 q 884 13 934 28 q 822 75 822 21 q 878 131 830 131 m 996 131 q 1045 81 1045 131 l 1045 50 q 989 13 1021 13 q 940 68 949 13 l 940 94 q 996 131 962 131 m 1063 131 q 1082 62 1082 106 l 1095 62 q 1120 131 1103 131 l 1126 131 q 1150 56 1139 131 l 1156 56 q 1181 131 1164 131 q 1194 118 1194 129 q 1156 19 1166 19 l 1150 19 q 1126 94 1136 19 l 1120 94 q 1088 19 1103 19 q 1051 125 1069 19 l 1063 131 m 1249 131 q 1305 62 1305 131 q 1249 13 1285 13 q 1194 87 1194 13 q 1249 131 1212 131 m 1367 131 q 1417 81 1417 131 l 1417 50 q 1361 13 1393 13 q 1311 68 1321 13 l 1311 81 q 1367 131 1311 131 m 1522 131 q 1565 94 1565 131 l 1553 87 q 1516 112 1532 112 q 1491 75 1491 106 l 1491 56 q 1510 38 1491 47 l 1528 38 q 1559 62 1556 62 l 1565 50 l 1565 44 q 1516 13 1548 13 q 1466 87 1466 13 q 1522 131 1485 131 m 1627 131 q 1683 75 1683 122 l 1683 68 q 1627 13 1675 13 q 1571 75 1571 27 q 1627 131 1584 131 m 1708 131 l 1714 131 q 1745 50 1728 131 l 1751 50 q 1788 131 1771 131 q 1801 118 1801 129 l 1801 32 q 1788 19 1801 19 q 1782 75 1782 23 l 1775 75 q 1751 19 1763 19 l 1745 19 q 1720 81 1731 19 l 1714 81 q 1702 19 1714 19 l 1695 32 l 1695 118 q 1708 131 1697 131 m 847 87 l 847 56 q 865 38 847 47 l 890 38 q 909 56 899 38 l 909 87 q 884 112 909 97 l 871 112 q 847 87 862 112 m 958 75 q 983 38 971 38 l 1008 38 q 1027 75 1027 44 q 989 112 1021 112 q 958 75 971 111 m 1219 75 l 1219 56 q 1237 38 1219 47 l 1261 38 q 1280 56 1271 38 l 1280 87 q 1255 112 1280 97 q 1219 75 1219 112 m 1330 68 q 1355 38 1342 40 l 1379 38 q 1398 75 1398 44 q 1361 112 1393 112 q 1330 68 1330 102 m 1596 87 l 1596 75 q 1615 38 1600 38 l 1640 38 q 1658 56 1649 38 l 1658 75 q 1627 112 1658 112 q 1596 87 1599 100 m 593 81 l 593 68 l 611 68 l 611 75 q 605 94 605 87 q 593 81 593 92 m 456 38 l 463 25 l 450 19 l 444 32 l 456 38 m 1441 38 q 1454 25 1454 36 l 1441 19 q 1429 32 1429 19 l 1441 38 z "},"=":{"ha":1843,"x_min":17,"x_max":1801,"o":"m 921 1158 q 1033 1065 977 1158 q 1082 991 1082 1031 l 1082 972 q 1051 917 1082 949 l 1051 873 q 1082 855 1082 869 q 1045 793 1045 849 l 1045 738 l 1033 738 l 1033 781 q 989 762 1010 762 l 977 762 q 958 781 968 762 q 964 787 958 787 q 958 831 958 812 l 946 824 l 946 837 q 1002 892 964 881 l 1039 880 l 1039 899 l 996 905 q 952 886 975 905 l 946 899 q 977 924 977 915 l 964 924 l 934 917 l 903 924 q 884 917 896 924 q 841 924 859 924 q 779 917 833 924 q 772 924 779 924 l 766 911 l 779 905 l 772 892 l 772 880 q 828 892 819 892 q 884 831 884 873 l 871 837 l 871 806 l 878 774 l 859 762 l 841 762 q 785 831 785 762 l 779 831 l 779 806 q 853 663 779 663 q 921 638 853 652 q 1027 725 1027 674 l 1039 725 q 1021 675 1039 713 q 1014 558 1014 577 q 1144 484 1144 532 q 1150 452 1150 473 l 1150 347 q 1156 218 1150 298 q 1132 186 1144 189 l 1126 186 l 1126 193 l 1138 211 l 1138 353 q 1114 359 1124 353 q 946 236 1114 236 l 946 248 q 1039 260 1025 260 l 1039 267 q 667 317 736 317 q 649 279 667 284 l 642 279 l 642 286 l 655 311 q 618 323 631 311 l 618 317 q 636 242 618 307 q 587 527 601 242 q 655 645 601 645 q 649 750 649 718 l 649 806 q 779 1134 649 1064 q 921 1158 818 1152 m 1008 924 l 1008 917 l 1039 911 l 1039 924 l 1008 924 m 859 917 q 890 892 888 905 l 890 886 l 884 886 l 853 905 q 785 899 798 899 l 785 911 q 859 917 795 911 m 748 855 l 748 831 q 760 843 760 831 q 748 855 760 855 m 785 855 l 791 824 l 797 824 l 797 855 l 785 855 m 1039 855 q 1033 818 1033 823 l 1033 812 l 1039 812 q 1045 849 1039 817 l 1045 855 l 1039 855 m 835 849 q 847 837 836 837 l 853 849 l 835 849 m 816 812 l 816 800 q 853 774 822 774 l 859 806 l 847 812 q 822 806 836 806 q 816 812 822 812 m 946 818 q 958 793 946 808 l 958 787 q 934 812 949 787 l 946 818 m 996 812 l 989 800 l 977 806 l 970 806 q 989 774 979 774 l 996 774 q 1014 793 1004 774 l 1014 806 q 996 812 1008 806 m 909 725 l 934 725 q 921 713 934 713 l 909 713 l 909 725 m 884 700 l 890 700 l 903 694 q 928 700 913 700 q 946 682 936 700 q 928 663 946 673 l 909 663 q 884 694 900 664 l 884 700 m 828 657 q 822 601 822 614 q 871 564 868 578 l 871 558 q 797 595 822 595 l 797 583 q 871 552 797 569 q 909 521 871 545 q 964 533 956 533 l 958 521 q 983 539 983 524 l 996 539 q 1063 521 1056 521 l 1063 533 q 996 545 1057 533 l 940 545 l 940 558 l 989 558 l 989 564 q 946 632 946 573 l 934 626 l 921 626 q 828 657 886 626 m 667 638 q 717 595 681 607 l 717 601 q 673 638 707 638 l 667 638 m 630 614 l 636 614 q 649 626 649 614 l 649 632 q 630 614 640 632 m 928 595 l 934 595 q 909 558 921 558 q 897 570 897 558 l 897 576 l 909 570 q 928 595 918 595 m 692 558 l 698 527 l 692 496 l 711 484 l 723 484 l 717 514 l 717 539 l 729 539 l 723 583 l 692 558 m 605 576 l 605 545 l 611 545 l 611 576 l 605 576 m 797 552 l 797 545 l 816 545 l 816 539 l 810 527 l 828 527 l 822 539 q 828 545 828 539 q 810 552 822 545 l 797 552 m 847 552 l 847 545 q 871 533 857 545 l 871 539 l 853 552 l 847 552 m 599 527 l 599 521 q 630 496 630 521 l 642 496 q 661 527 644 527 q 655 545 655 539 l 649 545 q 599 527 633 527 m 680 539 l 673 514 l 673 503 l 680 503 l 686 533 l 686 539 l 680 539 m 1002 514 l 996 503 q 1002 496 1002 503 q 996 490 996 496 l 1008 490 q 1039 508 1008 508 l 1039 514 l 1002 514 m 1088 521 l 1082 508 l 1082 465 q 1120 378 1105 378 l 1132 397 q 1120 410 1120 397 l 1132 410 q 1120 421 1132 421 l 1114 421 l 1120 410 l 1114 410 q 1101 421 1101 410 l 1120 446 q 1114 465 1114 458 l 1126 471 l 1138 465 l 1138 471 q 1088 521 1126 521 m 797 503 q 915 378 797 414 l 915 434 q 928 421 928 432 l 928 378 l 977 378 q 1045 446 1045 378 q 1051 503 1051 469 l 1045 503 q 952 446 979 446 l 952 452 l 940 446 l 921 459 q 909 446 921 446 q 890 465 909 456 l 871 452 q 847 477 847 469 l 835 471 l 828 484 q 835 490 835 484 q 816 503 816 490 q 822 508 822 503 l 810 508 l 797 503 m 642 490 l 636 477 l 636 471 l 642 471 q 655 484 655 471 l 642 490 m 605 484 l 605 428 q 636 440 621 440 l 636 459 l 630 471 l 618 465 l 611 465 l 611 484 l 605 484 m 958 484 l 958 477 q 970 465 960 465 l 970 471 q 958 484 970 484 m 655 465 l 649 452 l 667 452 q 655 465 667 465 m 624 428 q 605 410 624 410 q 618 397 607 397 l 636 421 l 624 428 m 704 428 l 704 410 q 723 404 711 410 l 723 428 l 704 428 m 680 404 l 680 397 q 704 385 689 397 l 704 391 q 698 410 698 403 q 680 404 686 404 m 1126 372 l 1126 366 q 1138 378 1138 366 l 1138 385 q 1126 372 1126 382 m 686 378 l 686 372 q 742 335 715 372 l 735 335 q 729 341 729 335 l 717 335 l 686 341 l 667 341 l 667 335 l 772 317 l 772 323 q 723 378 762 355 l 723 372 q 754 341 731 372 l 754 335 q 692 378 707 378 l 686 378 m 661 372 l 661 366 q 704 347 673 366 l 711 347 l 711 353 q 667 372 698 353 l 661 372 m 636 323 l 642 323 q 655 335 655 323 l 649 335 q 636 323 636 333 m 29 131 q 54 56 45 131 l 60 56 q 91 131 73 131 q 122 62 105 131 l 129 62 q 153 131 133 131 l 172 131 q 197 62 182 131 l 203 62 q 228 131 212 131 l 234 131 q 258 62 250 131 l 264 62 q 290 131 277 131 l 308 131 q 332 62 327 131 q 363 131 340 62 l 370 131 q 401 62 387 131 l 408 62 q 432 131 414 131 l 438 131 l 438 118 q 401 19 422 19 q 376 87 385 19 l 363 87 q 339 19 355 19 q 302 112 321 19 l 296 112 q 264 19 281 19 q 234 94 244 19 l 228 94 q 197 19 215 19 q 165 106 178 19 q 129 19 157 106 l 122 19 q 91 87 109 19 l 85 87 q 60 19 76 19 l 54 19 q 17 125 42 19 l 29 131 m 488 131 l 556 131 q 568 118 568 129 q 531 106 568 106 l 531 32 q 518 19 531 19 q 507 32 507 19 l 507 106 q 475 118 475 106 q 488 131 477 131 m 599 131 q 655 25 615 131 l 642 19 q 624 50 625 19 l 581 50 q 562 19 576 19 l 549 25 q 599 131 588 131 m 655 131 l 810 131 q 822 118 822 129 q 791 106 822 106 l 791 32 q 779 19 791 19 q 766 32 766 19 l 766 106 q 735 112 735 106 q 698 106 726 106 l 698 32 q 686 19 698 19 q 673 32 673 19 l 673 106 q 642 118 642 106 q 655 131 644 131 m 878 131 q 934 75 934 122 q 884 13 934 28 q 822 75 822 21 q 878 131 830 131 m 996 131 q 1045 81 1045 131 l 1045 50 q 989 13 1021 13 q 940 68 949 13 l 940 94 q 996 131 962 131 m 1063 131 q 1082 62 1082 106 l 1095 62 q 1120 131 1103 131 l 1126 131 q 1150 56 1139 131 l 1156 56 q 1181 131 1164 131 q 1194 118 1194 129 q 1156 19 1166 19 l 1150 19 q 1126 94 1136 19 l 1120 94 q 1088 19 1103 19 q 1051 125 1069 19 l 1063 131 m 1249 131 q 1305 62 1305 131 q 1249 13 1285 13 q 1194 87 1194 13 q 1249 131 1212 131 m 1367 131 q 1417 81 1417 131 l 1417 50 q 1361 13 1393 13 q 1311 68 1321 13 l 1311 81 q 1367 131 1311 131 m 1522 131 q 1565 94 1565 131 l 1553 87 q 1516 112 1532 112 q 1491 75 1491 106 l 1491 56 q 1510 38 1491 47 l 1528 38 q 1559 62 1556 62 l 1565 50 l 1565 44 q 1516 13 1548 13 q 1466 87 1466 13 q 1522 131 1485 131 m 1627 131 q 1683 75 1683 122 l 1683 68 q 1627 13 1675 13 q 1571 75 1571 27 q 1627 131 1584 131 m 1708 131 l 1714 131 q 1745 50 1728 131 l 1751 50 q 1788 131 1771 131 q 1801 118 1801 129 l 1801 32 q 1788 19 1801 19 q 1782 75 1782 23 l 1775 75 q 1751 19 1763 19 l 1745 19 q 1720 81 1731 19 l 1714 81 q 1702 19 1714 19 l 1695 32 l 1695 118 q 1708 131 1697 131 m 847 87 l 847 56 q 865 38 847 47 l 890 38 q 909 56 899 38 l 909 87 q 884 112 909 97 l 871 112 q 847 87 862 112 m 958 75 q 983 38 971 38 l 1008 38 q 1027 75 1027 44 q 989 112 1021 112 q 958 75 971 111 m 1219 75 l 1219 56 q 1237 38 1219 47 l 1261 38 q 1280 56 1271 38 l 1280 87 q 1255 112 1280 97 q 1219 75 1219 112 m 1330 68 q 1355 38 1342 40 l 1379 38 q 1398 75 1398 44 q 1361 112 1393 112 q 1330 68 1330 102 m 1596 87 l 1596 75 q 1615 38 1600 38 l 1640 38 q 1658 56 1649 38 l 1658 75 q 1627 112 1658 112 q 1596 87 1599 100 m 593 81 l 593 68 l 611 68 l 611 75 q 605 94 605 87 q 593 81 593 92 m 456 38 l 463 25 l 450 19 l 444 32 l 456 38 m 1441 38 q 1454 25 1454 36 l 1441 19 q 1429 32 1429 19 l 1441 38 z "},">":{"ha":1843,"x_min":17,"x_max":1801,"o":"m 921 1158 q 1033 1065 977 1158 q 1082 991 1082 1031 l 1082 972 q 1051 917 1082 949 l 1051 873 q 1082 855 1082 869 q 1045 793 1045 849 l 1045 738 l 1033 738 l 1033 781 q 989 762 1010 762 l 977 762 q 958 781 968 762 q 964 787 958 787 q 958 831 958 812 l 946 824 l 946 837 q 1002 892 964 881 l 1039 880 l 1039 899 l 996 905 q 952 886 975 905 l 946 899 q 977 924 977 915 l 964 924 l 934 917 l 903 924 q 884 917 896 924 q 841 924 859 924 q 779 917 833 924 q 772 924 779 924 l 766 911 l 779 905 l 772 892 l 772 880 q 828 892 819 892 q 884 831 884 873 l 871 837 l 871 806 l 878 774 l 859 762 l 841 762 q 785 831 785 762 l 779 831 l 779 806 q 853 663 779 663 q 921 638 853 652 q 1027 725 1027 674 l 1039 725 q 1021 675 1039 713 q 1014 558 1014 577 q 1144 484 1144 532 q 1150 452 1150 473 l 1150 347 q 1156 218 1150 298 q 1132 186 1144 189 l 1126 186 l 1126 193 l 1138 211 l 1138 353 q 1114 359 1124 353 q 946 236 1114 236 l 946 248 q 1039 260 1025 260 l 1039 267 q 667 317 736 317 q 649 279 667 284 l 642 279 l 642 286 l 655 311 q 618 323 631 311 l 618 317 q 636 242 618 307 q 587 527 601 242 q 655 645 601 645 q 649 750 649 718 l 649 806 q 779 1134 649 1064 q 921 1158 818 1152 m 1008 924 l 1008 917 l 1039 911 l 1039 924 l 1008 924 m 859 917 q 890 892 888 905 l 890 886 l 884 886 l 853 905 q 785 899 798 899 l 785 911 q 859 917 795 911 m 748 855 l 748 831 q 760 843 760 831 q 748 855 760 855 m 785 855 l 791 824 l 797 824 l 797 855 l 785 855 m 1039 855 q 1033 818 1033 823 l 1033 812 l 1039 812 q 1045 849 1039 817 l 1045 855 l 1039 855 m 835 849 q 847 837 836 837 l 853 849 l 835 849 m 816 812 l 816 800 q 853 774 822 774 l 859 806 l 847 812 q 822 806 836 806 q 816 812 822 812 m 946 818 q 958 793 946 808 l 958 787 q 934 812 949 787 l 946 818 m 996 812 l 989 800 l 977 806 l 970 806 q 989 774 979 774 l 996 774 q 1014 793 1004 774 l 1014 806 q 996 812 1008 806 m 909 725 l 934 725 q 921 713 934 713 l 909 713 l 909 725 m 884 700 l 890 700 l 903 694 q 928 700 913 700 q 946 682 936 700 q 928 663 946 673 l 909 663 q 884 694 900 664 l 884 700 m 828 657 q 822 601 822 614 q 871 564 868 578 l 871 558 q 797 595 822 595 l 797 583 q 871 552 797 569 q 909 521 871 545 q 964 533 956 533 l 958 521 q 983 539 983 524 l 996 539 q 1063 521 1056 521 l 1063 533 q 996 545 1057 533 l 940 545 l 940 558 l 989 558 l 989 564 q 946 632 946 573 l 934 626 l 921 626 q 828 657 886 626 m 667 638 q 717 595 681 607 l 717 601 q 673 638 707 638 l 667 638 m 630 614 l 636 614 q 649 626 649 614 l 649 632 q 630 614 640 632 m 928 595 l 934 595 q 909 558 921 558 q 897 570 897 558 l 897 576 l 909 570 q 928 595 918 595 m 692 558 l 698 527 l 692 496 l 711 484 l 723 484 l 717 514 l 717 539 l 729 539 l 723 583 l 692 558 m 605 576 l 605 545 l 611 545 l 611 576 l 605 576 m 797 552 l 797 545 l 816 545 l 816 539 l 810 527 l 828 527 l 822 539 q 828 545 828 539 q 810 552 822 545 l 797 552 m 847 552 l 847 545 q 871 533 857 545 l 871 539 l 853 552 l 847 552 m 599 527 l 599 521 q 630 496 630 521 l 642 496 q 661 527 644 527 q 655 545 655 539 l 649 545 q 599 527 633 527 m 680 539 l 673 514 l 673 503 l 680 503 l 686 533 l 686 539 l 680 539 m 1002 514 l 996 503 q 1002 496 1002 503 q 996 490 996 496 l 1008 490 q 1039 508 1008 508 l 1039 514 l 1002 514 m 1088 521 l 1082 508 l 1082 465 q 1120 378 1105 378 l 1132 397 q 1120 410 1120 397 l 1132 410 q 1120 421 1132 421 l 1114 421 l 1120 410 l 1114 410 q 1101 421 1101 410 l 1120 446 q 1114 465 1114 458 l 1126 471 l 1138 465 l 1138 471 q 1088 521 1126 521 m 797 503 q 915 378 797 414 l 915 434 q 928 421 928 432 l 928 378 l 977 378 q 1045 446 1045 378 q 1051 503 1051 469 l 1045 503 q 952 446 979 446 l 952 452 l 940 446 l 921 459 q 909 446 921 446 q 890 465 909 456 l 871 452 q 847 477 847 469 l 835 471 l 828 484 q 835 490 835 484 q 816 503 816 490 q 822 508 822 503 l 810 508 l 797 503 m 642 490 l 636 477 l 636 471 l 642 471 q 655 484 655 471 l 642 490 m 605 484 l 605 428 q 636 440 621 440 l 636 459 l 630 471 l 618 465 l 611 465 l 611 484 l 605 484 m 958 484 l 958 477 q 970 465 960 465 l 970 471 q 958 484 970 484 m 655 465 l 649 452 l 667 452 q 655 465 667 465 m 624 428 q 605 410 624 410 q 618 397 607 397 l 636 421 l 624 428 m 704 428 l 704 410 q 723 404 711 410 l 723 428 l 704 428 m 680 404 l 680 397 q 704 385 689 397 l 704 391 q 698 410 698 403 q 680 404 686 404 m 1126 372 l 1126 366 q 1138 378 1138 366 l 1138 385 q 1126 372 1126 382 m 686 378 l 686 372 q 742 335 715 372 l 735 335 q 729 341 729 335 l 717 335 l 686 341 l 667 341 l 667 335 l 772 317 l 772 323 q 723 378 762 355 l 723 372 q 754 341 731 372 l 754 335 q 692 378 707 378 l 686 378 m 661 372 l 661 366 q 704 347 673 366 l 711 347 l 711 353 q 667 372 698 353 l 661 372 m 636 323 l 642 323 q 655 335 655 323 l 649 335 q 636 323 636 333 m 29 131 q 54 56 45 131 l 60 56 q 91 131 73 131 q 122 62 105 131 l 129 62 q 153 131 133 131 l 172 131 q 197 62 182 131 l 203 62 q 228 131 212 131 l 234 131 q 258 62 250 131 l 264 62 q 290 131 277 131 l 308 131 q 332 62 327 131 q 363 131 340 62 l 370 131 q 401 62 387 131 l 408 62 q 432 131 414 131 l 438 131 l 438 118 q 401 19 422 19 q 376 87 385 19 l 363 87 q 339 19 355 19 q 302 112 321 19 l 296 112 q 264 19 281 19 q 234 94 244 19 l 228 94 q 197 19 215 19 q 165 106 178 19 q 129 19 157 106 l 122 19 q 91 87 109 19 l 85 87 q 60 19 76 19 l 54 19 q 17 125 42 19 l 29 131 m 488 131 l 556 131 q 568 118 568 129 q 531 106 568 106 l 531 32 q 518 19 531 19 q 507 32 507 19 l 507 106 q 475 118 475 106 q 488 131 477 131 m 599 131 q 655 25 615 131 l 642 19 q 624 50 625 19 l 581 50 q 562 19 576 19 l 549 25 q 599 131 588 131 m 655 131 l 810 131 q 822 118 822 129 q 791 106 822 106 l 791 32 q 779 19 791 19 q 766 32 766 19 l 766 106 q 735 112 735 106 q 698 106 726 106 l 698 32 q 686 19 698 19 q 673 32 673 19 l 673 106 q 642 118 642 106 q 655 131 644 131 m 878 131 q 934 75 934 122 q 884 13 934 28 q 822 75 822 21 q 878 131 830 131 m 996 131 q 1045 81 1045 131 l 1045 50 q 989 13 1021 13 q 940 68 949 13 l 940 94 q 996 131 962 131 m 1063 131 q 1082 62 1082 106 l 1095 62 q 1120 131 1103 131 l 1126 131 q 1150 56 1139 131 l 1156 56 q 1181 131 1164 131 q 1194 118 1194 129 q 1156 19 1166 19 l 1150 19 q 1126 94 1136 19 l 1120 94 q 1088 19 1103 19 q 1051 125 1069 19 l 1063 131 m 1249 131 q 1305 62 1305 131 q 1249 13 1285 13 q 1194 87 1194 13 q 1249 131 1212 131 m 1367 131 q 1417 81 1417 131 l 1417 50 q 1361 13 1393 13 q 1311 68 1321 13 l 1311 81 q 1367 131 1311 131 m 1522 131 q 1565 94 1565 131 l 1553 87 q 1516 112 1532 112 q 1491 75 1491 106 l 1491 56 q 1510 38 1491 47 l 1528 38 q 1559 62 1556 62 l 1565 50 l 1565 44 q 1516 13 1548 13 q 1466 87 1466 13 q 1522 131 1485 131 m 1627 131 q 1683 75 1683 122 l 1683 68 q 1627 13 1675 13 q 1571 75 1571 27 q 1627 131 1584 131 m 1708 131 l 1714 131 q 1745 50 1728 131 l 1751 50 q 1788 131 1771 131 q 1801 118 1801 129 l 1801 32 q 1788 19 1801 19 q 1782 75 1782 23 l 1775 75 q 1751 19 1763 19 l 1745 19 q 1720 81 1731 19 l 1714 81 q 1702 19 1714 19 l 1695 32 l 1695 118 q 1708 131 1697 131 m 847 87 l 847 56 q 865 38 847 47 l 890 38 q 909 56 899 38 l 909 87 q 884 112 909 97 l 871 112 q 847 87 862 112 m 958 75 q 983 38 971 38 l 1008 38 q 1027 75 1027 44 q 989 112 1021 112 q 958 75 971 111 m 1219 75 l 1219 56 q 1237 38 1219 47 l 1261 38 q 1280 56 1271 38 l 1280 87 q 1255 112 1280 97 q 1219 75 1219 112 m 1330 68 q 1355 38 1342 40 l 1379 38 q 1398 75 1398 44 q 1361 112 1393 112 q 1330 68 1330 102 m 1596 87 l 1596 75 q 1615 38 1600 38 l 1640 38 q 1658 56 1649 38 l 1658 75 q 1627 112 1658 112 q 1596 87 1599 100 m 593 81 l 593 68 l 611 68 l 611 75 q 605 94 605 87 q 593 81 593 92 m 456 38 l 463 25 l 450 19 l 444 32 l 456 38 m 1441 38 q 1454 25 1454 36 l 1441 19 q 1429 32 1429 19 l 1441 38 z "},"?":{"ha":1843,"x_min":17,"x_max":1801,"o":"m 921 1158 q 1033 1065 977 1158 q 1082 991 1082 1031 l 1082 972 q 1051 917 1082 949 l 1051 873 q 1082 855 1082 869 q 1045 793 1045 849 l 1045 738 l 1033 738 l 1033 781 q 989 762 1010 762 l 977 762 q 958 781 968 762 q 964 787 958 787 q 958 831 958 812 l 946 824 l 946 837 q 1002 892 964 881 l 1039 880 l 1039 899 l 996 905 q 952 886 975 905 l 946 899 q 977 924 977 915 l 964 924 l 934 917 l 903 924 q 884 917 896 924 q 841 924 859 924 q 779 917 833 924 q 772 924 779 924 l 766 911 l 779 905 l 772 892 l 772 880 q 828 892 819 892 q 884 831 884 873 l 871 837 l 871 806 l 878 774 l 859 762 l 841 762 q 785 831 785 762 l 779 831 l 779 806 q 853 663 779 663 q 921 638 853 652 q 1027 725 1027 674 l 1039 725 q 1021 675 1039 713 q 1014 558 1014 577 q 1144 484 1144 532 q 1150 452 1150 473 l 1150 347 q 1156 218 1150 298 q 1132 186 1144 189 l 1126 186 l 1126 193 l 1138 211 l 1138 353 q 1114 359 1124 353 q 946 236 1114 236 l 946 248 q 1039 260 1025 260 l 1039 267 q 667 317 736 317 q 649 279 667 284 l 642 279 l 642 286 l 655 311 q 618 323 631 311 l 618 317 q 636 242 618 307 q 587 527 601 242 q 655 645 601 645 q 649 750 649 718 l 649 806 q 779 1134 649 1064 q 921 1158 818 1152 m 1008 924 l 1008 917 l 1039 911 l 1039 924 l 1008 924 m 859 917 q 890 892 888 905 l 890 886 l 884 886 l 853 905 q 785 899 798 899 l 785 911 q 859 917 795 911 m 748 855 l 748 831 q 760 843 760 831 q 748 855 760 855 m 785 855 l 791 824 l 797 824 l 797 855 l 785 855 m 1039 855 q 1033 818 1033 823 l 1033 812 l 1039 812 q 1045 849 1039 817 l 1045 855 l 1039 855 m 835 849 q 847 837 836 837 l 853 849 l 835 849 m 816 812 l 816 800 q 853 774 822 774 l 859 806 l 847 812 q 822 806 836 806 q 816 812 822 812 m 946 818 q 958 793 946 808 l 958 787 q 934 812 949 787 l 946 818 m 996 812 l 989 800 l 977 806 l 970 806 q 989 774 979 774 l 996 774 q 1014 793 1004 774 l 1014 806 q 996 812 1008 806 m 909 725 l 934 725 q 921 713 934 713 l 909 713 l 909 725 m 884 700 l 890 700 l 903 694 q 928 700 913 700 q 946 682 936 700 q 928 663 946 673 l 909 663 q 884 694 900 664 l 884 700 m 828 657 q 822 601 822 614 q 871 564 868 578 l 871 558 q 797 595 822 595 l 797 583 q 871 552 797 569 q 909 521 871 545 q 964 533 956 533 l 958 521 q 983 539 983 524 l 996 539 q 1063 521 1056 521 l 1063 533 q 996 545 1057 533 l 940 545 l 940 558 l 989 558 l 989 564 q 946 632 946 573 l 934 626 l 921 626 q 828 657 886 626 m 667 638 q 717 595 681 607 l 717 601 q 673 638 707 638 l 667 638 m 630 614 l 636 614 q 649 626 649 614 l 649 632 q 630 614 640 632 m 928 595 l 934 595 q 909 558 921 558 q 897 570 897 558 l 897 576 l 909 570 q 928 595 918 595 m 692 558 l 698 527 l 692 496 l 711 484 l 723 484 l 717 514 l 717 539 l 729 539 l 723 583 l 692 558 m 605 576 l 605 545 l 611 545 l 611 576 l 605 576 m 797 552 l 797 545 l 816 545 l 816 539 l 810 527 l 828 527 l 822 539 q 828 545 828 539 q 810 552 822 545 l 797 552 m 847 552 l 847 545 q 871 533 857 545 l 871 539 l 853 552 l 847 552 m 599 527 l 599 521 q 630 496 630 521 l 642 496 q 661 527 644 527 q 655 545 655 539 l 649 545 q 599 527 633 527 m 680 539 l 673 514 l 673 503 l 680 503 l 686 533 l 686 539 l 680 539 m 1002 514 l 996 503 q 1002 496 1002 503 q 996 490 996 496 l 1008 490 q 1039 508 1008 508 l 1039 514 l 1002 514 m 1088 521 l 1082 508 l 1082 465 q 1120 378 1105 378 l 1132 397 q 1120 410 1120 397 l 1132 410 q 1120 421 1132 421 l 1114 421 l 1120 410 l 1114 410 q 1101 421 1101 410 l 1120 446 q 1114 465 1114 458 l 1126 471 l 1138 465 l 1138 471 q 1088 521 1126 521 m 797 503 q 915 378 797 414 l 915 434 q 928 421 928 432 l 928 378 l 977 378 q 1045 446 1045 378 q 1051 503 1051 469 l 1045 503 q 952 446 979 446 l 952 452 l 940 446 l 921 459 q 909 446 921 446 q 890 465 909 456 l 871 452 q 847 477 847 469 l 835 471 l 828 484 q 835 490 835 484 q 816 503 816 490 q 822 508 822 503 l 810 508 l 797 503 m 642 490 l 636 477 l 636 471 l 642 471 q 655 484 655 471 l 642 490 m 605 484 l 605 428 q 636 440 621 440 l 636 459 l 630 471 l 618 465 l 611 465 l 611 484 l 605 484 m 958 484 l 958 477 q 970 465 960 465 l 970 471 q 958 484 970 484 m 655 465 l 649 452 l 667 452 q 655 465 667 465 m 624 428 q 605 410 624 410 q 618 397 607 397 l 636 421 l 624 428 m 704 428 l 704 410 q 723 404 711 410 l 723 428 l 704 428 m 680 404 l 680 397 q 704 385 689 397 l 704 391 q 698 410 698 403 q 680 404 686 404 m 1126 372 l 1126 366 q 1138 378 1138 366 l 1138 385 q 1126 372 1126 382 m 686 378 l 686 372 q 742 335 715 372 l 735 335 q 729 341 729 335 l 717 335 l 686 341 l 667 341 l 667 335 l 772 317 l 772 323 q 723 378 762 355 l 723 372 q 754 341 731 372 l 754 335 q 692 378 707 378 l 686 378 m 661 372 l 661 366 q 704 347 673 366 l 711 347 l 711 353 q 667 372 698 353 l 661 372 m 636 323 l 642 323 q 655 335 655 323 l 649 335 q 636 323 636 333 m 29 131 q 54 56 45 131 l 60 56 q 91 131 73 131 q 122 62 105 131 l 129 62 q 153 131 133 131 l 172 131 q 197 62 182 131 l 203 62 q 228 131 212 131 l 234 131 q 258 62 250 131 l 264 62 q 290 131 277 131 l 308 131 q 332 62 327 131 q 363 131 340 62 l 370 131 q 401 62 387 131 l 408 62 q 432 131 414 131 l 438 131 l 438 118 q 401 19 422 19 q 376 87 385 19 l 363 87 q 339 19 355 19 q 302 112 321 19 l 296 112 q 264 19 281 19 q 234 94 244 19 l 228 94 q 197 19 215 19 q 165 106 178 19 q 129 19 157 106 l 122 19 q 91 87 109 19 l 85 87 q 60 19 76 19 l 54 19 q 17 125 42 19 l 29 131 m 488 131 l 556 131 q 568 118 568 129 q 531 106 568 106 l 531 32 q 518 19 531 19 q 507 32 507 19 l 507 106 q 475 118 475 106 q 488 131 477 131 m 599 131 q 655 25 615 131 l 642 19 q 624 50 625 19 l 581 50 q 562 19 576 19 l 549 25 q 599 131 588 131 m 655 131 l 810 131 q 822 118 822 129 q 791 106 822 106 l 791 32 q 779 19 791 19 q 766 32 766 19 l 766 106 q 735 112 735 106 q 698 106 726 106 l 698 32 q 686 19 698 19 q 673 32 673 19 l 673 106 q 642 118 642 106 q 655 131 644 131 m 878 131 q 934 75 934 122 q 884 13 934 28 q 822 75 822 21 q 878 131 830 131 m 996 131 q 1045 81 1045 131 l 1045 50 q 989 13 1021 13 q 940 68 949 13 l 940 94 q 996 131 962 131 m 1063 131 q 1082 62 1082 106 l 1095 62 q 1120 131 1103 131 l 1126 131 q 1150 56 1139 131 l 1156 56 q 1181 131 1164 131 q 1194 118 1194 129 q 1156 19 1166 19 l 1150 19 q 1126 94 1136 19 l 1120 94 q 1088 19 1103 19 q 1051 125 1069 19 l 1063 131 m 1249 131 q 1305 62 1305 131 q 1249 13 1285 13 q 1194 87 1194 13 q 1249 131 1212 131 m 1367 131 q 1417 81 1417 131 l 1417 50 q 1361 13 1393 13 q 1311 68 1321 13 l 1311 81 q 1367 131 1311 131 m 1522 131 q 1565 94 1565 131 l 1553 87 q 1516 112 1532 112 q 1491 75 1491 106 l 1491 56 q 1510 38 1491 47 l 1528 38 q 1559 62 1556 62 l 1565 50 l 1565 44 q 1516 13 1548 13 q 1466 87 1466 13 q 1522 131 1485 131 m 1627 131 q 1683 75 1683 122 l 1683 68 q 1627 13 1675 13 q 1571 75 1571 27 q 1627 131 1584 131 m 1708 131 l 1714 131 q 1745 50 1728 131 l 1751 50 q 1788 131 1771 131 q 1801 118 1801 129 l 1801 32 q 1788 19 1801 19 q 1782 75 1782 23 l 1775 75 q 1751 19 1763 19 l 1745 19 q 1720 81 1731 19 l 1714 81 q 1702 19 1714 19 l 1695 32 l 1695 118 q 1708 131 1697 131 m 847 87 l 847 56 q 865 38 847 47 l 890 38 q 909 56 899 38 l 909 87 q 884 112 909 97 l 871 112 q 847 87 862 112 m 958 75 q 983 38 971 38 l 1008 38 q 1027 75 1027 44 q 989 112 1021 112 q 958 75 971 111 m 1219 75 l 1219 56 q 1237 38 1219 47 l 1261 38 q 1280 56 1271 38 l 1280 87 q 1255 112 1280 97 q 1219 75 1219 112 m 1330 68 q 1355 38 1342 40 l 1379 38 q 1398 75 1398 44 q 1361 112 1393 112 q 1330 68 1330 102 m 1596 87 l 1596 75 q 1615 38 1600 38 l 1640 38 q 1658 56 1649 38 l 1658 75 q 1627 112 1658 112 q 1596 87 1599 100 m 593 81 l 593 68 l 611 68 l 611 75 q 605 94 605 87 q 593 81 593 92 m 456 38 l 463 25 l 450 19 l 444 32 l 456 38 m 1441 38 q 1454 25 1454 36 l 1441 19 q 1429 32 1429 19 l 1441 38 z "},"@":{"ha":1843,"x_min":17,"x_max":1801,"o":"m 921 1158 q 1033 1065 977 1158 q 1082 991 1082 1031 l 1082 972 q 1051 917 1082 949 l 1051 873 q 1082 855 1082 869 q 1045 793 1045 849 l 1045 738 l 1033 738 l 1033 781 q 989 762 1010 762 l 977 762 q 958 781 968 762 q 964 787 958 787 q 958 831 958 812 l 946 824 l 946 837 q 1002 892 964 881 l 1039 880 l 1039 899 l 996 905 q 952 886 975 905 l 946 899 q 977 924 977 915 l 964 924 l 934 917 l 903 924 q 884 917 896 924 q 841 924 859 924 q 779 917 833 924 q 772 924 779 924 l 766 911 l 779 905 l 772 892 l 772 880 q 828 892 819 892 q 884 831 884 873 l 871 837 l 871 806 l 878 774 l 859 762 l 841 762 q 785 831 785 762 l 779 831 l 779 806 q 853 663 779 663 q 921 638 853 652 q 1027 725 1027 674 l 1039 725 q 1021 675 1039 713 q 1014 558 1014 577 q 1144 484 1144 532 q 1150 452 1150 473 l 1150 347 q 1156 218 1150 298 q 1132 186 1144 189 l 1126 186 l 1126 193 l 1138 211 l 1138 353 q 1114 359 1124 353 q 946 236 1114 236 l 946 248 q 1039 260 1025 260 l 1039 267 q 667 317 736 317 q 649 279 667 284 l 642 279 l 642 286 l 655 311 q 618 323 631 311 l 618 317 q 636 242 618 307 q 587 527 601 242 q 655 645 601 645 q 649 750 649 718 l 649 806 q 779 1134 649 1064 q 921 1158 818 1152 m 1008 924 l 1008 917 l 1039 911 l 1039 924 l 1008 924 m 859 917 q 890 892 888 905 l 890 886 l 884 886 l 853 905 q 785 899 798 899 l 785 911 q 859 917 795 911 m 748 855 l 748 831 q 760 843 760 831 q 748 855 760 855 m 785 855 l 791 824 l 797 824 l 797 855 l 785 855 m 1039 855 q 1033 818 1033 823 l 1033 812 l 1039 812 q 1045 849 1039 817 l 1045 855 l 1039 855 m 835 849 q 847 837 836 837 l 853 849 l 835 849 m 816 812 l 816 800 q 853 774 822 774 l 859 806 l 847 812 q 822 806 836 806 q 816 812 822 812 m 946 818 q 958 793 946 808 l 958 787 q 934 812 949 787 l 946 818 m 996 812 l 989 800 l 977 806 l 970 806 q 989 774 979 774 l 996 774 q 1014 793 1004 774 l 1014 806 q 996 812 1008 806 m 909 725 l 934 725 q 921 713 934 713 l 909 713 l 909 725 m 884 700 l 890 700 l 903 694 q 928 700 913 700 q 946 682 936 700 q 928 663 946 673 l 909 663 q 884 694 900 664 l 884 700 m 828 657 q 822 601 822 614 q 871 564 868 578 l 871 558 q 797 595 822 595 l 797 583 q 871 552 797 569 q 909 521 871 545 q 964 533 956 533 l 958 521 q 983 539 983 524 l 996 539 q 1063 521 1056 521 l 1063 533 q 996 545 1057 533 l 940 545 l 940 558 l 989 558 l 989 564 q 946 632 946 573 l 934 626 l 921 626 q 828 657 886 626 m 667 638 q 717 595 681 607 l 717 601 q 673 638 707 638 l 667 638 m 630 614 l 636 614 q 649 626 649 614 l 649 632 q 630 614 640 632 m 928 595 l 934 595 q 909 558 921 558 q 897 570 897 558 l 897 576 l 909 570 q 928 595 918 595 m 692 558 l 698 527 l 692 496 l 711 484 l 723 484 l 717 514 l 717 539 l 729 539 l 723 583 l 692 558 m 605 576 l 605 545 l 611 545 l 611 576 l 605 576 m 797 552 l 797 545 l 816 545 l 816 539 l 810 527 l 828 527 l 822 539 q 828 545 828 539 q 810 552 822 545 l 797 552 m 847 552 l 847 545 q 871 533 857 545 l 871 539 l 853 552 l 847 552 m 599 527 l 599 521 q 630 496 630 521 l 642 496 q 661 527 644 527 q 655 545 655 539 l 649 545 q 599 527 633 527 m 680 539 l 673 514 l 673 503 l 680 503 l 686 533 l 686 539 l 680 539 m 1002 514 l 996 503 q 1002 496 1002 503 q 996 490 996 496 l 1008 490 q 1039 508 1008 508 l 1039 514 l 1002 514 m 1088 521 l 1082 508 l 1082 465 q 1120 378 1105 378 l 1132 397 q 1120 410 1120 397 l 1132 410 q 1120 421 1132 421 l 1114 421 l 1120 410 l 1114 410 q 1101 421 1101 410 l 1120 446 q 1114 465 1114 458 l 1126 471 l 1138 465 l 1138 471 q 1088 521 1126 521 m 797 503 q 915 378 797 414 l 915 434 q 928 421 928 432 l 928 378 l 977 378 q 1045 446 1045 378 q 1051 503 1051 469 l 1045 503 q 952 446 979 446 l 952 452 l 940 446 l 921 459 q 909 446 921 446 q 890 465 909 456 l 871 452 q 847 477 847 469 l 835 471 l 828 484 q 835 490 835 484 q 816 503 816 490 q 822 508 822 503 l 810 508 l 797 503 m 642 490 l 636 477 l 636 471 l 642 471 q 655 484 655 471 l 642 490 m 605 484 l 605 428 q 636 440 621 440 l 636 459 l 630 471 l 618 465 l 611 465 l 611 484 l 605 484 m 958 484 l 958 477 q 970 465 960 465 l 970 471 q 958 484 970 484 m 655 465 l 649 452 l 667 452 q 655 465 667 465 m 624 428 q 605 410 624 410 q 618 397 607 397 l 636 421 l 624 428 m 704 428 l 704 410 q 723 404 711 410 l 723 428 l 704 428 m 680 404 l 680 397 q 704 385 689 397 l 704 391 q 698 410 698 403 q 680 404 686 404 m 1126 372 l 1126 366 q 1138 378 1138 366 l 1138 385 q 1126 372 1126 382 m 686 378 l 686 372 q 742 335 715 372 l 735 335 q 729 341 729 335 l 717 335 l 686 341 l 667 341 l 667 335 l 772 317 l 772 323 q 723 378 762 355 l 723 372 q 754 341 731 372 l 754 335 q 692 378 707 378 l 686 378 m 661 372 l 661 366 q 704 347 673 366 l 711 347 l 711 353 q 667 372 698 353 l 661 372 m 636 323 l 642 323 q 655 335 655 323 l 649 335 q 636 323 636 333 m 29 131 q 54 56 45 131 l 60 56 q 91 131 73 131 q 122 62 105 131 l 129 62 q 153 131 133 131 l 172 131 q 197 62 182 131 l 203 62 q 228 131 212 131 l 234 131 q 258 62 250 131 l 264 62 q 290 131 277 131 l 308 131 q 332 62 327 131 q 363 131 340 62 l 370 131 q 401 62 387 131 l 408 62 q 432 131 414 131 l 438 131 l 438 118 q 401 19 422 19 q 376 87 385 19 l 363 87 q 339 19 355 19 q 302 112 321 19 l 296 112 q 264 19 281 19 q 234 94 244 19 l 228 94 q 197 19 215 19 q 165 106 178 19 q 129 19 157 106 l 122 19 q 91 87 109 19 l 85 87 q 60 19 76 19 l 54 19 q 17 125 42 19 l 29 131 m 488 131 l 556 131 q 568 118 568 129 q 531 106 568 106 l 531 32 q 518 19 531 19 q 507 32 507 19 l 507 106 q 475 118 475 106 q 488 131 477 131 m 599 131 q 655 25 615 131 l 642 19 q 624 50 625 19 l 581 50 q 562 19 576 19 l 549 25 q 599 131 588 131 m 655 131 l 810 131 q 822 118 822 129 q 791 106 822 106 l 791 32 q 779 19 791 19 q 766 32 766 19 l 766 106 q 735 112 735 106 q 698 106 726 106 l 698 32 q 686 19 698 19 q 673 32 673 19 l 673 106 q 642 118 642 106 q 655 131 644 131 m 878 131 q 934 75 934 122 q 884 13 934 28 q 822 75 822 21 q 878 131 830 131 m 996 131 q 1045 81 1045 131 l 1045 50 q 989 13 1021 13 q 940 68 949 13 l 940 94 q 996 131 962 131 m 1063 131 q 1082 62 1082 106 l 1095 62 q 1120 131 1103 131 l 1126 131 q 1150 56 1139 131 l 1156 56 q 1181 131 1164 131 q 1194 118 1194 129 q 1156 19 1166 19 l 1150 19 q 1126 94 1136 19 l 1120 94 q 1088 19 1103 19 q 1051 125 1069 19 l 1063 131 m 1249 131 q 1305 62 1305 131 q 1249 13 1285 13 q 1194 87 1194 13 q 1249 131 1212 131 m 1367 131 q 1417 81 1417 131 l 1417 50 q 1361 13 1393 13 q 1311 68 1321 13 l 1311 81 q 1367 131 1311 131 m 1522 131 q 1565 94 1565 131 l 1553 87 q 1516 112 1532 112 q 1491 75 1491 106 l 1491 56 q 1510 38 1491 47 l 1528 38 q 1559 62 1556 62 l 1565 50 l 1565 44 q 1516 13 1548 13 q 1466 87 1466 13 q 1522 131 1485 131 m 1627 131 q 1683 75 1683 122 l 1683 68 q 1627 13 1675 13 q 1571 75 1571 27 q 1627 131 1584 131 m 1708 131 l 1714 131 q 1745 50 1728 131 l 1751 50 q 1788 131 1771 131 q 1801 118 1801 129 l 1801 32 q 1788 19 1801 19 q 1782 75 1782 23 l 1775 75 q 1751 19 1763 19 l 1745 19 q 1720 81 1731 19 l 1714 81 q 1702 19 1714 19 l 1695 32 l 1695 118 q 1708 131 1697 131 m 847 87 l 847 56 q 865 38 847 47 l 890 38 q 909 56 899 38 l 909 87 q 884 112 909 97 l 871 112 q 847 87 862 112 m 958 75 q 983 38 971 38 l 1008 38 q 1027 75 1027 44 q 989 112 1021 112 q 958 75 971 111 m 1219 75 l 1219 56 q 1237 38 1219 47 l 1261 38 q 1280 56 1271 38 l 1280 87 q 1255 112 1280 97 q 1219 75 1219 112 m 1330 68 q 1355 38 1342 40 l 1379 38 q 1398 75 1398 44 q 1361 112 1393 112 q 1330 68 1330 102 m 1596 87 l 1596 75 q 1615 38 1600 38 l 1640 38 q 1658 56 1649 38 l 1658 75 q 1627 112 1658 112 q 1596 87 1599 100 m 593 81 l 593 68 l 611 68 l 611 75 q 605 94 605 87 q 593 81 593 92 m 456 38 l 463 25 l 450 19 l 444 32 l 456 38 m 1441 38 q 1454 25 1454 36 l 1441 19 q 1429 32 1429 19 l 1441 38 z "},"A":{"ha":843,"x_min":16,"x_max":1830,"o":"m 507 968 l 519 935 q 563 774 551 774 q 596 924 585 924 l 600 924 l 600 921 q 688 454 600 728 q 827 182 739 316 q 1005 -21 897 81 q 1344 -243 1155 -152 q 1489 -307 1352 -251 q 1828 -397 1761 -397 l 1830 -402 l 1813 -408 q 1344 -307 1707 -408 q 1044 -185 1195 -256 q 644 51 854 -90 q 602 90 602 87 q 608 96 603 96 q 802 15 693 48 l 813 12 q 627 273 702 134 q 488 587 532 451 l 486 587 q 368 410 463 563 q 366 395 366 406 l 488 423 l 491 418 q 191 179 361 331 q 24 12 128 125 l 16 12 l 16 18 q 286 473 160 243 l 307 515 l 307 521 q 213 465 216 465 l 210 471 l 210 476 q 377 726 305 599 q 505 968 474 897 l 507 968 z "},"B":{"ha":1000,"x_min":-2,"x_max":977,"o":"m 622 969 l 654 969 q 874 904 786 960 q 977 720 977 814 q 923 541 977 631 q 874 478 887 478 l 874 481 q 899 611 899 555 l 899 625 q 893 630 899 630 q 752 530 808 545 q 692 494 747 524 q 825 443 781 481 q 890 318 886 378 l 893 299 q 758 90 893 194 q 592 3 682 35 q 470 -26 545 -13 l 467 -21 q 584 55 564 39 q 644 109 632 94 q 565 169 597 123 q 538 226 538 204 l 538 229 l 543 229 q 638 182 585 182 l 644 182 q 744 250 707 182 q 752 294 752 268 q 657 397 752 368 q 616 399 633 399 l 606 399 q 508 361 553 395 q 413 196 446 322 q 391 52 402 165 q 394 39 394 47 l 391 33 q 394 22 394 28 q 389 17 394 17 q 359 288 370 37 l 359 351 q 361 375 359 360 l 359 380 q 397 679 372 587 q 435 782 420 770 l 437 782 l 432 755 q 527 578 432 616 q 584 565 568 565 l 584 568 q 527 676 527 631 l 527 698 q 557 766 527 739 q 562 760 562 765 q 549 722 553 760 q 652 625 549 644 l 690 625 q 801 671 768 637 q 823 739 823 702 q 644 869 823 827 q 641 871 644 871 q 581 874 635 871 q 258 779 435 874 q 96 679 179 739 q 6 592 6 597 l 3 592 q -2 597 -2 592 q 112 722 14 629 q 397 909 284 866 q 513 953 444 935 q 622 969 538 961 z "},"C":{"ha":380,"x_min":6,"x_max":2039,"o":"m 684 972 q 720 963 720 969 l 720 960 q 490 886 581 939 q 208 594 287 775 q 161 356 161 450 q 208 184 191 184 q 279 95 235 132 l 283 95 q 455 115 418 115 q 904 -3 675 115 q 1201 -182 999 -51 q 1852 -390 1521 -390 q 1870 -387 1868 -387 l 1876 -390 q 2037 -375 1914 -390 l 2039 -381 q 1811 -422 1959 -422 l 1751 -422 q 1276 -333 1534 -422 l 1276 -336 q 1314 -464 1293 -373 l 1305 -470 q 806 -72 1129 -205 q 568 -24 659 -24 q 413 -48 452 -33 q 473 -116 413 -63 q 496 -140 473 -122 l 496 -143 l 490 -155 q 170 -9 340 -155 q 6 422 6 149 q 83 743 6 585 l 95 755 l 101 751 q 95 648 95 692 q 98 639 98 642 l 101 639 q 307 862 144 737 q 488 945 432 935 q 684 972 577 972 z "},"D":{"ha":1379,"x_min":0,"x_max":1318,"o":"m 852 972 q 1286 689 1148 972 q 1318 532 1318 610 q 1177 189 1318 348 q 875 5 1017 45 q 831 0 868 5 q 781 75 821 3 q 617 231 715 170 q 380 323 492 307 q 377 320 377 323 l 363 323 l 360 323 l 340 320 l 334 329 q 466 360 355 349 q 3 477 250 477 l 0 483 q 169 503 10 496 q 786 275 479 503 q 889 169 831 236 l 895 169 q 1069 277 1004 223 q 1186 452 1158 370 q 1195 492 1195 489 l 1195 494 l 1192 494 q 966 363 1072 382 q 915 351 955 357 l 912 357 q 1040 443 992 402 q 1126 626 1126 528 q 1015 800 1126 730 q 883 838 942 838 q 863 831 863 838 q 886 640 886 736 q 814 320 886 494 l 809 317 q 806 326 806 323 q 817 477 817 431 q 774 706 817 577 q 609 897 714 842 l 609 903 q 852 972 707 972 z "},"E":{"ha":721,"x_min":7,"x_max":2008,"o":"m 121 972 q 373 888 184 932 q 652 862 511 862 q 902 900 705 862 l 905 894 q 696 810 905 877 q 359 749 442 749 q 402 505 391 601 q 539 496 434 499 q 681 517 618 502 q 687 511 687 515 l 687 508 q 501 418 645 461 l 492 418 l 492 412 q 551 406 515 406 q 603 409 562 406 l 606 404 q 437 342 606 387 q 420 336 420 342 q 431 148 429 241 l 434 148 q 1137 -113 707 126 q 1480 -264 1342 -225 q 1811 -314 1643 -314 l 1843 -314 q 2005 -291 1925 -314 l 2008 -296 l 2008 -299 q 1895 -337 2008 -311 q 1636 -357 1793 -357 l 1616 -357 q 1605 -355 1609 -357 q 1602 -357 1602 -355 q 1320 -305 1407 -335 q 960 -165 1192 -267 q 632 -85 746 -85 q 623 -81 632 -81 q 434 -113 530 -81 l 431 -108 l 431 -105 q 513 -61 444 -88 q 617 -32 597 -32 q 417 -9 600 -15 l 414 -9 q 411 -6 411 -9 l 406 -9 l 361 -9 q 22 -90 204 -9 q 19 -93 22 -93 l 7 -93 l 7 -85 q 80 75 76 73 l 167 87 q 83 127 131 111 l 83 136 q 248 159 83 148 q 263 157 253 157 l 269 157 q 272 194 272 193 q 240 453 263 326 q 141 685 191 626 q 109 734 109 726 q 112 737 112 734 q 243 647 153 732 l 243 650 q 115 961 195 819 l 115 966 q 121 972 116 972 z "},"F":{"ha":732,"x_min":0,"x_max":1858,"o":"m 73 994 l 250 921 q 517 871 438 871 q 905 955 760 871 q 939 968 925 968 q 942 960 942 963 q 897 900 942 954 l 900 900 q 1482 970 1352 970 q 1779 931 1631 970 l 1784 934 l 1792 929 l 1797 931 q 1858 905 1857 911 l 1858 897 q 1852 892 1858 892 q 1598 918 1735 918 l 1588 918 q 1577 921 1581 918 q 1564 918 1573 918 q 1257 873 1280 903 q 1317 848 1317 858 q 1309 840 1317 844 l 1307 840 q 905 787 1220 840 q 595 753 712 761 q 593 755 593 753 l 574 753 l 459 753 q 433 559 454 686 l 438 559 q 595 606 477 559 l 598 606 q 604 601 604 605 l 604 598 l 574 559 l 577 559 q 709 580 641 564 q 713 574 713 579 l 713 567 q 407 449 652 515 q 372 351 395 449 q 268 81 326 218 q 220 0 231 7 l 218 0 l 212 3 l 226 157 l 223 163 l 226 178 l 226 197 q 223 208 226 203 l 226 212 q 210 386 226 282 l 215 389 l 220 389 q 254 320 229 389 q 265 289 265 292 l 270 289 q 312 729 312 507 l 312 748 q 286 764 312 764 q 168 769 279 766 q 100 764 151 769 l 94 771 q 173 813 100 787 l 173 819 q 63 827 116 827 q 3 821 16 821 l 0 827 l 0 829 q 68 994 0 848 l 73 994 z "},"G":{"ha":1225,"x_min":-50,"x_max":1410,"o":"m 1288 977 q 1410 960 1410 977 l 1410 958 l 1404 949 l 1391 952 l 1329 952 q 913 811 1129 952 q 764 648 785 701 q 705 464 715 562 q 732 345 705 400 l 737 345 q 772 467 741 410 l 783 467 l 789 464 l 786 450 l 786 437 q 862 288 786 346 q 922 274 891 274 q 998 366 981 274 l 998 391 q 935 532 990 454 q 821 616 854 616 l 816 624 l 816 627 q 835 635 817 635 q 1030 570 893 635 l 1030 578 q 949 654 1008 621 l 949 659 q 968 667 949 665 q 1174 602 1103 635 l 1177 597 q 1125 448 1144 524 q 1095 203 1097 328 q 1185 -179 1095 7 l 1228 -247 l 1228 -250 l 1223 -252 l 1215 -252 q 650 -60 887 -60 q 542 -79 582 -68 l 539 -73 l 539 -68 q 623 -14 578 -30 l 623 -11 q 422 0 564 -3 q -47 -90 160 0 l -50 -84 l -50 -81 q 146 8 -28 -50 q 634 81 390 81 l 656 81 q 987 38 798 81 l 987 41 q 979 127 981 79 l 965 125 q 691 220 795 125 q 577 483 577 321 q 724 836 577 646 q 783 892 773 890 l 791 892 l 791 879 q 770 806 781 867 l 775 806 q 984 922 884 896 q 1049 944 984 929 q 1288 977 1086 964 z "},"H":{"ha":782,"x_min":1,"x_max":1710,"o":"m 570 1010 l 570 1008 q 534 825 534 907 q 531 823 531 825 l 534 818 l 531 805 q 534 789 534 791 l 531 784 q 534 774 534 780 l 534 766 l 539 766 l 539 777 q 585 949 570 923 l 591 949 q 585 821 585 909 q 657 347 585 578 q 822 92 724 199 q 984 -39 897 12 q 1221 -152 1102 -109 q 1581 -242 1317 -196 q 1710 -263 1710 -252 q 1707 -265 1707 -263 q 1630 -268 1655 -268 l 1591 -268 l 1576 -271 q 1262 -235 1413 -263 q 958 -144 1076 -194 q 686 5 864 -113 q 513 149 620 50 q 493 174 493 172 l 498 177 q 668 92 573 126 l 670 92 l 670 95 q 542 334 587 224 q 282 424 388 363 q 184 478 267 424 q 94 -31 184 273 q 79 -60 83 -60 l 76 -54 l 76 -52 q 86 128 86 62 l 83 170 l 86 174 q 30 455 86 288 q 14 498 14 484 l 20 501 q 81 450 33 499 l 81 452 q 22 854 81 515 q 1 946 1 930 l 7 949 q 71 823 43 869 q 130 699 71 815 q 138 676 138 682 l 143 676 q 135 756 135 723 l 135 761 q 140 766 136 766 q 251 604 157 711 q 431 484 355 505 q 495 468 469 468 l 495 471 q 423 792 452 615 q 416 864 418 852 q 570 1010 533 999 z "},"I":{"ha":339,"x_min":0,"x_max":293,"o":"m 5 979 l 206 979 q 222 968 222 979 l 193 838 l 252 911 l 260 911 l 260 898 q 220 548 220 725 q 293 16 220 245 q 117 0 265 12 l 111 8 q 155 111 155 96 l 103 62 q 98 68 98 62 q 117 241 117 163 l 117 266 q 71 597 117 438 q 60 616 68 597 l 60 621 q 65 627 60 627 q 125 578 92 618 l 127 578 q 60 860 109 738 q 0 968 20 945 l 0 974 q 5 979 1 979 z "},"J":{"ha":937,"x_min":10,"x_max":1479,"o":"m 166 994 q 542 947 357 947 q 1066 970 981 970 q 1458 857 1272 970 l 1479 836 l 1479 833 q 1474 827 1479 827 q 1310 878 1444 851 q 1143 891 1185 891 q 1069 888 1083 888 q 1061 886 1064 886 l 1061 880 q 1204 795 1114 862 l 1204 793 l 1198 790 q 1048 830 1082 830 q 852 695 914 830 q 807 444 807 581 q 881 65 807 260 l 918 -1 l 918 -3 q 825 54 896 -3 l 825 52 l 860 -41 l 854 -43 q 593 142 753 47 q 333 253 387 253 q 298 269 299 265 l 298 271 q 336 279 298 277 q 402 277 380 277 l 405 277 l 405 279 q 145 393 306 336 q 10 425 78 412 l 10 431 q 16 435 11 435 l 21 435 q 389 364 166 435 q 701 229 580 298 l 704 229 l 704 232 q 675 555 675 359 l 675 592 q 696 761 675 694 l 701 761 q 717 703 705 761 q 725 677 720 703 l 730 677 q 825 848 758 785 l 825 851 l 820 851 q 764 848 790 851 q 264 941 525 848 q 163 991 195 967 q 166 994 166 991 z "},"K":{"ha":564,"x_min":1,"x_max":1367,"o":"m 117 1075 l 119 1075 q 280 992 154 1075 q 249 772 268 869 l 254 772 q 294 845 288 844 l 296 845 q 301 840 301 844 l 301 836 q 258 649 282 722 q 460 831 361 725 q 472 845 468 845 l 481 845 l 481 838 q 450 779 456 793 l 453 779 q 621 916 507 812 q 685 975 675 975 l 687 970 q 576 829 661 916 q 342 608 422 671 l 233 516 q 465 277 385 372 q 692 68 604 135 q 827 -12 752 28 q 1063 -106 913 -57 q 1367 -159 1173 -142 l 1367 -161 q 1357 -168 1367 -164 q 1260 -170 1295 -170 l 1217 -170 q 1208 -168 1212 -170 q 1205 -170 1205 -168 l 1194 -168 q 827 -104 1039 -168 q 541 45 699 -53 q 330 168 433 119 q 296 184 319 168 q 301 189 297 189 l 304 189 q 417 182 332 189 l 417 184 q 188 412 260 362 q 43 52 142 241 l 7 -5 l 5 -5 q 1 3 1 -5 q 62 327 62 172 q 39 514 62 449 l 43 516 l 48 516 q 100 459 65 503 q 119 814 110 528 l 119 836 q 110 1006 119 913 l 115 1008 l 121 1008 q 174 961 169 973 l 178 961 q 117 1065 157 1010 l 117 1075 z "},"L":{"ha":385,"x_min":-4,"x_max":1820,"o":"m 48 977 q 275 907 88 977 l 275 901 q 239 659 254 797 q 299 781 271 713 l 304 781 q 309 776 309 781 q 273 193 273 361 l 271 188 q 273 180 273 183 q 271 172 273 178 l 273 157 l 273 151 q 271 141 273 146 q 273 131 273 136 l 273 115 q 642 0 340 115 q 1088 -214 782 -64 q 1352 -311 1227 -274 q 1655 -368 1491 -350 q 1736 -374 1692 -374 l 1814 -374 q 1820 -379 1820 -374 q 1687 -395 1820 -395 l 1652 -395 q 970 -274 1363 -395 q 553 -209 736 -209 l 545 -209 l 542 -203 l 542 -201 q 735 -168 542 -184 l 738 -168 l 738 -165 q 184 -42 403 -42 l 134 -42 q 1 -50 115 -42 q -1 -52 1 -52 l -4 -47 q 140 5 2 -39 l 140 8 l 137 8 q 35 -3 54 -3 q 113 68 35 15 l 155 104 q 109 447 155 210 q 95 491 106 447 l 100 494 l 106 494 q 155 426 153 439 l 158 426 l 158 429 q 66 870 114 734 q 51 914 51 909 l 56 917 q 109 896 73 917 l 111 896 l 111 899 q 45 969 45 967 l 43 975 l 48 977 z "},"M":{"ha":880,"x_min":3,"x_max":1428,"o":"m 54 985 q 267 814 138 957 q 385 598 353 693 q 414 522 397 574 l 417 522 q 575 751 454 615 q 751 907 691 872 q 759 911 751 909 q 770 904 770 907 q 738 851 738 853 l 741 851 q 901 925 800 890 l 909 925 l 909 920 q 851 793 851 800 q 793 559 823 724 q 781 390 783 465 q 830 3 781 173 l 823 -2 l 817 -2 q 717 203 770 48 q 648 448 648 394 l 654 451 l 656 451 q 693 409 688 409 l 693 433 q 690 469 693 447 q 693 477 693 474 q 690 479 693 479 q 720 720 704 662 q 583 559 631 637 l 583 556 q 654 506 606 556 l 654 498 l 651 493 l 638 496 q 509 414 562 496 q 493 345 496 385 q 604 87 493 238 q 806 -113 699 -28 q 814 -115 809 -113 l 814 -113 q 738 11 738 1 l 738 14 q 743 19 739 19 l 746 19 q 922 -142 895 -142 q 1101 -237 983 -191 q 1370 -292 1246 -292 l 1391 -292 l 1423 -289 l 1428 -297 q 1280 -321 1428 -315 l 1276 -318 q 1265 -321 1266 -321 q 830 -223 1103 -321 l 722 -165 q 551 -37 642 -117 q 593 -147 566 -105 q 617 -184 617 -175 l 612 -186 q 483 -26 534 -119 q 301 469 391 156 l 298 469 q 272 366 281 366 l 269 366 q 251 482 264 366 q 227 588 245 496 l 222 588 q 156 309 222 518 q 12 27 92 127 l 9 27 q 3 35 3 27 q 87 456 87 231 q 66 609 87 496 l 72 612 q 117 519 94 590 l 119 519 q 122 530 119 530 q 61 859 122 695 l 61 861 q 66 867 62 867 l 72 867 q 122 827 92 858 l 122 830 q 45 977 92 924 q 54 985 45 981 z "}}}
